<svg xmlns="http://www.w3.org/2000/svg" width="1900" height="3840"><path d="M1033,1938L1014,1690L751,1788Z" fill="#cd8355" stroke="#cd8355" stroke-width="1.51"/><path d="M751,1788L739,1961L1033,1938Z" fill="#d18351" stroke="#d18351" stroke-width="1.51"/><path d="M1014,1690L757,1539L751,1788Z" fill="#db8249" stroke="#db8249" stroke-width="1.51"/><path d="M1210,1504L1026,1560L1014,1690Z" fill="#c88257" stroke="#c88257" stroke-width="1.51"/><path d="M751,1788L646,1934L739,1961Z" fill="#dc8348" stroke="#dc8348" stroke-width="1.51"/><path d="M1026,1560L757,1539L1014,1690Z" fill="#d6834d" stroke="#d6834d" stroke-width="1.51"/><path d="M751,1788L491,1910L646,1934Z" fill="#e48241" stroke="#e48241" stroke-width="1.51"/><path d="M472,1644L491,1910L751,1788Z" fill="#e77f3f" stroke="#e77f3f" stroke-width="1.51"/><path d="M1026,1560L762,1448L757,1539Z" fill="#e18244" stroke="#e18244" stroke-width="1.51"/><path d="M582,1517L751,1788L757,1539Z" fill="#ea823c" stroke="#ea823c" stroke-width="1.51"/><path d="M548,2160L889,2304L739,1961Z" fill="#d08251" stroke="#d08251" stroke-width="1.51"/><path d="M1033,1938L1339,1749L1014,1690Z" fill="#ba8361" stroke="#ba8361" stroke-width="1.51"/><path d="M1026,1560L1101,1363L762,1448Z" fill="#d9834b" stroke="#d9834b" stroke-width="1.51"/><path d="M1339,1749L1210,1504L1014,1690Z" fill="#bc8360" stroke="#bc8360" stroke-width="1.51"/><path d="M762,1448L582,1517L757,1539Z" fill="#ee8238" stroke="#ee8238" stroke-width="1.51"/><path d="M582,1517L472,1644L751,1788Z" fill="#ed803a" stroke="#ed803a" stroke-width="1.51"/><path d="M1033,1938L1270,2142L1339,1749Z" fill="#ab826b" stroke="#ab826b" stroke-width="1.51"/><path d="M999,2299L1270,2142L1033,1938Z" fill="#ad826a" stroke="#ad826a" stroke-width="1.51"/><path d="M889,2304L1033,1938L739,1961Z" fill="#c5835a" stroke="#c5835a" stroke-width="1.51"/><path d="M762,1448L711,1388L582,1517Z" fill="#f28234" stroke="#f28234" stroke-width="1.51"/><path d="M801,1184L711,1388L762,1448Z" fill="#f08236" stroke="#f08236" stroke-width="1.51"/><path d="M548,2160L739,1961L646,1934Z" fill="#dc8347" stroke="#dc8347" stroke-width="1.51"/><path d="M889,2304L999,2299L1033,1938Z" fill="#b78363" stroke="#b78363" stroke-width="1.51"/><path d="M1210,1504L1101,1363L1026,1560Z" fill="#cb8355" stroke="#cb8355" stroke-width="1.51"/><path d="M491,1910L548,2160L646,1934Z" fill="#dd7f48" stroke="#dd7f48" stroke-width="1.51"/><path d="M472,1644L412,1723L491,1910Z" fill="#e67a41" stroke="#e67a41" stroke-width="1.51"/><path d="M491,1910L298,1921L548,2160Z" fill="#db794a" stroke="#db794a" stroke-width="1.51"/><path d="M1270,2142L1471,1925L1339,1749Z" fill="#a68575" stroke="#a68575" stroke-width="1.51"/><path d="M1339,1749L1455,1523L1210,1504Z" fill="#b78468" stroke="#b78468" stroke-width="1.51"/><path d="M1471,1925L1502,1889L1339,1749Z" fill="#aa8878" stroke="#aa8878" stroke-width="1.51"/><path d="M1270,2142L1381,2206L1471,1925Z" fill="#9e857b" stroke="#9e857b" stroke-width="1.51"/><path d="M1471,1925L1741,1897L1502,1889Z" fill="#a78c83" stroke="#a78c83" stroke-width="1.51"/><path d="M1095,2466L1381,2206L1270,2142Z" fill="#968278" stroke="#968278" stroke-width="1.51"/><path d="M1502,1889L1455,1523L1339,1749Z" fill="#b18873" stroke="#b18873" stroke-width="1.51"/><path d="M1210,1504L1304,1321L1101,1363Z" fill="#c68359" stroke="#c68359" stroke-width="1.51"/><path d="M412,1723L298,1921L491,1910Z" fill="#e17747" stroke="#e17747" stroke-width="1.51"/><path d="M1455,1523L1304,1321L1210,1504Z" fill="#be8563" stroke="#be8563" stroke-width="1.51"/><path d="M1101,1363L801,1184L762,1448Z" fill="#e58240" stroke="#e58240" stroke-width="1.51"/><path d="M1304,1321L1077,1206L1101,1363Z" fill="#cf8353" stroke="#cf8353" stroke-width="1.51"/><path d="M1077,1206L801,1184L1101,1363Z" fill="#de8247" stroke="#de8247" stroke-width="1.51"/><path d="M711,1388L358,1308L582,1517Z" fill="#f77d30" stroke="#f77d30" stroke-width="1.51"/><path d="M218,1630L412,1723L472,1644Z" fill="#e87541" stroke="#e87541" stroke-width="1.51"/><path d="M218,1630L257,1755L412,1723Z" fill="#e57144" stroke="#e57144" stroke-width="1.51"/><path d="M412,1723L257,1755L298,1921Z" fill="#e27346" stroke="#e27346" stroke-width="1.51"/><path d="M218,1630L472,1644L358,1308Z" fill="#ee733c" stroke="#ee733c" stroke-width="1.51"/><path d="M999,2299L1095,2466L1270,2142Z" fill="#a28270" stroke="#a28270" stroke-width="1.51"/><path d="M889,2304L1095,2466L999,2299Z" fill="#ad836a" stroke="#ad836a" stroke-width="1.51"/><path d="M734,2565L1095,2466L889,2304Z" fill="#b18267" stroke="#b18267" stroke-width="1.51"/><path d="M548,2160L734,2565L889,2304Z" fill="#c78358" stroke="#c78358" stroke-width="1.51"/><path d="M225,2263L437,2318L548,2160Z" fill="#d07854" stroke="#d07854" stroke-width="1.51"/><path d="M81,2075L225,2263L298,1921Z" fill="#d36d53" stroke="#d36d53" stroke-width="1.51"/><path d="M358,1308L472,1644L582,1517Z" fill="#f17937" stroke="#f17937" stroke-width="1.51"/><path d="M602,1017L358,1308L711,1388Z" fill="#fb7c2b" stroke="#fb7c2b" stroke-width="1.51"/><path d="M437,2318L734,2565L548,2160Z" fill="#ce8053" stroke="#ce8053" stroke-width="1.51"/><path d="M1381,2206L1805,2050L1471,1925Z" fill="#9e8c87" stroke="#9e8c87" stroke-width="1.51"/><path d="M1384,2607L1537,2339L1381,2206Z" fill="#8c8788" stroke="#8c8788" stroke-width="1.51"/><path d="M298,1921L225,2263L548,2160Z" fill="#d57551" stroke="#d57551" stroke-width="1.51"/><path d="M437,2318L568,2574L734,2565Z" fill="#c88058" stroke="#c88058" stroke-width="1.51"/><path d="M81,2075L298,1921L-21,1904Z" fill="#d76a51" stroke="#d76a51" stroke-width="1.51"/><path d="M309,2567L568,2574L437,2318Z" fill="#c67a5b" stroke="#c67a5b" stroke-width="1.51"/><path d="M1502,1889L1741,1897L1455,1523Z" fill="#ae8d7f" stroke="#ae8d7f" stroke-width="1.51"/><path d="M1455,1523L1528,1233L1304,1321Z" fill="#c38868" stroke="#c38868" stroke-width="1.51"/><path d="M1805,2050L1741,1897L1471,1925Z" fill="#a4908d" stroke="#a4908d" stroke-width="1.51"/><path d="M1741,1460L1528,1233L1455,1523Z" fill="#c28d74" stroke="#c28d74" stroke-width="1.51"/><path d="M1304,1321L1346,1040L1077,1206Z" fill="#c78059" stroke="#c78059" stroke-width="1.51"/><path d="M913,951L602,1017L801,1184Z" fill="#ef7c38" stroke="#ef7c38" stroke-width="1.51"/><path d="M734,2565L790,2677L1095,2466Z" fill="#af8369" stroke="#af8369" stroke-width="1.51"/><path d="M1095,2466L1265,2617L1381,2206Z" fill="#8d827c" stroke="#8d827c" stroke-width="1.51"/><path d="M615,2719L790,2677L734,2565Z" fill="#bf8462" stroke="#bf8462" stroke-width="1.51"/><path d="M801,1184L602,1017L711,1388Z" fill="#f78030" stroke="#f78030" stroke-width="1.51"/><path d="M913,951L801,1184L1077,1206Z" fill="#e27f44" stroke="#e27f44" stroke-width="1.51"/><path d="M1168,2751L1265,2617L1095,2466Z" fill="#8d837e" stroke="#8d837e" stroke-width="1.51"/><path d="M-21,1904L298,1921L257,1755Z" fill="#dc6c4c" stroke="#dc6c4c" stroke-width="1.51"/><path d="M1078,835L913,951L1077,1206Z" fill="#d97c4c" stroke="#d97c4c" stroke-width="1.51"/><path d="M358,1308L190,1313L218,1630Z" fill="#f16e3b" stroke="#f16e3b" stroke-width="1.51"/><path d="M218,1630L-21,1904L257,1755Z" fill="#e06a4a" stroke="#e06a4a" stroke-width="1.51"/><path d="M481,962L281,1222L358,1308Z" fill="#f87134" stroke="#f87134" stroke-width="1.51"/><path d="M281,1222L190,1313L358,1308Z" fill="#f76e35" stroke="#f76e35" stroke-width="1.51"/><path d="M1528,1233L1346,1040L1304,1321Z" fill="#c68564" stroke="#c68564" stroke-width="1.51"/><path d="M1741,1897L1741,1460L1455,1523Z" fill="#b68f81" stroke="#b68f81" stroke-width="1.51"/><path d="M1265,2617L1384,2607L1381,2206Z" fill="#878484" stroke="#878484" stroke-width="1.51"/><path d="M1459,2683L1384,2607L1265,2617Z" fill="#81858b" stroke="#81858b" stroke-width="1.51"/><path d="M1893,1269L1848,1241L1741,1460Z" fill="#c69585" stroke="#c69585" stroke-width="1.51"/><path d="M1537,2339L1805,2050L1381,2206Z" fill="#968c8d" stroke="#968c8d" stroke-width="1.51"/><path d="M1799,2281L1805,2050L1537,2339Z" fill="#929098" stroke="#929098" stroke-width="1.51"/><path d="M-124,1564L-21,1904L218,1630Z" fill="#e0634a" stroke="#e0634a" stroke-width="1.51"/><path d="M790,2677L1168,2751L1095,2466Z" fill="#a08374" stroke="#a08374" stroke-width="1.51"/><path d="M568,2574L615,2719L734,2565Z" fill="#c5845c" stroke="#c5845c" stroke-width="1.51"/><path d="M363,2682L615,2719L568,2574Z" fill="#c47f5f" stroke="#c47f5f" stroke-width="1.51"/><path d="M225,2263L309,2567L437,2318Z" fill="#c9755a" stroke="#c9755a" stroke-width="1.51"/><path d="M60,2411L309,2567L225,2263Z" fill="#c56f5d" stroke="#c56f5d" stroke-width="1.51"/><path d="M60,2411L225,2263L81,2075Z" fill="#cb6a5a" stroke="#cb6a5a" stroke-width="1.51"/><path d="M1384,2607L1556,2535L1537,2339Z" fill="#84888f" stroke="#84888f" stroke-width="1.51"/><path d="M1041,2989L1168,2751L790,2677Z" fill="#a1867a" stroke="#a1867a" stroke-width="1.51"/><path d="M1384,2607L1459,2683L1556,2535Z" fill="#7f8891" stroke="#7f8891" stroke-width="1.51"/><path d="M602,1017L481,962L358,1308Z" fill="#f97531" stroke="#f97531" stroke-width="1.51"/><path d="M281,1222L175,1145L190,1313Z" fill="#f56937" stroke="#f56937" stroke-width="1.51"/><path d="M558,801L481,962L602,1017Z" fill="#f97431" stroke="#f97431" stroke-width="1.51"/><path d="M1749,1212L1578,1121L1528,1233Z" fill="#c78c74" stroke="#c78c74" stroke-width="1.51"/><path d="M1528,1233L1578,1121L1346,1040Z" fill="#c6866b" stroke="#c6866b" stroke-width="1.51"/><path d="M1811,2496L1799,2281L1537,2339Z" fill="#89909d" stroke="#89909d" stroke-width="1.51"/><path d="M1281,790L1078,835L1346,1040Z" fill="#c57a5b" stroke="#c57a5b" stroke-width="1.51"/><path d="M1346,1040L1078,835L1077,1206Z" fill="#cd7d55" stroke="#cd7d55" stroke-width="1.51"/><path d="M628,741L558,801L602,1017Z" fill="#f97431" stroke="#f97431" stroke-width="1.51"/><path d="M-101,1450L-124,1564L218,1630Z" fill="#e66146" stroke="#e66146" stroke-width="1.51"/><path d="M481,962L175,1145L281,1222Z" fill="#f66c36" stroke="#f66c36" stroke-width="1.51"/><path d="M1556,2535L1811,2496L1537,2339Z" fill="#848d99" stroke="#848d99" stroke-width="1.51"/><path d="M1168,2751L1459,2683L1265,2617Z" fill="#828487" stroke="#828487" stroke-width="1.51"/><path d="M309,2567L363,2682L568,2574Z" fill="#c27a5f" stroke="#c27a5f" stroke-width="1.51"/><path d="M56,2733L363,2682L309,2567Z" fill="#bf7265" stroke="#bf7265" stroke-width="1.51"/><path d="M1741,1460L1749,1212L1528,1233Z" fill="#c79078" stroke="#c79078" stroke-width="1.51"/><path d="M1440,770L1281,790L1346,1040Z" fill="#c37d64" stroke="#c37d64" stroke-width="1.51"/><path d="M1848,1241L1749,1212L1741,1460Z" fill="#c79480" stroke="#c79480" stroke-width="1.51"/><path d="M-101,2179L60,2411L81,2075Z" fill="#ca655b" stroke="#ca655b" stroke-width="1.51"/><path d="M-21,1904L-115,2020L81,2075Z" fill="#d36454" stroke="#d36454" stroke-width="1.51"/><path d="M-265,1787L-115,2020L-21,1904Z" fill="#d76351" stroke="#d76351" stroke-width="1.51"/><path d="M-101,1450L218,1630L190,1313Z" fill="#ec6641" stroke="#ec6641" stroke-width="1.51"/><path d="M-115,2020L-101,2179L81,2075Z" fill="#cf6457" stroke="#cf6457" stroke-width="1.51"/><path d="M-88,1135L-101,1450L190,1313Z" fill="#f15f3d" stroke="#f15f3d" stroke-width="1.51"/><path d="M481,962L98,919L175,1145Z" fill="#f4663a" stroke="#f4663a" stroke-width="1.51"/><path d="M628,741L602,1017L913,951Z" fill="#f37836" stroke="#f37836" stroke-width="1.51"/><path d="M1440,770L1346,1040L1578,1121Z" fill="#c5826a" stroke="#c5826a" stroke-width="1.51"/><path d="M817,624L628,741L913,951Z" fill="#ec753d" stroke="#ec753d" stroke-width="1.51"/><path d="M1692,885L1440,770L1578,1121Z" fill="#c48573" stroke="#c48573" stroke-width="1.51"/><path d="M1893,1269L1741,1460L2027,1518Z" fill="#c1988c" stroke="#c1988c" stroke-width="1.51"/><path d="M1741,1460L1741,1897L2027,1518Z" fill="#b6958f" stroke="#b6958f" stroke-width="1.51"/><path d="M363,2682L559,2866L615,2719Z" fill="#c48163" stroke="#c48163" stroke-width="1.51"/><path d="M615,2719L789,3007L790,2677Z" fill="#bd8769" stroke="#bd8769" stroke-width="1.51"/><path d="M287,2957L559,2866L363,2682Z" fill="#c37d68" stroke="#c37d68" stroke-width="1.51"/><path d="M817,624L913,951L1078,835Z" fill="#df7748" stroke="#df7748" stroke-width="1.51"/><path d="M2058,2115L2060,1821L1805,2050Z" fill="#9f979f" stroke="#9f979f" stroke-width="1.51"/><path d="M1708,2682L1811,2496L1556,2535Z" fill="#7b8fa1" stroke="#7b8fa1" stroke-width="1.51"/><path d="M1692,885L1578,1121L1749,1212Z" fill="#c68c79" stroke="#c68c79" stroke-width="1.51"/><path d="M2060,1821L1741,1897L1805,2050Z" fill="#a4969a" stroke="#a4969a" stroke-width="1.51"/><path d="M2058,2115L1805,2050L1799,2281Z" fill="#9596a3" stroke="#9596a3" stroke-width="1.51"/><path d="M2060,1821L2027,1518L1741,1897Z" fill="#ae9897" stroke="#ae9897" stroke-width="1.51"/><path d="M1459,2683L1708,2682L1556,2535Z" fill="#7d8c9a" stroke="#7d8c9a" stroke-width="1.51"/><path d="M1567,2908L1708,2682L1459,2683Z" fill="#7c8e9f" stroke="#7c8e9f" stroke-width="1.51"/><path d="M1193,2974L1459,2683L1168,2751Z" fill="#81858a" stroke="#81858a" stroke-width="1.51"/><path d="M789,3007L1041,2989L790,2677Z" fill="#af8875" stroke="#af8875" stroke-width="1.51"/><path d="M950,549L817,624L1078,835Z" fill="#dd744b" stroke="#dd744b" stroke-width="1.51"/><path d="M1692,885L1749,1212L1911,964Z" fill="#c68e82" stroke="#c68e82" stroke-width="1.51"/><path d="M-124,1564L-265,1787L-21,1904Z" fill="#de634d" stroke="#de634d" stroke-width="1.51"/><path d="M-115,2020L-406,2196L-101,2179Z" fill="#ce6459" stroke="#ce6459" stroke-width="1.51"/><path d="M-284,1504L-265,1787L-124,1564Z" fill="#e36148" stroke="#e36148" stroke-width="1.51"/><path d="M2081,2251L2058,2115L1799,2281Z" fill="#9096a6" stroke="#9096a6" stroke-width="1.51"/><path d="M2081,2251L1799,2281L2078,2406Z" fill="#8996a9" stroke="#8996a9" stroke-width="1.51"/><path d="M1041,2989L1193,2974L1168,2751Z" fill="#918785" stroke="#918785" stroke-width="1.51"/><path d="M559,2866L789,3007L615,2719Z" fill="#c48866" stroke="#c48866" stroke-width="1.51"/><path d="M950,549L1078,835L1082,507Z" fill="#d57351" stroke="#d57351" stroke-width="1.51"/><path d="M-101,1450L-284,1504L-124,1564Z" fill="#e86145" stroke="#e86145" stroke-width="1.51"/><path d="M175,1145L-88,1135L190,1313Z" fill="#f3623b" stroke="#f3623b" stroke-width="1.51"/><path d="M98,919L-88,1135L175,1145Z" fill="#f15d3e" stroke="#f15d3e" stroke-width="1.51"/><path d="M98,919L481,962L434,638Z" fill="#f4663a" stroke="#f4663a" stroke-width="1.51"/><path d="M481,962L558,801L434,638Z" fill="#f76d35" stroke="#f76d35" stroke-width="1.51"/><path d="M434,638L558,801L628,741Z" fill="#f76e35" stroke="#f76e35" stroke-width="1.51"/><path d="M2198,1988L2132,1833L2060,1821Z" fill="#a6979b" stroke="#a6979b" stroke-width="1.51"/><path d="M2060,1821L2292,1646L2027,1518Z" fill="#b39795" stroke="#b39795" stroke-width="1.51"/><path d="M1976,1128L1848,1241L1893,1269Z" fill="#c89789" stroke="#c89789" stroke-width="1.51"/><path d="M1976,1128L1749,1212L1848,1241Z" fill="#c89586" stroke="#c89586" stroke-width="1.51"/><path d="M-337,1411L-284,1504L-101,1450Z" fill="#ea6143" stroke="#ea6143" stroke-width="1.51"/><path d="M2078,2406L1799,2281L1811,2496Z" fill="#8396ab" stroke="#8396ab" stroke-width="1.51"/><path d="M2058,2115L2198,1988L2060,1821Z" fill="#a1979e" stroke="#a1979e" stroke-width="1.51"/><path d="M559,2866L534,3155L789,3007Z" fill="#c7896a" stroke="#c7896a" stroke-width="1.51"/><path d="M60,2411L56,2733L309,2567Z" fill="#bd6c63" stroke="#bd6c63" stroke-width="1.51"/><path d="M11,2731L56,2733L60,2411Z" fill="#bc6967" stroke="#bc6967" stroke-width="1.51"/><path d="M-155,2511L60,2411L-101,2179Z" fill="#c3655f" stroke="#c3655f" stroke-width="1.51"/><path d="M1895,2692L2078,2406L1811,2496Z" fill="#7896af" stroke="#7896af" stroke-width="1.51"/><path d="M1193,2974L1567,2908L1459,2683Z" fill="#7f8a96" stroke="#7f8a96" stroke-width="1.51"/><path d="M2158,1346L1976,1128L1893,1269Z" fill="#c89789" stroke="#c89789" stroke-width="1.51"/><path d="M2158,1346L1893,1269L2027,1518Z" fill="#c3988c" stroke="#c3988c" stroke-width="1.51"/><path d="M-406,2196L-155,2511L-101,2179Z" fill="#c6655d" stroke="#c6655d" stroke-width="1.51"/><path d="M1082,507L1078,835L1281,790Z" fill="#cc7657" stroke="#cc7657" stroke-width="1.51"/><path d="M503,399L434,638L628,741Z" fill="#f56938" stroke="#f56938" stroke-width="1.51"/><path d="M503,399L628,741L817,624Z" fill="#f66f35" stroke="#f66f35" stroke-width="1.51"/><path d="M56,2733L287,2957L363,2682Z" fill="#bf746a" stroke="#bf746a" stroke-width="1.51"/><path d="M-155,2511L11,2731L60,2411Z" fill="#bb6665" stroke="#bb6665" stroke-width="1.51"/><path d="M2292,1646L2158,1346L2027,1518Z" fill="#bc988f" stroke="#bc988f" stroke-width="1.51"/><path d="M2202,2301L2198,1988L2058,2115Z" fill="#9697a3" stroke="#9697a3" stroke-width="1.51"/><path d="M99,3015L287,2957L56,2733Z" fill="#be736f" stroke="#be736f" stroke-width="1.51"/><path d="M2081,2251L2202,2301L2058,2115Z" fill="#9096a6" stroke="#9096a6" stroke-width="1.51"/><path d="M1895,2692L1811,2496L1708,2682Z" fill="#7794ab" stroke="#7794ab" stroke-width="1.51"/><path d="M1850,3009L1895,2692L1708,2682Z" fill="#7497b3" stroke="#7497b3" stroke-width="1.51"/><path d="M1976,1128L1911,964L1749,1212Z" fill="#c79489" stroke="#c79489" stroke-width="1.51"/><path d="M1692,885L1571,680L1440,770Z" fill="#c38275" stroke="#c38275" stroke-width="1.51"/><path d="M1440,770L1375,581L1281,790Z" fill="#c17966" stroke="#c17966" stroke-width="1.51"/><path d="M-265,1787L-428,2076L-115,2020Z" fill="#d56453" stroke="#d56453" stroke-width="1.51"/><path d="M-284,1504L-337,1411L-265,1787Z" fill="#e66146" stroke="#e66146" stroke-width="1.51"/><path d="M-88,1135L-337,1411L-101,1450Z" fill="#f05f3e" stroke="#f05f3e" stroke-width="1.51"/><path d="M-379,1149L-337,1411L-88,1135Z" fill="#f15e3d" stroke="#f15e3d" stroke-width="1.51"/><path d="M1737,547L1571,680L1692,885Z" fill="#c3837c" stroke="#c3837c" stroke-width="1.51"/><path d="M1571,680L1375,581L1440,770Z" fill="#c27c6e" stroke="#c27c6e" stroke-width="1.51"/><path d="M745,313L503,399L817,624Z" fill="#f16c3b" stroke="#f16c3b" stroke-width="1.51"/><path d="M1375,581L1082,507L1281,790Z" fill="#c2745e" stroke="#c2745e" stroke-width="1.51"/><path d="M2292,1646L2060,1821L2132,1833Z" fill="#ad9898" stroke="#ad9898" stroke-width="1.51"/><path d="M1976,1128L2300,872L1911,964Z" fill="#c6928b" stroke="#c6928b" stroke-width="1.51"/><path d="M789,3007L865,3180L1041,2989Z" fill="#ac8b7d" stroke="#ac8b7d" stroke-width="1.51"/><path d="M1087,3272L1339,3124L1193,2974Z" fill="#878a92" stroke="#878a92" stroke-width="1.51"/><path d="M1193,2974L1339,3124L1567,2908Z" fill="#7e8b98" stroke="#7e8b98" stroke-width="1.51"/><path d="M534,3155L865,3180L789,3007Z" fill="#be8c74" stroke="#be8c74" stroke-width="1.51"/><path d="M-337,1411L-428,2076L-265,1787Z" fill="#de634d" stroke="#de634d" stroke-width="1.51"/><path d="M1087,3272L1193,2974L1041,2989Z" fill="#948a8a" stroke="#948a8a" stroke-width="1.51"/><path d="M1880,3018L2122,2719L1895,2692Z" fill="#719ab9" stroke="#719ab9" stroke-width="1.51"/><path d="M-428,2076L-406,2196L-115,2020Z" fill="#cf6458" stroke="#cf6458" stroke-width="1.51"/><path d="M-123,2923L99,3015L11,2731Z" fill="#bc6c71" stroke="#bc6c71" stroke-width="1.51"/><path d="M2176,2386L2081,2251L2078,2406Z" fill="#8696aa" stroke="#8696aa" stroke-width="1.51"/><path d="M2176,2386L2202,2301L2081,2251Z" fill="#8996a9" stroke="#8996a9" stroke-width="1.51"/><path d="M2122,2719L2176,2386L2078,2406Z" fill="#7a96af" stroke="#7a96af" stroke-width="1.51"/><path d="M387,3116L534,3155L559,2866Z" fill="#c5856e" stroke="#c5856e" stroke-width="1.51"/><path d="M2198,1988L2292,1646L2132,1833Z" fill="#a9979a" stroke="#a9979a" stroke-width="1.51"/><path d="M2202,2301L2292,1646L2198,1988Z" fill="#a0979e" stroke="#a0979e" stroke-width="1.51"/><path d="M287,2957L387,3116L559,2866Z" fill="#c3806d" stroke="#c3806d" stroke-width="1.51"/><path d="M209,3204L387,3116L287,2957Z" fill="#c27c73" stroke="#c27c73" stroke-width="1.51"/><path d="M1375,581L1367,494L1082,507Z" fill="#bf7261" stroke="#bf7261" stroke-width="1.51"/><path d="M1616,416L1367,494L1375,581Z" fill="#c0776e" stroke="#c0776e" stroke-width="1.51"/><path d="M1616,416L1375,581L1571,680Z" fill="#c17c73" stroke="#c17c73" stroke-width="1.51"/><path d="M98,919L-136,885L-88,1135Z" fill="#ef5741" stroke="#ef5741" stroke-width="1.51"/><path d="M18,640L-136,885L98,919Z" fill="#ed5243" stroke="#ed5243" stroke-width="1.51"/><path d="M11,2731L99,3015L56,2733Z" fill="#bc6d6e" stroke="#bc6d6e" stroke-width="1.51"/><path d="M-123,2923L11,2731L-401,2802Z" fill="#bb6a6f" stroke="#bb6a6f" stroke-width="1.51"/><path d="M-136,885L-379,1149L-88,1135Z" fill="#ef5940" stroke="#ef5940" stroke-width="1.51"/><path d="M-337,1411L-379,1149L-428,2076Z" fill="#e76146" stroke="#e76146" stroke-width="1.51"/><path d="M738,3341L1087,3272L865,3180Z" fill="#ac8e84" stroke="#ac8e84" stroke-width="1.51"/><path d="M865,3180L1087,3272L1041,2989Z" fill="#a18c86" stroke="#a18c86" stroke-width="1.51"/><path d="M745,313L817,624L950,549Z" fill="#e56e45" stroke="#e56e45" stroke-width="1.51"/><path d="M109,543L18,640L98,919Z" fill="#ee5342" stroke="#ee5342" stroke-width="1.51"/><path d="M745,313L950,549L765,271Z" fill="#e66b45" stroke="#e66b45" stroke-width="1.51"/><path d="M109,543L98,919L434,638Z" fill="#f15b3f" stroke="#f15b3f" stroke-width="1.51"/><path d="M-136,885L-309,768L-379,1149Z" fill="#ee5541" stroke="#ee5541" stroke-width="1.51"/><path d="M-406,2196L-430,2489L-155,2511Z" fill="#c26560" stroke="#c26560" stroke-width="1.51"/><path d="M-428,2076L-430,2489L-406,2196Z" fill="#c8655c" stroke="#c8655c" stroke-width="1.51"/><path d="M1999,598L1737,547L1692,885Z" fill="#c38887" stroke="#c38887" stroke-width="1.51"/><path d="M2158,1346L2263,1162L1976,1128Z" fill="#c89789" stroke="#c89789" stroke-width="1.51"/><path d="M2292,1646L2263,1162L2158,1346Z" fill="#c3988c" stroke="#c3988c" stroke-width="1.51"/><path d="M1850,3009L1567,2908L1714,3158Z" fill="#7497b3" stroke="#7497b3" stroke-width="1.51"/><path d="M1850,3009L1708,2682L1567,2908Z" fill="#7694ad" stroke="#7694ad" stroke-width="1.51"/><path d="M1895,2692L2122,2719L2078,2406Z" fill="#7496b2" stroke="#7496b2" stroke-width="1.51"/><path d="M2176,2386L2331,3451L2202,2301Z" fill="#7398b6" stroke="#7398b6" stroke-width="1.51"/><path d="M128,526L109,543L434,638Z" fill="#ef5840" stroke="#ef5840" stroke-width="1.51"/><path d="M1428,3245L1567,2908L1339,3124Z" fill="#7b8fa1" stroke="#7b8fa1" stroke-width="1.51"/><path d="M-401,2802L11,2731L-155,2511Z" fill="#bb686a" stroke="#bb686a" stroke-width="1.51"/><path d="M1087,3272L1428,3245L1339,3124Z" fill="#7e8c9a" stroke="#7e8c9a" stroke-width="1.51"/><path d="M284,378L128,526L434,638Z" fill="#f05a40" stroke="#f05a40" stroke-width="1.51"/><path d="M1999,598L1692,885L1911,964Z" fill="#c48d8a" stroke="#c48d8a" stroke-width="1.51"/><path d="M503,399L284,378L434,638Z" fill="#f25f3d" stroke="#f25f3d" stroke-width="1.51"/><path d="M765,271L950,549L1082,507Z" fill="#dc6e4c" stroke="#dc6e4c" stroke-width="1.51"/><path d="M765,271L1082,507L1155,252Z" fill="#d66c52" stroke="#d66c52" stroke-width="1.51"/><path d="M534,3155L738,3341L865,3180Z" fill="#c08e77" stroke="#c08e77" stroke-width="1.51"/><path d="M1087,3272L1126,3411L1428,3245Z" fill="#858d99" stroke="#858d99" stroke-width="1.51"/><path d="M479,3495L738,3341L534,3155Z" fill="#c78d77" stroke="#c78d77" stroke-width="1.51"/><path d="M479,3495L534,3155L387,3116Z" fill="#c58776" stroke="#c58776" stroke-width="1.51"/><path d="M209,3204L287,2957L99,3015Z" fill="#c07774" stroke="#c07774" stroke-width="1.51"/><path d="M1714,3158L1880,3018L1850,3009Z" fill="#709bbd" stroke="#709bbd" stroke-width="1.51"/><path d="M1850,3009L1880,3018L1895,2692Z" fill="#709abb" stroke="#709abb" stroke-width="1.51"/><path d="M-157,3165L209,3204L99,3015Z" fill="#bd7279" stroke="#bd7279" stroke-width="1.51"/><path d="M1428,3245L1714,3158L1567,2908Z" fill="#7794ab" stroke="#7794ab" stroke-width="1.51"/><path d="M745,313L534,96L503,399Z" fill="#f3653a" stroke="#f3653a" stroke-width="1.51"/><path d="M1155,252L1082,507L1305,271Z" fill="#c56d5d" stroke="#c56d5d" stroke-width="1.51"/><path d="M1737,547L1616,416L1571,680Z" fill="#c17f7c" stroke="#c17f7c" stroke-width="1.51"/><path d="M-51,418L18,640L109,543Z" fill="#eb4a45" stroke="#eb4a45" stroke-width="1.51"/><path d="M372,292L284,378L503,399Z" fill="#f05b3f" stroke="#f05b3f" stroke-width="1.51"/><path d="M-51,418L109,543L128,526Z" fill="#ec4c45" stroke="#ec4c45" stroke-width="1.51"/><path d="M-51,418L-229,732L18,640Z" fill="#eb4b45" stroke="#eb4b45" stroke-width="1.51"/><path d="M18,640L-229,732L-136,885Z" fill="#ed4f43" stroke="#ed4f43" stroke-width="1.51"/><path d="M1305,271L1082,507L1367,494Z" fill="#c06f61" stroke="#c06f61" stroke-width="1.51"/><path d="M1503,238L1305,271L1367,494Z" fill="#be726b" stroke="#be726b" stroke-width="1.51"/><path d="M738,3341L1126,3411L1087,3272Z" fill="#a28f8c" stroke="#a28f8c" stroke-width="1.51"/><path d="M1428,3245L1526,3357L1714,3158Z" fill="#7695b0" stroke="#7695b0" stroke-width="1.51"/><path d="M-229,732L-309,768L-136,885Z" fill="#ed5143" stroke="#ed5143" stroke-width="1.51"/><path d="M-340,418L-309,768L-229,732Z" fill="#ec4c45" stroke="#ec4c45" stroke-width="1.51"/><path d="M150,274L-51,418L128,526Z" fill="#eb4946" stroke="#eb4946" stroke-width="1.51"/><path d="M534,96L372,292L503,399Z" fill="#f15d3e" stroke="#f15d3e" stroke-width="1.51"/><path d="M2153,639L1999,598L1911,964Z" fill="#c38c8d" stroke="#c38c8d" stroke-width="1.51"/><path d="M1737,547L1828,331L1616,416Z" fill="#c17f83" stroke="#c17f83" stroke-width="1.51"/><path d="M-430,2489L-401,2802L-155,2511Z" fill="#ba6667" stroke="#ba6667" stroke-width="1.51"/><path d="M-123,2923L-157,3165L99,3015Z" fill="#bc6e76" stroke="#bc6e76" stroke-width="1.51"/><path d="M1387,3445L1526,3357L1428,3245Z" fill="#7794ab" stroke="#7794ab" stroke-width="1.51"/><path d="M2079,3175L2137,2989L1880,3018Z" fill="#6c9ec3" stroke="#6c9ec3" stroke-width="1.51"/><path d="M2263,1162L2300,872L1976,1128Z" fill="#c6938a" stroke="#c6938a" stroke-width="1.51"/><path d="M2292,1646L2300,872L2263,1162Z" fill="#c89789" stroke="#c89789" stroke-width="1.51"/><path d="M1999,598L1921,475L1737,547Z" fill="#c2878e" stroke="#c2878e" stroke-width="1.51"/><path d="M1616,416L1503,238L1367,494Z" fill="#c07673" stroke="#c07673" stroke-width="1.51"/><path d="M2295,337L1921,475L1999,598Z" fill="#c1868f" stroke="#c1868f" stroke-width="1.51"/><path d="M1126,3411L1387,3445L1428,3245Z" fill="#7b8fa2" stroke="#7b8fa2" stroke-width="1.51"/><path d="M2122,2719L2188,3156L2176,2386Z" fill="#7299b7" stroke="#7299b7" stroke-width="1.51"/><path d="M2202,2301L2331,3451L2292,1646Z" fill="#7d96ad" stroke="#7d96ad" stroke-width="1.51"/><path d="M1880,3018L2137,2989L2122,2719Z" fill="#6f9bbd" stroke="#6f9bbd" stroke-width="1.51"/><path d="M2079,3175L1880,3018L1714,3158Z" fill="#6b9ec5" stroke="#6b9ec5" stroke-width="1.51"/><path d="M2079,3175L1714,3158L2066,3319Z" fill="#68a0c9" stroke="#68a0c9" stroke-width="1.51"/><path d="M1816,259L1503,238L1616,416Z" fill="#bf7a7e" stroke="#bf7a7e" stroke-width="1.51"/><path d="M1305,271L1404,40L1155,252Z" fill="#bc6b65" stroke="#bc6b65" stroke-width="1.51"/><path d="M150,274L128,526L284,378Z" fill="#ed5143" stroke="#ed5143" stroke-width="1.51"/><path d="M2300,872L2153,639L1911,964Z" fill="#c48e8d" stroke="#c48e8d" stroke-width="1.51"/><path d="M-373,3098L-157,3165L-123,2923Z" fill="#bc6e77" stroke="#bc6e77" stroke-width="1.51"/><path d="M209,3204L479,3495L387,3116Z" fill="#c38279" stroke="#c38279" stroke-width="1.51"/><path d="M372,292L150,274L284,378Z" fill="#ee5342" stroke="#ee5342" stroke-width="1.51"/><path d="M317,-83L150,274L372,292Z" fill="#ec4f44" stroke="#ec4f44" stroke-width="1.51"/><path d="M534,96L745,313L765,271Z" fill="#f0663d" stroke="#f0663d" stroke-width="1.51"/><path d="M534,96L765,271L662,-52Z" fill="#f1623d" stroke="#f1623d" stroke-width="1.51"/><path d="M-401,2802L-404,2940L-123,2923Z" fill="#bc6c71" stroke="#bc6c71" stroke-width="1.51"/><path d="M-430,2489L-404,2940L-401,2802Z" fill="#bb696c" stroke="#bb696c" stroke-width="1.51"/><path d="M738,3341L1058,3566L1126,3411Z" fill="#a3918f" stroke="#a3918f" stroke-width="1.51"/><path d="M1126,3411L1334,3582L1387,3445Z" fill="#7a90a4" stroke="#7a90a4" stroke-width="1.51"/><path d="M86,3466L479,3495L209,3204Z" fill="#c1807f" stroke="#c1807f" stroke-width="1.51"/><path d="M1816,259L1828,331L2026,225Z" fill="#bf8190" stroke="#bf8190" stroke-width="1.51"/><path d="M1921,475L1828,331L1737,547Z" fill="#c1838a" stroke="#c1838a" stroke-width="1.51"/><path d="M876,3647L1058,3566L738,3341Z" fill="#ac928d" stroke="#ac928d" stroke-width="1.51"/><path d="M479,3495L491,3525L738,3341Z" fill="#c78e7b" stroke="#c78e7b" stroke-width="1.51"/><path d="M358,3604L491,3525L479,3495Z" fill="#c58a81" stroke="#c58a81" stroke-width="1.51"/><path d="M662,-52L765,271L960,-78Z" fill="#e46348" stroke="#e46348" stroke-width="1.51"/><path d="M1781,3457L1714,3158L1526,3357Z" fill="#709bbb" stroke="#709bbb" stroke-width="1.51"/><path d="M1503,238L1404,40L1305,271Z" fill="#bd6f6d" stroke="#bd6f6d" stroke-width="1.51"/><path d="M1828,331L1816,259L1616,416Z" fill="#c07e86" stroke="#c07e86" stroke-width="1.51"/><path d="M2026,225L1828,331L1921,475Z" fill="#c08391" stroke="#c08391" stroke-width="1.51"/><path d="M1602,3545L1781,3457L1526,3357Z" fill="#6f9bbd" stroke="#6f9bbd" stroke-width="1.51"/><path d="M1058,3566L1334,3582L1126,3411Z" fill="#88919e" stroke="#88919e" stroke-width="1.51"/><path d="M-404,2940L-373,3098L-123,2923Z" fill="#bb6d74" stroke="#bb6d74" stroke-width="1.51"/><path d="M18,3469L86,3466L209,3204Z" fill="#be7981" stroke="#be7981" stroke-width="1.51"/><path d="M542,3628L876,3647L738,3341Z" fill="#bf9383" stroke="#bf9383" stroke-width="1.51"/><path d="M1058,3566L1091,3866L1334,3582Z" fill="#8993a3" stroke="#8993a3" stroke-width="1.51"/><path d="M18,3469L209,3204L-157,3165Z" fill="#bd737f" stroke="#bd737f" stroke-width="1.51"/><path d="M491,3525L542,3628L738,3341Z" fill="#c8917d" stroke="#c8917d" stroke-width="1.51"/><path d="M358,3604L542,3628L491,3525Z" fill="#c58c82" stroke="#c58c82" stroke-width="1.51"/><path d="M2079,3175L2188,3156L2137,2989Z" fill="#6a9fc5" stroke="#6a9fc5" stroke-width="1.51"/><path d="M2137,2989L2188,3156L2122,2719Z" fill="#6e9cbf" stroke="#6e9cbf" stroke-width="1.51"/><path d="M2066,3319L2188,3156L2079,3175Z" fill="#68a0c9" stroke="#68a0c9" stroke-width="1.51"/><path d="M1757,19L1404,40L1503,238Z" fill="#bd7279" stroke="#bd7279" stroke-width="1.51"/><path d="M1602,3545L1526,3357L1387,3445Z" fill="#7497b3" stroke="#7497b3" stroke-width="1.51"/><path d="M1781,3457L1602,3545L1699,3694Z" fill="#6a9fc6" stroke="#6a9fc6" stroke-width="1.51"/><path d="M1334,3582L1602,3545L1387,3445Z" fill="#7596b2" stroke="#7596b2" stroke-width="1.51"/><path d="M86,3466L358,3604L479,3495Z" fill="#c28482" stroke="#c28482" stroke-width="1.51"/><path d="M86,3466L238,3733L358,3604Z" fill="#c18287" stroke="#c18287" stroke-width="1.51"/><path d="M-248,3343L18,3469L-157,3165Z" fill="#bc7381" stroke="#bc7381" stroke-width="1.51"/><path d="M-134,81L-340,418L-51,418Z" fill="#e84148" stroke="#e84148" stroke-width="1.51"/><path d="M-51,418L-340,418L-229,732Z" fill="#ea4846" stroke="#ea4846" stroke-width="1.51"/><path d="M-309,768L-340,418L-379,1149Z" fill="#ed5043" stroke="#ed5043" stroke-width="1.51"/><path d="M-134,81L-51,418L150,274Z" fill="#e83f49" stroke="#e83f49" stroke-width="1.51"/><path d="M1905,3591L2066,3319L1781,3457Z" fill="#61a4d2" stroke="#61a4d2" stroke-width="1.51"/><path d="M1781,3457L2066,3319L1714,3158Z" fill="#67a0c9" stroke="#67a0c9" stroke-width="1.51"/><path d="M534,96L317,-83L372,292Z" fill="#ee5541" stroke="#ee5541" stroke-width="1.51"/><path d="M960,-78L765,271L1155,252Z" fill="#d76751" stroke="#d76751" stroke-width="1.51"/><path d="M1404,40L960,-78L1155,252Z" fill="#c3675f" stroke="#c3675f" stroke-width="1.51"/><path d="M-373,3098L-248,3343L-157,3165Z" fill="#bc717c" stroke="#bc717c" stroke-width="1.51"/><path d="M966,-160L929,-118L960,-78Z" fill="#d66352" stroke="#d66352" stroke-width="1.51"/><path d="M960,-78L929,-118L662,-52Z" fill="#df624c" stroke="#df624c" stroke-width="1.51"/><path d="M1816,259L1757,19L1503,238Z" fill="#be7883" stroke="#be7883" stroke-width="1.51"/><path d="M1404,40L966,-160L960,-78Z" fill="#c9655c" stroke="#c9655c" stroke-width="1.51"/><path d="M2295,337L2026,225L1921,475Z" fill="#c08491" stroke="#c08491" stroke-width="1.51"/><path d="M2295,337L1999,598L2153,639Z" fill="#c1888f" stroke="#c1888f" stroke-width="1.51"/><path d="M1254,-371L966,-160L1404,40Z" fill="#c06662" stroke="#c06662" stroke-width="1.51"/><path d="M929,-118L760,-161L662,-52Z" fill="#e56147" stroke="#e56147" stroke-width="1.51"/><path d="M547,-173L317,-83L534,96Z" fill="#ee5641" stroke="#ee5641" stroke-width="1.51"/><path d="M966,-160L760,-161L929,-118Z" fill="#dc634e" stroke="#dc634e" stroke-width="1.51"/><path d="M2026,225L1757,19L1816,259Z" fill="#be7f90" stroke="#be7f90" stroke-width="1.51"/><path d="M547,-173L534,96L662,-52Z" fill="#f05c3e" stroke="#f05c3e" stroke-width="1.51"/><path d="M-248,3343L15,3610L18,3469Z" fill="#bc7686" stroke="#bc7686" stroke-width="1.51"/><path d="M18,3469L15,3610L86,3466Z" fill="#bd7887" stroke="#bd7887" stroke-width="1.51"/><path d="M358,3604L531,3869L542,3628Z" fill="#c58f86" stroke="#c58f86" stroke-width="1.51"/><path d="M819,3914L1091,3866L876,3647Z" fill="#a7979a" stroke="#a7979a" stroke-width="1.51"/><path d="M15,3610L238,3733L86,3466Z" fill="#bf7d89" stroke="#bf7d89" stroke-width="1.51"/><path d="M1699,3694L1905,3591L1781,3457Z" fill="#64a3cf" stroke="#64a3cf" stroke-width="1.51"/><path d="M2066,3319L2331,3451L2188,3156Z" fill="#66a2cc" stroke="#66a2cc" stroke-width="1.51"/><path d="M1699,3694L1602,3545L1334,3582Z" fill="#6f9bbc" stroke="#6f9bbc" stroke-width="1.51"/><path d="M1699,3694L1334,3582L1509,3943Z" fill="#6e9cbf" stroke="#6e9cbf" stroke-width="1.51"/><path d="M2026,225L2014,-51L1757,19Z" fill="#bd7d93" stroke="#bd7d93" stroke-width="1.51"/><path d="M2300,872L2295,337L2153,639Z" fill="#c28a8e" stroke="#c28a8e" stroke-width="1.51"/><path d="M760,-161L547,-173L662,-52Z" fill="#f05f3e" stroke="#f05f3e" stroke-width="1.51"/><path d="M423,-235L547,-173L760,-161Z" fill="#f05c3e" stroke="#f05c3e" stroke-width="1.51"/><path d="M1091,3866L1058,3566L876,3647Z" fill="#9d959b" stroke="#9d959b" stroke-width="1.51"/><path d="M-37,20L150,274L103,-104Z" fill="#e73d49" stroke="#e73d49" stroke-width="1.51"/><path d="M-37,20L-134,81L150,274Z" fill="#e73a4a" stroke="#e73a4a" stroke-width="1.51"/><path d="M103,-104L150,274L317,-83Z" fill="#ea4447" stroke="#ea4447" stroke-width="1.51"/><path d="M1478,-225L1495,-137L1700,-193Z" fill="#bc707a" stroke="#bc707a" stroke-width="1.51"/><path d="M1757,19L1495,-137L1404,40Z" fill="#bc707a" stroke="#bc707a" stroke-width="1.51"/><path d="M819,3914L876,3647L542,3628Z" fill="#bc968b" stroke="#bc968b" stroke-width="1.51"/><path d="M238,3733L531,3869L358,3604Z" fill="#c48b8a" stroke="#c48b8a" stroke-width="1.51"/><path d="M2295,337L2217,198L2026,225Z" fill="#bf8291" stroke="#bf8291" stroke-width="1.51"/><path d="M-392,-100L-397,152L-134,81Z" fill="#e6374b" stroke="#e6374b" stroke-width="1.51"/><path d="M114,-365L103,-104L317,-83Z" fill="#e94348" stroke="#e94348" stroke-width="1.51"/><path d="M531,3869L819,3914L542,3628Z" fill="#c89787" stroke="#c89787" stroke-width="1.51"/><path d="M1091,3866L1213,3896L1334,3582Z" fill="#7f95aa" stroke="#7f95aa" stroke-width="1.51"/><path d="M1265,4116L1213,3896L1160,4193Z" fill="#7f96ad" stroke="#7f96ad" stroke-width="1.51"/><path d="M547,-173L423,-235L317,-83Z" fill="#ee5342" stroke="#ee5342" stroke-width="1.51"/><path d="M1254,-371L423,-235L760,-161Z" fill="#e26149" stroke="#e26149" stroke-width="1.51"/><path d="M1254,-371L760,-161L966,-160Z" fill="#d36455" stroke="#d36455" stroke-width="1.51"/><path d="M-12,-162L-134,81L-37,20Z" fill="#e5354b" stroke="#e5354b" stroke-width="1.51"/><path d="M-134,81L-397,152L-340,418Z" fill="#e73d49" stroke="#e73d49" stroke-width="1.51"/><path d="M-340,418L-397,152L-379,1149Z" fill="#eb4a45" stroke="#eb4a45" stroke-width="1.51"/><path d="M-379,1149L-397,152L-428,2076Z" fill="#f05b3f" stroke="#f05b3f" stroke-width="1.51"/><path d="M1495,-137L1478,-225L1404,40Z" fill="#bb6d73" stroke="#bb6d73" stroke-width="1.51"/><path d="M1700,-193L1495,-137L1757,19Z" fill="#bc7381" stroke="#bc7381" stroke-width="1.51"/><path d="M2270,3681L2066,3319L1905,3591Z" fill="#5fa6d5" stroke="#5fa6d5" stroke-width="1.51"/><path d="M2270,3681L2331,3451L2066,3319Z" fill="#60a5d3" stroke="#60a5d3" stroke-width="1.51"/><path d="M2188,3156L2331,3451L2176,2386Z" fill="#6d9dc1" stroke="#6d9dc1" stroke-width="1.51"/><path d="M2292,1646L2331,3451L2300,872Z" fill="#9f979f" stroke="#9f979f" stroke-width="1.51"/><path d="M2300,872L2308,20L2295,337Z" fill="#c08590" stroke="#c08590" stroke-width="1.51"/><path d="M1892,3853L1905,3591L1699,3694Z" fill="#5da6d6" stroke="#5da6d6" stroke-width="1.51"/><path d="M2014,-51L1700,-193L1757,19Z" fill="#bc798e" stroke="#bc798e" stroke-width="1.51"/><path d="M2217,198L2014,-51L2026,225Z" fill="#be7f93" stroke="#be7f93" stroke-width="1.51"/><path d="M238,3733L459,3963L531,3869Z" fill="#c48e8d" stroke="#c48e8d" stroke-width="1.51"/><path d="M531,3869L686,4026L819,3914Z" fill="#c3988b" stroke="#c3988b" stroke-width="1.51"/><path d="M15,3610L177,3873L238,3733Z" fill="#bf818d" stroke="#bf818d" stroke-width="1.51"/><path d="M-200,3956L177,3873L15,3610Z" fill="#bc7b92" stroke="#bc7b92" stroke-width="1.51"/><path d="M1529,4042L1509,3943L1265,4116Z" fill="#6f9bbd" stroke="#6f9bbd" stroke-width="1.51"/><path d="M177,3873L459,3963L238,3733Z" fill="#c2898e" stroke="#c2898e" stroke-width="1.51"/><path d="M103,-104L-12,-162L-37,20Z" fill="#e6374b" stroke="#e6374b" stroke-width="1.51"/><path d="M114,-365L-12,-162L103,-104Z" fill="#e73b4a" stroke="#e73b4a" stroke-width="1.51"/><path d="M1213,3896L1509,3943L1334,3582Z" fill="#7398b5" stroke="#7398b5" stroke-width="1.51"/><path d="M1160,4193L1091,3866L819,3914Z" fill="#9a97a1" stroke="#9a97a1" stroke-width="1.51"/><path d="M1509,3943L1721,3881L1699,3694Z" fill="#65a2cd" stroke="#65a2cd" stroke-width="1.51"/><path d="M459,3963L686,4026L531,3869Z" fill="#c7958a" stroke="#c7958a" stroke-width="1.51"/><path d="M1478,-225L1254,-371L1404,40Z" fill="#bb696d" stroke="#bb696d" stroke-width="1.51"/><path d="M1908,-351L1254,-371L1478,-225Z" fill="#bc6f7a" stroke="#bc6f7a" stroke-width="1.51"/><path d="M1721,3881L1892,3853L1699,3694Z" fill="#5ea6d6" stroke="#5ea6d6" stroke-width="1.51"/><path d="M1717,4041L1892,3853L1721,3881Z" fill="#5ca7d7" stroke="#5ca7d7" stroke-width="1.51"/><path d="M-341,4208L-361,3692L-404,2940Z" fill="#bc788b" stroke="#bc788b" stroke-width="1.51"/><path d="M-404,2940L-361,3692L-373,3098Z" fill="#bc717e" stroke="#bc717e" stroke-width="1.51"/><path d="M-373,3098L-361,3692L-248,3343Z" fill="#bc7482" stroke="#bc7482" stroke-width="1.51"/><path d="M-248,3343L-361,3692L15,3610Z" fill="#bc7788" stroke="#bc7788" stroke-width="1.51"/><path d="M1700,-193L1908,-351L1478,-225Z" fill="#bc7584" stroke="#bc7584" stroke-width="1.51"/><path d="M2014,-51L1908,-351L1700,-193Z" fill="#bc7b91" stroke="#bc7b91" stroke-width="1.51"/><path d="M2217,198L2308,20L2014,-51Z" fill="#bd7d93" stroke="#bd7d93" stroke-width="1.51"/><path d="M2295,337L2308,20L2217,198Z" fill="#be8092" stroke="#be8092" stroke-width="1.51"/><path d="M2331,3451L2308,20L2300,872Z" fill="#bf988e" stroke="#bf988e" stroke-width="1.51"/><path d="M2124,3881L2270,3681L1905,3591Z" fill="#58a9dc" stroke="#58a9dc" stroke-width="1.51"/><path d="M1509,3943L1717,4041L1721,3881Z" fill="#65a2cd" stroke="#65a2cd" stroke-width="1.51"/><path d="M1892,3853L2124,3881L1905,3591Z" fill="#56aade" stroke="#56aade" stroke-width="1.51"/><path d="M1265,4116L1509,3943L1213,3896Z" fill="#7398b5" stroke="#7398b5" stroke-width="1.51"/><path d="M686,4026L767,4137L819,3914Z" fill="#bb9891" stroke="#bb9891" stroke-width="1.51"/><path d="M461,4177L767,4137L686,4026Z" fill="#c89889" stroke="#c89889" stroke-width="1.51"/><path d="M461,4177L686,4026L459,3963Z" fill="#c7948a" stroke="#c7948a" stroke-width="1.51"/><path d="M461,4177L459,3963L177,3873Z" fill="#c38c8d" stroke="#c38c8d" stroke-width="1.51"/><path d="M1160,4193L1213,3896L1091,3866Z" fill="#8896a9" stroke="#8896a9" stroke-width="1.51"/><path d="M-12,-162L-392,-100L-134,81Z" fill="#e5354b" stroke="#e5354b" stroke-width="1.51"/><path d="M-269,-305L-392,-100L-12,-162Z" fill="#e5354b" stroke="#e5354b" stroke-width="1.51"/><path d="M1254,-371L114,-365L423,-235Z" fill="#f15d3e" stroke="#f15d3e" stroke-width="1.51"/><path d="M423,-235L114,-365L317,-83Z" fill="#eb4a45" stroke="#eb4a45" stroke-width="1.51"/><path d="M1160,4193L1717,4041L1529,4042Z" fill="#6e9cc0" stroke="#6e9cc0" stroke-width="1.51"/><path d="M1529,4042L1717,4041L1509,3943Z" fill="#68a0c8" stroke="#68a0c8" stroke-width="1.51"/><path d="M1265,4116L1160,4193L1529,4042Z" fill="#7497b4" stroke="#7497b4" stroke-width="1.51"/><path d="M767,4137L1160,4193L819,3914Z" fill="#a8979b" stroke="#a8979b" stroke-width="1.51"/><path d="M2070,4147L2124,3881L1892,3853Z" fill="#53abe1" stroke="#53abe1" stroke-width="1.51"/><path d="M2313,-313L1908,-351L2014,-51Z" fill="#bc7c93" stroke="#bc7c93" stroke-width="1.51"/><path d="M767,4137L461,4177L1160,4193Z" fill="#b69793" stroke="#b69793" stroke-width="1.51"/><path d="M102,4215L461,4177L177,3873Z" fill="#c1878f" stroke="#c1878f" stroke-width="1.51"/><path d="M-361,3692L-200,3956L15,3610Z" fill="#bc7a90" stroke="#bc7a90" stroke-width="1.51"/><path d="M114,-365L-269,-305L-12,-162Z" fill="#e5354b" stroke="#e5354b" stroke-width="1.51"/><path d="M-361,3692L-340,3959L-200,3956Z" fill="#bc7c93" stroke="#bc7c93" stroke-width="1.51"/><path d="M-64,4172L102,4215L177,3873Z" fill="#be7f92" stroke="#be7f92" stroke-width="1.51"/><path d="M-64,4172L177,3873L-200,3956Z" fill="#bc7c93" stroke="#bc7c93" stroke-width="1.51"/><path d="M461,4177L102,4215L1160,4193Z" fill="#c7958a" stroke="#c7958a" stroke-width="1.51"/><path d="M-341,4208L-64,4172L-200,3956Z" fill="#bc7c93" stroke="#bc7c93" stroke-width="1.51"/><path d="M2308,20L2313,-313L2014,-51Z" fill="#bc7c93" stroke="#bc7c93" stroke-width="1.51"/><path d="M2331,3451L2313,-313L2308,20Z" fill="#c6938a" stroke="#c6938a" stroke-width="1.51"/><path d="M1160,4193L2070,4147L1717,4041Z" fill="#65a2cd" stroke="#65a2cd" stroke-width="1.51"/><path d="M1717,4041L2070,4147L1892,3853Z" fill="#54abe0" stroke="#54abe0" stroke-width="1.51"/><path d="M2124,3881L2158,4146L2270,3681Z" fill="#53abe1" stroke="#53abe1" stroke-width="1.51"/><path d="M2070,4147L2158,4146L2124,3881Z" fill="#53abe1" stroke="#53abe1" stroke-width="1.51"/><path d="M2270,3681L2158,4146L2331,3451Z" fill="#56a9de" stroke="#56a9de" stroke-width="1.51"/><path d="M1160,4193L2158,4146L2070,4147Z" fill="#5ba7d9" stroke="#5ba7d9" stroke-width="1.51"/><path d="M-340,3959L-341,4208L-200,3956Z" fill="#bc7c93" stroke="#bc7c93" stroke-width="1.51"/><path d="M-64,4172L-341,4208L102,4215Z" fill="#bc7c93" stroke="#bc7c93" stroke-width="1.51"/><path d="M-361,3692L-341,4208L-340,3959Z" fill="#bc7c93" stroke="#bc7c93" stroke-width="1.51"/><path d="M-430,2489L-341,4208L-404,2940Z" fill="#bc717d" stroke="#bc717d" stroke-width="1.51"/></svg>