<svg xmlns="http://www.w3.org/2000/svg" width="1900" height="3840"><path d="M1033,1938L1014,1690L751,1788Z" fill="#fd7f29" stroke="#fd7f29" stroke-width="1.51"/><path d="M751,1788L739,1961L1033,1938Z" fill="#fc7d2b" stroke="#fc7d2b" stroke-width="1.51"/><path d="M1014,1690L757,1539L751,1788Z" fill="#fa7a2e" stroke="#fa7a2e" stroke-width="1.51"/><path d="M1210,1504L1026,1560L1014,1690Z" fill="#f57f3c" stroke="#f57f3c" stroke-width="1.51"/><path d="M751,1788L646,1934L739,1961Z" fill="#fa792e" stroke="#fa792e" stroke-width="1.51"/><path d="M1026,1560L757,1539L1014,1690Z" fill="#fb7b2c" stroke="#fb7b2c" stroke-width="1.51"/><path d="M751,1788L491,1910L646,1934Z" fill="#f97630" stroke="#f97630" stroke-width="1.51"/><path d="M472,1644L491,1910L751,1788Z" fill="#f87133" stroke="#f87133" stroke-width="1.51"/><path d="M1026,1560L762,1448L757,1539Z" fill="#fa7730" stroke="#fa7730" stroke-width="1.51"/><path d="M582,1517L751,1788L757,1539Z" fill="#f87332" stroke="#f87332" stroke-width="1.51"/><path d="M548,2160L889,2304L739,1961Z" fill="#f67c3b" stroke="#f67c3b" stroke-width="1.51"/><path d="M1033,1938L1339,1749L1014,1690Z" fill="#f4843f" stroke="#f4843f" stroke-width="1.51"/><path d="M1026,1560L1101,1363L762,1448Z" fill="#fa7a2f" stroke="#fa7a2f" stroke-width="1.51"/><path d="M1339,1749L1210,1504L1014,1690Z" fill="#f18347" stroke="#f18347" stroke-width="1.51"/><path d="M762,1448L582,1517L757,1539Z" fill="#f87233" stroke="#f87233" stroke-width="1.51"/><path d="M582,1517L472,1644L751,1788Z" fill="#f87133" stroke="#f87133" stroke-width="1.51"/><path d="M1033,1938L1270,2142L1339,1749Z" fill="#f08848" stroke="#f08848" stroke-width="1.51"/><path d="M999,2299L1270,2142L1033,1938Z" fill="#f28845" stroke="#f28845" stroke-width="1.51"/><path d="M889,2304L1033,1938L739,1961Z" fill="#f98133" stroke="#f98133" stroke-width="1.51"/><path d="M762,1448L711,1388L582,1517Z" fill="#f87034" stroke="#f87034" stroke-width="1.51"/><path d="M801,1184L711,1388L762,1448Z" fill="#f77134" stroke="#f77134" stroke-width="1.51"/><path d="M548,2160L739,1961L646,1934Z" fill="#f87835" stroke="#f87835" stroke-width="1.51"/><path d="M889,2304L999,2299L1033,1938Z" fill="#f6853a" stroke="#f6853a" stroke-width="1.51"/><path d="M1210,1504L1101,1363L1026,1560Z" fill="#f37e40" stroke="#f37e40" stroke-width="1.51"/><path d="M491,1910L548,2160L646,1934Z" fill="#f77536" stroke="#f77536" stroke-width="1.51"/><path d="M472,1644L412,1723L491,1910Z" fill="#f66d35" stroke="#f66d35" stroke-width="1.51"/><path d="M491,1910L298,1921L548,2160Z" fill="#f67138" stroke="#f67138" stroke-width="1.51"/><path d="M1270,2142L1471,1925L1339,1749Z" fill="#e98c57" stroke="#e98c57" stroke-width="1.51"/><path d="M1339,1749L1455,1523L1210,1504Z" fill="#e88656" stroke="#e88656" stroke-width="1.51"/><path d="M1471,1925L1502,1889L1339,1749Z" fill="#e58c5e" stroke="#e58c5e" stroke-width="1.51"/><path d="M1270,2142L1381,2206L1471,1925Z" fill="#e48e5f" stroke="#e48e5f" stroke-width="1.51"/><path d="M1471,1925L1741,1897L1502,1889Z" fill="#dd906a" stroke="#dd906a" stroke-width="1.51"/><path d="M1095,2466L1381,2206L1270,2142Z" fill="#e68d5c" stroke="#e68d5c" stroke-width="1.51"/><path d="M1502,1889L1455,1523L1339,1749Z" fill="#e48a5e" stroke="#e48a5e" stroke-width="1.51"/><path d="M1210,1504L1304,1321L1101,1363Z" fill="#ee7f4a" stroke="#ee7f4a" stroke-width="1.51"/><path d="M412,1723L298,1921L491,1910Z" fill="#f66d36" stroke="#f66d36" stroke-width="1.51"/><path d="M1455,1523L1304,1321L1210,1504Z" fill="#e98356" stroke="#e98356" stroke-width="1.51"/><path d="M1101,1363L801,1184L762,1448Z" fill="#f97531" stroke="#f97531" stroke-width="1.51"/><path d="M1304,1321L1077,1206L1101,1363Z" fill="#f07d47" stroke="#f07d47" stroke-width="1.51"/><path d="M1077,1206L801,1184L1101,1363Z" fill="#f77735" stroke="#f77735" stroke-width="1.51"/><path d="M711,1388L358,1308L582,1517Z" fill="#f56a37" stroke="#f56a37" stroke-width="1.51"/><path d="M218,1630L412,1723L472,1644Z" fill="#f56838" stroke="#f56838" stroke-width="1.51"/><path d="M218,1630L257,1755L412,1723Z" fill="#f46639" stroke="#f46639" stroke-width="1.51"/><path d="M412,1723L257,1755L298,1921Z" fill="#f56938" stroke="#f56938" stroke-width="1.51"/><path d="M218,1630L472,1644L358,1308Z" fill="#f3653a" stroke="#f3653a" stroke-width="1.51"/><path d="M999,2299L1095,2466L1270,2142Z" fill="#ec8b51" stroke="#ec8b51" stroke-width="1.51"/><path d="M889,2304L1095,2466L999,2299Z" fill="#f18846" stroke="#f18846" stroke-width="1.51"/><path d="M734,2565L1095,2466L889,2304Z" fill="#f08647" stroke="#f08647" stroke-width="1.51"/><path d="M548,2160L734,2565L889,2304Z" fill="#f17f45" stroke="#f17f45" stroke-width="1.51"/><path d="M225,2263L437,2318L548,2160Z" fill="#ef7346" stroke="#ef7346" stroke-width="1.51"/><path d="M81,2075L225,2263L298,1921Z" fill="#f06942" stroke="#f06942" stroke-width="1.51"/><path d="M358,1308L472,1644L582,1517Z" fill="#f56938" stroke="#f56938" stroke-width="1.51"/><path d="M602,1017L358,1308L711,1388Z" fill="#f56739" stroke="#f56739" stroke-width="1.51"/><path d="M437,2318L734,2565L548,2160Z" fill="#ef7a48" stroke="#ef7a48" stroke-width="1.51"/><path d="M1381,2206L1805,2050L1471,1925Z" fill="#da926f" stroke="#da926f" stroke-width="1.51"/><path d="M1384,2607L1537,2339L1381,2206Z" fill="#d89372" stroke="#d89372" stroke-width="1.51"/><path d="M298,1921L225,2263L548,2160Z" fill="#f26f40" stroke="#f26f40" stroke-width="1.51"/><path d="M437,2318L568,2574L734,2565Z" fill="#eb7c4f" stroke="#eb7c4f" stroke-width="1.51"/><path d="M81,2075L298,1921L-21,1904Z" fill="#f2643d" stroke="#f2643d" stroke-width="1.51"/><path d="M309,2567L568,2574L437,2318Z" fill="#ea7751" stroke="#ea7751" stroke-width="1.51"/><path d="M1502,1889L1741,1897L1455,1523Z" fill="#dd8e6a" stroke="#dd8e6a" stroke-width="1.51"/><path d="M1455,1523L1528,1233L1304,1321Z" fill="#e28560" stroke="#e28560" stroke-width="1.51"/><path d="M1805,2050L1741,1897L1471,1925Z" fill="#d69375" stroke="#d69375" stroke-width="1.51"/><path d="M1741,1460L1528,1233L1455,1523Z" fill="#da896d" stroke="#da896d" stroke-width="1.51"/><path d="M1304,1321L1346,1040L1077,1206Z" fill="#eb7d50" stroke="#eb7d50" stroke-width="1.51"/><path d="M913,951L602,1017L801,1184Z" fill="#f66c36" stroke="#f66c36" stroke-width="1.51"/><path d="M734,2565L790,2677L1095,2466Z" fill="#ed874e" stroke="#ed874e" stroke-width="1.51"/><path d="M1095,2466L1265,2617L1381,2206Z" fill="#e28f63" stroke="#e28f63" stroke-width="1.51"/><path d="M615,2719L790,2677L734,2565Z" fill="#e98355" stroke="#e98355" stroke-width="1.51"/><path d="M801,1184L602,1017L711,1388Z" fill="#f66c36" stroke="#f66c36" stroke-width="1.51"/><path d="M913,951L801,1184L1077,1206Z" fill="#f87332" stroke="#f87332" stroke-width="1.51"/><path d="M1168,2751L1265,2617L1095,2466Z" fill="#e19065" stroke="#e19065" stroke-width="1.51"/><path d="M-21,1904L298,1921L257,1755Z" fill="#f3653a" stroke="#f3653a" stroke-width="1.51"/><path d="M1078,835L913,951L1077,1206Z" fill="#f4743b" stroke="#f4743b" stroke-width="1.51"/><path d="M358,1308L190,1313L218,1630Z" fill="#f2603d" stroke="#f2603d" stroke-width="1.51"/><path d="M218,1630L-21,1904L257,1755Z" fill="#f2623c" stroke="#f2623c" stroke-width="1.51"/><path d="M481,962L281,1222L358,1308Z" fill="#f25f3d" stroke="#f25f3d" stroke-width="1.51"/><path d="M281,1222L190,1313L358,1308Z" fill="#f15e3d" stroke="#f15e3d" stroke-width="1.51"/><path d="M1528,1233L1346,1040L1304,1321Z" fill="#e3815e" stroke="#e3815e" stroke-width="1.51"/><path d="M1741,1897L1741,1460L1455,1523Z" fill="#d88e73" stroke="#d88e73" stroke-width="1.51"/><path d="M1265,2617L1384,2607L1381,2206Z" fill="#db926e" stroke="#db926e" stroke-width="1.51"/><path d="M1459,2683L1384,2607L1265,2617Z" fill="#d49578" stroke="#d49578" stroke-width="1.51"/><path d="M1893,1269L1848,1241L1741,1460Z" fill="#ca8d85" stroke="#ca8d85" stroke-width="1.51"/><path d="M1537,2339L1805,2050L1381,2206Z" fill="#d59477" stroke="#d59477" stroke-width="1.51"/><path d="M1799,2281L1805,2050L1537,2339Z" fill="#cb9785" stroke="#cb9785" stroke-width="1.51"/><path d="M-124,1564L-21,1904L218,1630Z" fill="#f05c3e" stroke="#f05c3e" stroke-width="1.51"/><path d="M790,2677L1168,2751L1095,2466Z" fill="#e98c56" stroke="#e98c56" stroke-width="1.51"/><path d="M568,2574L615,2719L734,2565Z" fill="#e98055" stroke="#e98055" stroke-width="1.51"/><path d="M363,2682L615,2719L568,2574Z" fill="#e77c58" stroke="#e77c58" stroke-width="1.51"/><path d="M225,2263L309,2567L437,2318Z" fill="#eb724e" stroke="#eb724e" stroke-width="1.51"/><path d="M60,2411L309,2567L225,2263Z" fill="#e86f51" stroke="#e86f51" stroke-width="1.51"/><path d="M60,2411L225,2263L81,2075Z" fill="#eb6a4b" stroke="#eb6a4b" stroke-width="1.51"/><path d="M1384,2607L1556,2535L1537,2339Z" fill="#d1957d" stroke="#d1957d" stroke-width="1.51"/><path d="M1041,2989L1168,2751L790,2677Z" fill="#e58d5d" stroke="#e58d5d" stroke-width="1.51"/><path d="M1384,2607L1459,2683L1556,2535Z" fill="#cf9680" stroke="#cf9680" stroke-width="1.51"/><path d="M602,1017L481,962L358,1308Z" fill="#f3623c" stroke="#f3623c" stroke-width="1.51"/><path d="M281,1222L175,1145L190,1313Z" fill="#f05a3f" stroke="#f05a3f" stroke-width="1.51"/><path d="M558,801L481,962L602,1017Z" fill="#f2623c" stroke="#f2623c" stroke-width="1.51"/><path d="M1749,1212L1578,1121L1528,1233Z" fill="#d68773" stroke="#d68773" stroke-width="1.51"/><path d="M1528,1233L1578,1121L1346,1040Z" fill="#de8267" stroke="#de8267" stroke-width="1.51"/><path d="M1811,2496L1799,2281L1537,2339Z" fill="#c5998c" stroke="#c5998c" stroke-width="1.51"/><path d="M1281,790L1078,835L1346,1040Z" fill="#ea7751" stroke="#ea7751" stroke-width="1.51"/><path d="M1346,1040L1078,835L1077,1206Z" fill="#ee784a" stroke="#ee784a" stroke-width="1.51"/><path d="M628,741L558,801L602,1017Z" fill="#f3623c" stroke="#f3623c" stroke-width="1.51"/><path d="M-101,1450L-124,1564L218,1630Z" fill="#ef5840" stroke="#ef5840" stroke-width="1.51"/><path d="M481,962L175,1145L281,1222Z" fill="#f05c3e" stroke="#f05c3e" stroke-width="1.51"/><path d="M1556,2535L1811,2496L1537,2339Z" fill="#c89888" stroke="#c89888" stroke-width="1.51"/><path d="M1168,2751L1459,2683L1265,2617Z" fill="#d79374" stroke="#d79374" stroke-width="1.51"/><path d="M309,2567L363,2682L568,2574Z" fill="#e77857" stroke="#e77857" stroke-width="1.51"/><path d="M56,2733L363,2682L309,2567Z" fill="#e3735b" stroke="#e3735b" stroke-width="1.51"/><path d="M1741,1460L1749,1212L1528,1233Z" fill="#d48a77" stroke="#d48a77" stroke-width="1.51"/><path d="M1440,770L1281,790L1346,1040Z" fill="#e37b5d" stroke="#e37b5d" stroke-width="1.51"/><path d="M1848,1241L1749,1212L1741,1460Z" fill="#cd8c81" stroke="#cd8c81" stroke-width="1.51"/><path d="M-101,2179L60,2411L81,2075Z" fill="#eb654b" stroke="#eb654b" stroke-width="1.51"/><path d="M-21,1904L-115,2020L81,2075Z" fill="#f06141" stroke="#f06141" stroke-width="1.51"/><path d="M-265,1787L-115,2020L-21,1904Z" fill="#f25f3d" stroke="#f25f3d" stroke-width="1.51"/><path d="M-101,1450L218,1630L190,1313Z" fill="#f05a3f" stroke="#f05a3f" stroke-width="1.51"/><path d="M-115,2020L-101,2179L81,2075Z" fill="#ee6245" stroke="#ee6245" stroke-width="1.51"/><path d="M-88,1135L-101,1450L190,1313Z" fill="#ee5342" stroke="#ee5342" stroke-width="1.51"/><path d="M481,962L98,919L175,1145Z" fill="#ef5740" stroke="#ef5740" stroke-width="1.51"/><path d="M628,741L602,1017L913,951Z" fill="#f46739" stroke="#f46739" stroke-width="1.51"/><path d="M1440,770L1346,1040L1578,1121Z" fill="#df7f65" stroke="#df7f65" stroke-width="1.51"/><path d="M817,624L628,741L913,951Z" fill="#f46739" stroke="#f46739" stroke-width="1.51"/><path d="M1692,885L1440,770L1578,1121Z" fill="#d88170" stroke="#d88170" stroke-width="1.51"/><path d="M1893,1269L1741,1460L2027,1518Z" fill="#c6918b" stroke="#c6918b" stroke-width="1.51"/><path d="M1741,1460L1741,1897L2027,1518Z" fill="#cb9384" stroke="#cb9384" stroke-width="1.51"/><path d="M363,2682L559,2866L615,2719Z" fill="#e47e5c" stroke="#e47e5c" stroke-width="1.51"/><path d="M615,2719L789,3007L790,2677Z" fill="#e5855b" stroke="#e5855b" stroke-width="1.51"/><path d="M287,2957L559,2866L363,2682Z" fill="#e07b61" stroke="#e07b61" stroke-width="1.51"/><path d="M817,624L913,951L1078,835Z" fill="#f76d35" stroke="#f76d35" stroke-width="1.51"/><path d="M2058,2115L2060,1821L1805,2050Z" fill="#c6998c" stroke="#c6998c" stroke-width="1.51"/><path d="M1708,2682L1811,2496L1556,2535Z" fill="#c09a93" stroke="#c09a93" stroke-width="1.51"/><path d="M1692,885L1578,1121L1749,1212Z" fill="#d28679" stroke="#d28679" stroke-width="1.51"/><path d="M2060,1821L1741,1897L1805,2050Z" fill="#ca9786" stroke="#ca9786" stroke-width="1.51"/><path d="M2058,2115L1805,2050L1799,2281Z" fill="#c19a92" stroke="#c19a92" stroke-width="1.51"/><path d="M2060,1821L2027,1518L1741,1897Z" fill="#c7958a" stroke="#c7958a" stroke-width="1.51"/><path d="M1459,2683L1708,2682L1556,2535Z" fill="#c6998b" stroke="#c6998b" stroke-width="1.51"/><path d="M1567,2908L1708,2682L1459,2683Z" fill="#c29a91" stroke="#c29a91" stroke-width="1.51"/><path d="M1193,2974L1459,2683L1168,2751Z" fill="#d59477" stroke="#d59477" stroke-width="1.51"/><path d="M789,3007L1041,2989L790,2677Z" fill="#e58b5e" stroke="#e58b5e" stroke-width="1.51"/><path d="M950,549L817,624L1078,835Z" fill="#f66c37" stroke="#f66c37" stroke-width="1.51"/><path d="M1692,885L1749,1212L1911,964Z" fill="#cb8883" stroke="#cb8883" stroke-width="1.51"/><path d="M-124,1564L-265,1787L-21,1904Z" fill="#f05c3e" stroke="#f05c3e" stroke-width="1.51"/><path d="M-115,2020L-406,2196L-101,2179Z" fill="#ed6347" stroke="#ed6347" stroke-width="1.51"/><path d="M-284,1504L-265,1787L-124,1564Z" fill="#f0593f" stroke="#f0593f" stroke-width="1.51"/><path d="M2081,2251L2058,2115L1799,2281Z" fill="#bd9b96" stroke="#bd9b96" stroke-width="1.51"/><path d="M2081,2251L1799,2281L2078,2406Z" fill="#b99c9a" stroke="#b99c9a" stroke-width="1.51"/><path d="M1041,2989L1193,2974L1168,2751Z" fill="#db926f" stroke="#db926f" stroke-width="1.51"/><path d="M559,2866L789,3007L615,2719Z" fill="#e3845f" stroke="#e3845f" stroke-width="1.51"/><path d="M950,549L1078,835L1082,507Z" fill="#f16e40" stroke="#f16e40" stroke-width="1.51"/><path d="M-101,1450L-284,1504L-124,1564Z" fill="#ef5740" stroke="#ef5740" stroke-width="1.51"/><path d="M175,1145L-88,1135L190,1313Z" fill="#ee5541" stroke="#ee5541" stroke-width="1.51"/><path d="M98,919L-88,1135L175,1145Z" fill="#ed5143" stroke="#ed5143" stroke-width="1.51"/><path d="M98,919L481,962L434,638Z" fill="#ef5840" stroke="#ef5840" stroke-width="1.51"/><path d="M481,962L558,801L434,638Z" fill="#f15d3e" stroke="#f15d3e" stroke-width="1.51"/><path d="M434,638L558,801L628,741Z" fill="#f15d3e" stroke="#f15d3e" stroke-width="1.51"/><path d="M2198,1988L2132,1833L2060,1821Z" fill="#c89889" stroke="#c89889" stroke-width="1.51"/><path d="M2060,1821L2292,1646L2027,1518Z" fill="#c7948a" stroke="#c7948a" stroke-width="1.51"/><path d="M1976,1128L1848,1241L1893,1269Z" fill="#c48d8d" stroke="#c48d8d" stroke-width="1.51"/><path d="M1976,1128L1749,1212L1848,1241Z" fill="#c78c89" stroke="#c78c89" stroke-width="1.51"/><path d="M-337,1411L-284,1504L-101,1450Z" fill="#ef5641" stroke="#ef5641" stroke-width="1.51"/><path d="M2078,2406L1799,2281L1811,2496Z" fill="#b69d9e" stroke="#b69d9e" stroke-width="1.51"/><path d="M2058,2115L2198,1988L2060,1821Z" fill="#c7988b" stroke="#c7988b" stroke-width="1.51"/><path d="M559,2866L534,3155L789,3007Z" fill="#de8566" stroke="#de8566" stroke-width="1.51"/><path d="M60,2411L56,2733L309,2567Z" fill="#e46f59" stroke="#e46f59" stroke-width="1.51"/><path d="M11,2731L56,2733L60,2411Z" fill="#e16c5d" stroke="#e16c5d" stroke-width="1.51"/><path d="M-155,2511L60,2411L-101,2179Z" fill="#e76752" stroke="#e76752" stroke-width="1.51"/><path d="M1895,2692L2078,2406L1811,2496Z" fill="#b09ea4" stroke="#b09ea4" stroke-width="1.51"/><path d="M1193,2974L1567,2908L1459,2683Z" fill="#cb9786" stroke="#cb9786" stroke-width="1.51"/><path d="M2158,1346L1976,1128L1893,1269Z" fill="#c48e8c" stroke="#c48e8c" stroke-width="1.51"/><path d="M2158,1346L1893,1269L2027,1518Z" fill="#c5908c" stroke="#c5908c" stroke-width="1.51"/><path d="M-406,2196L-155,2511L-101,2179Z" fill="#e9664f" stroke="#e9664f" stroke-width="1.51"/><path d="M1082,507L1078,835L1281,790Z" fill="#ed724a" stroke="#ed724a" stroke-width="1.51"/><path d="M503,399L434,638L628,741Z" fill="#f05a3f" stroke="#f05a3f" stroke-width="1.51"/><path d="M503,399L628,741L817,624Z" fill="#f25f3d" stroke="#f25f3d" stroke-width="1.51"/><path d="M56,2733L287,2957L363,2682Z" fill="#df7562" stroke="#df7562" stroke-width="1.51"/><path d="M-155,2511L11,2731L60,2411Z" fill="#e36a5a" stroke="#e36a5a" stroke-width="1.51"/><path d="M2292,1646L2158,1346L2027,1518Z" fill="#c6928b" stroke="#c6928b" stroke-width="1.51"/><path d="M2202,2301L2198,1988L2058,2115Z" fill="#c09a92" stroke="#c09a92" stroke-width="1.51"/><path d="M99,3015L287,2957L56,2733Z" fill="#dc7468" stroke="#dc7468" stroke-width="1.51"/><path d="M2081,2251L2202,2301L2058,2115Z" fill="#bd9b96" stroke="#bd9b96" stroke-width="1.51"/><path d="M1895,2692L1811,2496L1708,2682Z" fill="#b49da0" stroke="#b49da0" stroke-width="1.51"/><path d="M1850,3009L1895,2692L1708,2682Z" fill="#ac9fa9" stroke="#ac9fa9" stroke-width="1.51"/><path d="M1976,1128L1911,964L1749,1212Z" fill="#c58b8b" stroke="#c58b8b" stroke-width="1.51"/><path d="M1692,885L1571,680L1440,770Z" fill="#d77f71" stroke="#d77f71" stroke-width="1.51"/><path d="M1440,770L1375,581L1281,790Z" fill="#e1795f" stroke="#e1795f" stroke-width="1.51"/><path d="M-265,1787L-428,2076L-115,2020Z" fill="#f1603f" stroke="#f1603f" stroke-width="1.51"/><path d="M-284,1504L-337,1411L-265,1787Z" fill="#ef5840" stroke="#ef5840" stroke-width="1.51"/><path d="M-88,1135L-337,1411L-101,1450Z" fill="#ee5442" stroke="#ee5442" stroke-width="1.51"/><path d="M-379,1149L-337,1411L-88,1135Z" fill="#ed5243" stroke="#ed5243" stroke-width="1.51"/><path d="M1737,547L1571,680L1692,885Z" fill="#d0807a" stroke="#d0807a" stroke-width="1.51"/><path d="M1571,680L1375,581L1440,770Z" fill="#dc7b68" stroke="#dc7b68" stroke-width="1.51"/><path d="M745,313L503,399L817,624Z" fill="#f15d3d" stroke="#f15d3d" stroke-width="1.51"/><path d="M1375,581L1082,507L1281,790Z" fill="#e77454" stroke="#e77454" stroke-width="1.51"/><path d="M2292,1646L2060,1821L2132,1833Z" fill="#c79689" stroke="#c79689" stroke-width="1.51"/><path d="M1976,1128L2300,872L1911,964Z" fill="#c38a8e" stroke="#c38a8e" stroke-width="1.51"/><path d="M789,3007L865,3180L1041,2989Z" fill="#e08e65" stroke="#e08e65" stroke-width="1.51"/><path d="M1087,3272L1339,3124L1193,2974Z" fill="#d0967f" stroke="#d0967f" stroke-width="1.51"/><path d="M1193,2974L1339,3124L1567,2908Z" fill="#c89889" stroke="#c89889" stroke-width="1.51"/><path d="M534,3155L865,3180L789,3007Z" fill="#dd896a" stroke="#dd896a" stroke-width="1.51"/><path d="M-337,1411L-428,2076L-265,1787Z" fill="#f05c3e" stroke="#f05c3e" stroke-width="1.51"/><path d="M1087,3272L1193,2974L1041,2989Z" fill="#d79374" stroke="#d79374" stroke-width="1.51"/><path d="M1880,3018L2122,2719L1895,2692Z" fill="#a3a1b1" stroke="#a3a1b1" stroke-width="1.51"/><path d="M-428,2076L-406,2196L-115,2020Z" fill="#ee6245" stroke="#ee6245" stroke-width="1.51"/><path d="M-123,2923L99,3015L11,2731Z" fill="#da6f69" stroke="#da6f69" stroke-width="1.51"/><path d="M2176,2386L2081,2251L2078,2406Z" fill="#b89c9c" stroke="#b89c9c" stroke-width="1.51"/><path d="M2176,2386L2202,2301L2081,2251Z" fill="#b99c9a" stroke="#b99c9a" stroke-width="1.51"/><path d="M2122,2719L2176,2386L2078,2406Z" fill="#b19ea3" stroke="#b19ea3" stroke-width="1.51"/><path d="M387,3116L534,3155L559,2866Z" fill="#dc816a" stroke="#dc816a" stroke-width="1.51"/><path d="M2198,1988L2292,1646L2132,1833Z" fill="#c89789" stroke="#c89789" stroke-width="1.51"/><path d="M2202,2301L2292,1646L2198,1988Z" fill="#c6998b" stroke="#c6998b" stroke-width="1.51"/><path d="M287,2957L387,3116L559,2866Z" fill="#dd7d68" stroke="#dd7d68" stroke-width="1.51"/><path d="M209,3204L387,3116L287,2957Z" fill="#d87b6f" stroke="#d87b6f" stroke-width="1.51"/><path d="M1375,581L1367,494L1082,507Z" fill="#e57358" stroke="#e57358" stroke-width="1.51"/><path d="M1616,416L1367,494L1375,581Z" fill="#dc7868" stroke="#dc7868" stroke-width="1.51"/><path d="M1616,416L1375,581L1571,680Z" fill="#d87a6e" stroke="#d87a6e" stroke-width="1.51"/><path d="M98,919L-136,885L-88,1135Z" fill="#ec4c44" stroke="#ec4c44" stroke-width="1.51"/><path d="M18,640L-136,885L98,919Z" fill="#eb4945" stroke="#eb4945" stroke-width="1.51"/><path d="M11,2731L99,3015L56,2733Z" fill="#dd7066" stroke="#dd7066" stroke-width="1.51"/><path d="M-123,2923L11,2731L-401,2802Z" fill="#dc6e66" stroke="#dc6e66" stroke-width="1.51"/><path d="M-136,885L-379,1149L-88,1135Z" fill="#ec4e44" stroke="#ec4e44" stroke-width="1.51"/><path d="M-337,1411L-379,1149L-428,2076Z" fill="#ef5840" stroke="#ef5840" stroke-width="1.51"/><path d="M738,3341L1087,3272L865,3180Z" fill="#da906f" stroke="#da906f" stroke-width="1.51"/><path d="M865,3180L1087,3272L1041,2989Z" fill="#dc926d" stroke="#dc926d" stroke-width="1.51"/><path d="M745,313L817,624L950,549Z" fill="#f3643a" stroke="#f3643a" stroke-width="1.51"/><path d="M109,543L18,640L98,919Z" fill="#eb4a45" stroke="#eb4a45" stroke-width="1.51"/><path d="M745,313L950,549L765,271Z" fill="#f2613c" stroke="#f2613c" stroke-width="1.51"/><path d="M109,543L98,919L434,638Z" fill="#ed5043" stroke="#ed5043" stroke-width="1.51"/><path d="M-136,885L-309,768L-379,1149Z" fill="#eb4b45" stroke="#eb4b45" stroke-width="1.51"/><path d="M-406,2196L-430,2489L-155,2511Z" fill="#e76753" stroke="#e76753" stroke-width="1.51"/><path d="M-428,2076L-430,2489L-406,2196Z" fill="#ea654c" stroke="#ea654c" stroke-width="1.51"/><path d="M1999,598L1737,547L1692,885Z" fill="#c78487" stroke="#c78487" stroke-width="1.51"/><path d="M2158,1346L2263,1162L1976,1128Z" fill="#c48d8d" stroke="#c48d8d" stroke-width="1.51"/><path d="M2292,1646L2263,1162L2158,1346Z" fill="#c5908c" stroke="#c5908c" stroke-width="1.51"/><path d="M1850,3009L1567,2908L1714,3158Z" fill="#aba0a9" stroke="#aba0a9" stroke-width="1.51"/><path d="M1850,3009L1708,2682L1567,2908Z" fill="#b29ea2" stroke="#b29ea2" stroke-width="1.51"/><path d="M1895,2692L2122,2719L2078,2406Z" fill="#ad9fa8" stroke="#ad9fa8" stroke-width="1.51"/><path d="M2176,2386L2331,3451L2202,2301Z" fill="#a7a0ad" stroke="#a7a0ad" stroke-width="1.51"/><path d="M128,526L109,543L434,638Z" fill="#ec4e44" stroke="#ec4e44" stroke-width="1.51"/><path d="M1428,3245L1567,2908L1339,3124Z" fill="#bf9b94" stroke="#bf9b94" stroke-width="1.51"/><path d="M-401,2802L11,2731L-155,2511Z" fill="#df6c60" stroke="#df6c60" stroke-width="1.51"/><path d="M1087,3272L1428,3245L1339,3124Z" fill="#c7998b" stroke="#c7998b" stroke-width="1.51"/><path d="M284,378L128,526L434,638Z" fill="#ed4f44" stroke="#ed4f44" stroke-width="1.51"/><path d="M1999,598L1692,885L1911,964Z" fill="#c4878c" stroke="#c4878c" stroke-width="1.51"/><path d="M503,399L284,378L434,638Z" fill="#ee5342" stroke="#ee5342" stroke-width="1.51"/><path d="M765,271L950,549L1082,507Z" fill="#f46739" stroke="#f46739" stroke-width="1.51"/><path d="M765,271L1082,507L1155,252Z" fill="#f1673e" stroke="#f1673e" stroke-width="1.51"/><path d="M534,3155L738,3341L865,3180Z" fill="#d98a6f" stroke="#d98a6f" stroke-width="1.51"/><path d="M1087,3272L1126,3411L1428,3245Z" fill="#c89889" stroke="#c89889" stroke-width="1.51"/><path d="M479,3495L738,3341L534,3155Z" fill="#d48776" stroke="#d48776" stroke-width="1.51"/><path d="M479,3495L534,3155L387,3116Z" fill="#d58374" stroke="#d58374" stroke-width="1.51"/><path d="M209,3204L287,2957L99,3015Z" fill="#d8786f" stroke="#d8786f" stroke-width="1.51"/><path d="M1714,3158L1880,3018L1850,3009Z" fill="#9fa2b5" stroke="#9fa2b5" stroke-width="1.51"/><path d="M1850,3009L1880,3018L1895,2692Z" fill="#a0a2b3" stroke="#a0a2b3" stroke-width="1.51"/><path d="M-157,3165L209,3204L99,3015Z" fill="#d47473" stroke="#d47473" stroke-width="1.51"/><path d="M1428,3245L1714,3158L1567,2908Z" fill="#b49ea0" stroke="#b49ea0" stroke-width="1.51"/><path d="M745,313L534,96L503,399Z" fill="#ef5740" stroke="#ef5740" stroke-width="1.51"/><path d="M1155,252L1082,507L1305,271Z" fill="#e96d50" stroke="#e96d50" stroke-width="1.51"/><path d="M1737,547L1616,416L1571,680Z" fill="#d17d79" stroke="#d17d79" stroke-width="1.51"/><path d="M-51,418L18,640L109,543Z" fill="#e94447" stroke="#e94447" stroke-width="1.51"/><path d="M372,292L284,378L503,399Z" fill="#ed5043" stroke="#ed5043" stroke-width="1.51"/><path d="M-51,418L109,543L128,526Z" fill="#ea4547" stroke="#ea4547" stroke-width="1.51"/><path d="M-51,418L-229,732L18,640Z" fill="#e94447" stroke="#e94447" stroke-width="1.51"/><path d="M18,640L-229,732L-136,885Z" fill="#ea4746" stroke="#ea4746" stroke-width="1.51"/><path d="M1305,271L1082,507L1367,494Z" fill="#e67156" stroke="#e67156" stroke-width="1.51"/><path d="M1503,238L1305,271L1367,494Z" fill="#de7464" stroke="#de7464" stroke-width="1.51"/><path d="M738,3341L1126,3411L1087,3272Z" fill="#d69375" stroke="#d69375" stroke-width="1.51"/><path d="M1428,3245L1526,3357L1714,3158Z" fill="#af9fa6" stroke="#af9fa6" stroke-width="1.51"/><path d="M-229,732L-309,768L-136,885Z" fill="#ea4946" stroke="#ea4946" stroke-width="1.51"/><path d="M-340,418L-309,768L-229,732Z" fill="#e94547" stroke="#e94547" stroke-width="1.51"/><path d="M150,274L-51,418L128,526Z" fill="#e94348" stroke="#e94348" stroke-width="1.51"/><path d="M534,96L372,292L503,399Z" fill="#ed5143" stroke="#ed5143" stroke-width="1.51"/><path d="M2153,639L1999,598L1911,964Z" fill="#c18790" stroke="#c18790" stroke-width="1.51"/><path d="M1737,547L1828,331L1616,416Z" fill="#cb7e82" stroke="#cb7e82" stroke-width="1.51"/><path d="M-430,2489L-401,2802L-155,2511Z" fill="#e16b5c" stroke="#e16b5c" stroke-width="1.51"/><path d="M-123,2923L-157,3165L99,3015Z" fill="#d67170" stroke="#d67170" stroke-width="1.51"/><path d="M1387,3445L1526,3357L1428,3245Z" fill="#b49ea0" stroke="#b49ea0" stroke-width="1.51"/><path d="M2079,3175L2137,2989L1880,3018Z" fill="#95a4bd" stroke="#95a4bd" stroke-width="1.51"/><path d="M2263,1162L2300,872L1976,1128Z" fill="#c38b8e" stroke="#c38b8e" stroke-width="1.51"/><path d="M2292,1646L2300,872L2263,1162Z" fill="#c48e8d" stroke="#c48e8d" stroke-width="1.51"/><path d="M1999,598L1921,475L1737,547Z" fill="#c0838f" stroke="#c0838f" stroke-width="1.51"/><path d="M1616,416L1503,238L1367,494Z" fill="#d9776d" stroke="#d9776d" stroke-width="1.51"/><path d="M2295,337L1921,475L1999,598Z" fill="#bf8391" stroke="#bf8391" stroke-width="1.51"/><path d="M1126,3411L1387,3445L1428,3245Z" fill="#be9b95" stroke="#be9b95" stroke-width="1.51"/><path d="M2122,2719L2188,3156L2176,2386Z" fill="#a6a0af" stroke="#a6a0af" stroke-width="1.51"/><path d="M2202,2301L2331,3451L2292,1646Z" fill="#b39ea2" stroke="#b39ea2" stroke-width="1.51"/><path d="M1880,3018L2137,2989L2122,2719Z" fill="#9ea2b6" stroke="#9ea2b6" stroke-width="1.51"/><path d="M2079,3175L1880,3018L1714,3158Z" fill="#93a4be" stroke="#93a4be" stroke-width="1.51"/><path d="M2079,3175L1714,3158L2066,3319Z" fill="#8ba5c4" stroke="#8ba5c4" stroke-width="1.51"/><path d="M1816,259L1503,238L1616,416Z" fill="#cf7a7b" stroke="#cf7a7b" stroke-width="1.51"/><path d="M1305,271L1404,40L1155,252Z" fill="#e36e5b" stroke="#e36e5b" stroke-width="1.51"/><path d="M150,274L128,526L284,378Z" fill="#ea4846" stroke="#ea4846" stroke-width="1.51"/><path d="M2300,872L2153,639L1911,964Z" fill="#c2888f" stroke="#c2888f" stroke-width="1.51"/><path d="M-373,3098L-157,3165L-123,2923Z" fill="#d57271" stroke="#d57271" stroke-width="1.51"/><path d="M209,3204L479,3495L387,3116Z" fill="#d48076" stroke="#d48076" stroke-width="1.51"/><path d="M372,292L150,274L284,378Z" fill="#eb4a46" stroke="#eb4a46" stroke-width="1.51"/><path d="M317,-83L150,274L372,292Z" fill="#ea4746" stroke="#ea4746" stroke-width="1.51"/><path d="M534,96L745,313L765,271Z" fill="#f05940" stroke="#f05940" stroke-width="1.51"/><path d="M534,96L765,271L662,-52Z" fill="#ee5641" stroke="#ee5641" stroke-width="1.51"/><path d="M-401,2802L-404,2940L-123,2923Z" fill="#da6f69" stroke="#da6f69" stroke-width="1.51"/><path d="M-430,2489L-404,2940L-401,2802Z" fill="#de6d63" stroke="#de6d63" stroke-width="1.51"/><path d="M738,3341L1058,3566L1126,3411Z" fill="#d49479" stroke="#d49479" stroke-width="1.51"/><path d="M1126,3411L1334,3582L1387,3445Z" fill="#bd9b97" stroke="#bd9b97" stroke-width="1.51"/><path d="M86,3466L479,3495L209,3204Z" fill="#cf7e7c" stroke="#cf7e7c" stroke-width="1.51"/><path d="M1816,259L1828,331L2026,225Z" fill="#bf8091" stroke="#bf8091" stroke-width="1.51"/><path d="M1921,475L1828,331L1737,547Z" fill="#c4818b" stroke="#c4818b" stroke-width="1.51"/><path d="M876,3647L1058,3566L738,3341Z" fill="#d3937b" stroke="#d3937b" stroke-width="1.51"/><path d="M479,3495L491,3525L738,3341Z" fill="#d1887b" stroke="#d1887b" stroke-width="1.51"/><path d="M358,3604L491,3525L479,3495Z" fill="#cc8581" stroke="#cc8581" stroke-width="1.51"/><path d="M662,-52L765,271L960,-78Z" fill="#f05a3f" stroke="#f05a3f" stroke-width="1.51"/><path d="M1781,3457L1714,3158L1526,3357Z" fill="#a0a2b4" stroke="#a0a2b4" stroke-width="1.51"/><path d="M1503,238L1404,40L1305,271Z" fill="#dc7166" stroke="#dc7166" stroke-width="1.51"/><path d="M1828,331L1816,259L1616,416Z" fill="#c97d84" stroke="#c97d84" stroke-width="1.51"/><path d="M2026,225L1828,331L1921,475Z" fill="#bf8191" stroke="#bf8191" stroke-width="1.51"/><path d="M1602,3545L1781,3457L1526,3357Z" fill="#9da3b6" stroke="#9da3b6" stroke-width="1.51"/><path d="M1058,3566L1334,3582L1126,3411Z" fill="#c4998e" stroke="#c4998e" stroke-width="1.51"/><path d="M-404,2940L-373,3098L-123,2923Z" fill="#d7706d" stroke="#d7706d" stroke-width="1.51"/><path d="M18,3469L86,3466L209,3204Z" fill="#cd797d" stroke="#cd797d" stroke-width="1.51"/><path d="M542,3628L876,3647L738,3341Z" fill="#d08e7e" stroke="#d08e7e" stroke-width="1.51"/><path d="M1058,3566L1091,3866L1334,3582Z" fill="#bf9b94" stroke="#bf9b94" stroke-width="1.51"/><path d="M18,3469L209,3204L-157,3165Z" fill="#cf757a" stroke="#cf757a" stroke-width="1.51"/><path d="M491,3525L542,3628L738,3341Z" fill="#cf8a7d" stroke="#cf8a7d" stroke-width="1.51"/><path d="M358,3604L542,3628L491,3525Z" fill="#cb8683" stroke="#cb8683" stroke-width="1.51"/><path d="M2079,3175L2188,3156L2137,2989Z" fill="#92a4bf" stroke="#92a4bf" stroke-width="1.51"/><path d="M2137,2989L2188,3156L2122,2719Z" fill="#9ba3b8" stroke="#9ba3b8" stroke-width="1.51"/><path d="M2066,3319L2188,3156L2079,3175Z" fill="#8ba5c4" stroke="#8ba5c4" stroke-width="1.51"/><path d="M1757,19L1404,40L1503,238Z" fill="#d37474" stroke="#d37474" stroke-width="1.51"/><path d="M1602,3545L1526,3357L1387,3445Z" fill="#aaa0aa" stroke="#aaa0aa" stroke-width="1.51"/><path d="M1781,3457L1602,3545L1699,3694Z" fill="#8fa5c0" stroke="#8fa5c0" stroke-width="1.51"/><path d="M1334,3582L1602,3545L1387,3445Z" fill="#ad9fa8" stroke="#ad9fa8" stroke-width="1.51"/><path d="M86,3466L358,3604L479,3495Z" fill="#cb8181" stroke="#cb8181" stroke-width="1.51"/><path d="M86,3466L238,3733L358,3604Z" fill="#c77f86" stroke="#c77f86" stroke-width="1.51"/><path d="M-248,3343L18,3469L-157,3165Z" fill="#cd757c" stroke="#cd757c" stroke-width="1.51"/><path d="M-134,81L-340,418L-51,418Z" fill="#e73d49" stroke="#e73d49" stroke-width="1.51"/><path d="M-51,418L-340,418L-229,732Z" fill="#e94248" stroke="#e94248" stroke-width="1.51"/><path d="M-309,768L-340,418L-379,1149Z" fill="#ea4846" stroke="#ea4846" stroke-width="1.51"/><path d="M-134,81L-51,418L150,274Z" fill="#e73c4a" stroke="#e73c4a" stroke-width="1.51"/><path d="M1905,3591L2066,3319L1781,3457Z" fill="#7aa8cf" stroke="#7aa8cf" stroke-width="1.51"/><path d="M1781,3457L2066,3319L1714,3158Z" fill="#8ba5c4" stroke="#8ba5c4" stroke-width="1.51"/><path d="M534,96L317,-83L372,292Z" fill="#eb4b45" stroke="#eb4b45" stroke-width="1.51"/><path d="M960,-78L765,271L1155,252Z" fill="#f2633d" stroke="#f2633d" stroke-width="1.51"/><path d="M1404,40L960,-78L1155,252Z" fill="#e86851" stroke="#e86851" stroke-width="1.51"/><path d="M-373,3098L-248,3343L-157,3165Z" fill="#d17477" stroke="#d17477" stroke-width="1.51"/><path d="M966,-160L929,-118L960,-78Z" fill="#f25f3d" stroke="#f25f3d" stroke-width="1.51"/><path d="M960,-78L929,-118L662,-52Z" fill="#f05b3f" stroke="#f05b3f" stroke-width="1.51"/><path d="M1816,259L1757,19L1503,238Z" fill="#cb7980" stroke="#cb7980" stroke-width="1.51"/><path d="M1404,40L966,-160L960,-78Z" fill="#ea654c" stroke="#ea654c" stroke-width="1.51"/><path d="M2295,337L2026,225L1921,475Z" fill="#bf8191" stroke="#bf8191" stroke-width="1.51"/><path d="M2295,337L1999,598L2153,639Z" fill="#c08491" stroke="#c08491" stroke-width="1.51"/><path d="M1254,-371L966,-160L1404,40Z" fill="#e56855" stroke="#e56855" stroke-width="1.51"/><path d="M929,-118L760,-161L662,-52Z" fill="#ef5940" stroke="#ef5940" stroke-width="1.51"/><path d="M547,-173L317,-83L534,96Z" fill="#eb4b45" stroke="#eb4b45" stroke-width="1.51"/><path d="M966,-160L760,-161L929,-118Z" fill="#f05d3e" stroke="#f05d3e" stroke-width="1.51"/><path d="M2026,225L1757,19L1816,259Z" fill="#c07e90" stroke="#c07e90" stroke-width="1.51"/><path d="M547,-173L534,96L662,-52Z" fill="#ed5043" stroke="#ed5043" stroke-width="1.51"/><path d="M-248,3343L15,3610L18,3469Z" fill="#c97783" stroke="#c97783" stroke-width="1.51"/><path d="M18,3469L15,3610L86,3466Z" fill="#c87985" stroke="#c87985" stroke-width="1.51"/><path d="M358,3604L531,3869L542,3628Z" fill="#c88888" stroke="#c88888" stroke-width="1.51"/><path d="M819,3914L1091,3866L876,3647Z" fill="#c99787" stroke="#c99787" stroke-width="1.51"/><path d="M15,3610L238,3733L86,3466Z" fill="#c67d88" stroke="#c67d88" stroke-width="1.51"/><path d="M1699,3694L1905,3591L1781,3457Z" fill="#81a7cb" stroke="#81a7cb" stroke-width="1.51"/><path d="M2066,3319L2331,3451L2188,3156Z" fill="#85a6c8" stroke="#85a6c8" stroke-width="1.51"/><path d="M1699,3694L1602,3545L1334,3582Z" fill="#9fa2b5" stroke="#9fa2b5" stroke-width="1.51"/><path d="M1699,3694L1334,3582L1509,3943Z" fill="#9ba3b8" stroke="#9ba3b8" stroke-width="1.51"/><path d="M2026,225L2014,-51L1757,19Z" fill="#bd7d93" stroke="#bd7d93" stroke-width="1.51"/><path d="M2300,872L2295,337L2153,639Z" fill="#c08590" stroke="#c08590" stroke-width="1.51"/><path d="M760,-161L547,-173L662,-52Z" fill="#ee5442" stroke="#ee5442" stroke-width="1.51"/><path d="M423,-235L547,-173L760,-161Z" fill="#ed5043" stroke="#ed5043" stroke-width="1.51"/><path d="M1091,3866L1058,3566L876,3647Z" fill="#ca9787" stroke="#ca9787" stroke-width="1.51"/><path d="M-37,20L150,274L103,-104Z" fill="#e73b4a" stroke="#e73b4a" stroke-width="1.51"/><path d="M-37,20L-134,81L150,274Z" fill="#e6394a" stroke="#e6394a" stroke-width="1.51"/><path d="M103,-104L150,274L317,-83Z" fill="#e84049" stroke="#e84049" stroke-width="1.51"/><path d="M1478,-225L1495,-137L1700,-193Z" fill="#d37375" stroke="#d37375" stroke-width="1.51"/><path d="M1757,19L1495,-137L1404,40Z" fill="#d37274" stroke="#d37274" stroke-width="1.51"/><path d="M819,3914L876,3647L542,3628Z" fill="#ca9186" stroke="#ca9186" stroke-width="1.51"/><path d="M238,3733L531,3869L358,3604Z" fill="#c5868a" stroke="#c5868a" stroke-width="1.51"/><path d="M2295,337L2217,198L2026,225Z" fill="#be8092" stroke="#be8092" stroke-width="1.51"/><path d="M-392,-100L-397,152L-134,81Z" fill="#e6364b" stroke="#e6364b" stroke-width="1.51"/><path d="M114,-365L103,-104L317,-83Z" fill="#e83e49" stroke="#e83e49" stroke-width="1.51"/><path d="M531,3869L819,3914L542,3628Z" fill="#c58e8b" stroke="#c58e8b" stroke-width="1.51"/><path d="M1091,3866L1213,3896L1334,3582Z" fill="#b69d9f" stroke="#b69d9f" stroke-width="1.51"/><path d="M1265,4116L1213,3896L1160,4193Z" fill="#b49da1" stroke="#b49da1" stroke-width="1.51"/><path d="M547,-173L423,-235L317,-83Z" fill="#eb4a45" stroke="#eb4a45" stroke-width="1.51"/><path d="M1254,-371L423,-235L760,-161Z" fill="#f05a3f" stroke="#f05a3f" stroke-width="1.51"/><path d="M1254,-371L760,-161L966,-160Z" fill="#f06141" stroke="#f06141" stroke-width="1.51"/><path d="M-12,-162L-134,81L-37,20Z" fill="#e5354b" stroke="#e5354b" stroke-width="1.51"/><path d="M-134,81L-397,152L-340,418Z" fill="#e73b4a" stroke="#e73b4a" stroke-width="1.51"/><path d="M-340,418L-397,152L-379,1149Z" fill="#e94347" stroke="#e94347" stroke-width="1.51"/><path d="M-379,1149L-397,152L-428,2076Z" fill="#ed4f43" stroke="#ed4f43" stroke-width="1.51"/><path d="M1495,-137L1478,-225L1404,40Z" fill="#d8706c" stroke="#d8706c" stroke-width="1.51"/><path d="M1700,-193L1495,-137L1757,19Z" fill="#cd757d" stroke="#cd757d" stroke-width="1.51"/><path d="M2270,3681L2066,3319L1905,3591Z" fill="#74a8d2" stroke="#74a8d2" stroke-width="1.51"/><path d="M2270,3681L2331,3451L2066,3319Z" fill="#78a8d0" stroke="#78a8d0" stroke-width="1.51"/><path d="M2188,3156L2331,3451L2176,2386Z" fill="#99a3ba" stroke="#99a3ba" stroke-width="1.51"/><path d="M2292,1646L2331,3451L2300,872Z" fill="#c6998c" stroke="#c6998c" stroke-width="1.51"/><path d="M2300,872L2308,20L2295,337Z" fill="#bf8291" stroke="#bf8291" stroke-width="1.51"/><path d="M1892,3853L1905,3591L1699,3694Z" fill="#70a9d4" stroke="#70a9d4" stroke-width="1.51"/><path d="M2014,-51L1700,-193L1757,19Z" fill="#c27a8d" stroke="#c27a8d" stroke-width="1.51"/><path d="M2217,198L2014,-51L2026,225Z" fill="#bd7e92" stroke="#bd7e92" stroke-width="1.51"/><path d="M238,3733L459,3963L531,3869Z" fill="#c2888f" stroke="#c2888f" stroke-width="1.51"/><path d="M531,3869L686,4026L819,3914Z" fill="#c5908c" stroke="#c5908c" stroke-width="1.51"/><path d="M15,3610L177,3873L238,3733Z" fill="#c27f8d" stroke="#c27f8d" stroke-width="1.51"/><path d="M-200,3956L177,3873L15,3610Z" fill="#bd7b92" stroke="#bd7b92" stroke-width="1.51"/><path d="M1529,4042L1509,3943L1265,4116Z" fill="#9ea2b5" stroke="#9ea2b5" stroke-width="1.51"/><path d="M177,3873L459,3963L238,3733Z" fill="#c08590" stroke="#c08590" stroke-width="1.51"/><path d="M103,-104L-12,-162L-37,20Z" fill="#e5364b" stroke="#e5364b" stroke-width="1.51"/><path d="M114,-365L-12,-162L103,-104Z" fill="#e6394a" stroke="#e6394a" stroke-width="1.51"/><path d="M1213,3896L1509,3943L1334,3582Z" fill="#a8a0ac" stroke="#a8a0ac" stroke-width="1.51"/><path d="M1160,4193L1091,3866L819,3914Z" fill="#c39a90" stroke="#c39a90" stroke-width="1.51"/><path d="M1509,3943L1721,3881L1699,3694Z" fill="#84a6c9" stroke="#84a6c9" stroke-width="1.51"/><path d="M459,3963L686,4026L531,3869Z" fill="#c48c8d" stroke="#c48c8d" stroke-width="1.51"/><path d="M1478,-225L1254,-371L1404,40Z" fill="#dd6d65" stroke="#dd6d65" stroke-width="1.51"/><path d="M1908,-351L1254,-371L1478,-225Z" fill="#d37274" stroke="#d37274" stroke-width="1.51"/><path d="M1721,3881L1892,3853L1699,3694Z" fill="#73a8d3" stroke="#73a8d3" stroke-width="1.51"/><path d="M1717,4041L1892,3853L1721,3881Z" fill="#6fa9d5" stroke="#6fa9d5" stroke-width="1.51"/><path d="M-341,4208L-361,3692L-404,2940Z" fill="#c47989" stroke="#c47989" stroke-width="1.51"/><path d="M-404,2940L-361,3692L-373,3098Z" fill="#d07479" stroke="#d07479" stroke-width="1.51"/><path d="M-373,3098L-361,3692L-248,3343Z" fill="#cc767f" stroke="#cc767f" stroke-width="1.51"/><path d="M-248,3343L-361,3692L15,3610Z" fill="#c67886" stroke="#c67886" stroke-width="1.51"/><path d="M1700,-193L1908,-351L1478,-225Z" fill="#ca7681" stroke="#ca7681" stroke-width="1.51"/><path d="M2014,-51L1908,-351L1700,-193Z" fill="#be7b91" stroke="#be7b91" stroke-width="1.51"/><path d="M2217,198L2308,20L2014,-51Z" fill="#bd7d93" stroke="#bd7d93" stroke-width="1.51"/><path d="M2295,337L2308,20L2217,198Z" fill="#be7f93" stroke="#be7f93" stroke-width="1.51"/><path d="M2331,3451L2308,20L2300,872Z" fill="#c5918b" stroke="#c5918b" stroke-width="1.51"/><path d="M2124,3881L2270,3681L1905,3591Z" fill="#62aadb" stroke="#62aadb" stroke-width="1.51"/><path d="M1509,3943L1717,4041L1721,3881Z" fill="#83a6c9" stroke="#83a6c9" stroke-width="1.51"/><path d="M1892,3853L2124,3881L1905,3591Z" fill="#5babde" stroke="#5babde" stroke-width="1.51"/><path d="M1265,4116L1509,3943L1213,3896Z" fill="#a9a0ac" stroke="#a9a0ac" stroke-width="1.51"/><path d="M686,4026L767,4137L819,3914Z" fill="#c6928b" stroke="#c6928b" stroke-width="1.51"/><path d="M461,4177L767,4137L686,4026Z" fill="#c58f8c" stroke="#c58f8c" stroke-width="1.51"/><path d="M461,4177L686,4026L459,3963Z" fill="#c38c8e" stroke="#c38c8e" stroke-width="1.51"/><path d="M461,4177L459,3963L177,3873Z" fill="#c1878f" stroke="#c1878f" stroke-width="1.51"/><path d="M1160,4193L1213,3896L1091,3866Z" fill="#b99c9b" stroke="#b99c9b" stroke-width="1.51"/><path d="M-12,-162L-392,-100L-134,81Z" fill="#e5354b" stroke="#e5354b" stroke-width="1.51"/><path d="M-269,-305L-392,-100L-12,-162Z" fill="#e5354b" stroke="#e5354b" stroke-width="1.51"/><path d="M1254,-371L114,-365L423,-235Z" fill="#ed5143" stroke="#ed5143" stroke-width="1.51"/><path d="M423,-235L114,-365L317,-83Z" fill="#e94347" stroke="#e94347" stroke-width="1.51"/><path d="M1160,4193L1717,4041L1529,4042Z" fill="#9aa3b9" stroke="#9aa3b9" stroke-width="1.51"/><path d="M1529,4042L1717,4041L1509,3943Z" fill="#8da5c3" stroke="#8da5c3" stroke-width="1.51"/><path d="M1265,4116L1160,4193L1529,4042Z" fill="#aaa0ab" stroke="#aaa0ab" stroke-width="1.51"/><path d="M767,4137L1160,4193L819,3914Z" fill="#c89789" stroke="#c89789" stroke-width="1.51"/><path d="M2070,4147L2124,3881L1892,3853Z" fill="#53abe1" stroke="#53abe1" stroke-width="1.51"/><path d="M2313,-313L1908,-351L2014,-51Z" fill="#bc7c93" stroke="#bc7c93" stroke-width="1.51"/><path d="M767,4137L461,4177L1160,4193Z" fill="#c6938a" stroke="#c6938a" stroke-width="1.51"/><path d="M102,4215L461,4177L177,3873Z" fill="#c08391" stroke="#c08391" stroke-width="1.51"/><path d="M-361,3692L-200,3956L15,3610Z" fill="#bf7b8f" stroke="#bf7b8f" stroke-width="1.51"/><path d="M114,-365L-269,-305L-12,-162Z" fill="#e5354b" stroke="#e5354b" stroke-width="1.51"/><path d="M-361,3692L-340,3959L-200,3956Z" fill="#bc7c93" stroke="#bc7c93" stroke-width="1.51"/><path d="M-64,4172L102,4215L177,3873Z" fill="#bd7e92" stroke="#bd7e92" stroke-width="1.51"/><path d="M-64,4172L177,3873L-200,3956Z" fill="#bc7c93" stroke="#bc7c93" stroke-width="1.51"/><path d="M461,4177L102,4215L1160,4193Z" fill="#c48d8d" stroke="#c48d8d" stroke-width="1.51"/><path d="M-341,4208L-64,4172L-200,3956Z" fill="#bc7c93" stroke="#bc7c93" stroke-width="1.51"/><path d="M2308,20L2313,-313L2014,-51Z" fill="#bc7c93" stroke="#bc7c93" stroke-width="1.51"/><path d="M2331,3451L2313,-313L2308,20Z" fill="#c38b8e" stroke="#c38b8e" stroke-width="1.51"/><path d="M1160,4193L2070,4147L1717,4041Z" fill="#83a6c9" stroke="#83a6c9" stroke-width="1.51"/><path d="M1717,4041L2070,4147L1892,3853Z" fill="#55abe0" stroke="#55abe0" stroke-width="1.51"/><path d="M2124,3881L2158,4146L2270,3681Z" fill="#53abe1" stroke="#53abe1" stroke-width="1.51"/><path d="M2070,4147L2158,4146L2124,3881Z" fill="#53abe1" stroke="#53abe1" stroke-width="1.51"/><path d="M2270,3681L2158,4146L2331,3451Z" fill="#5daadd" stroke="#5daadd" stroke-width="1.51"/><path d="M1160,4193L2158,4146L2070,4147Z" fill="#6ba9d7" stroke="#6ba9d7" stroke-width="1.51"/><path d="M-340,3959L-341,4208L-200,3956Z" fill="#bc7c93" stroke="#bc7c93" stroke-width="1.51"/><path d="M-64,4172L-341,4208L102,4215Z" fill="#bc7c93" stroke="#bc7c93" stroke-width="1.51"/><path d="M-361,3692L-341,4208L-340,3959Z" fill="#bc7c93" stroke="#bc7c93" stroke-width="1.51"/><path d="M-430,2489L-341,4208L-404,2940Z" fill="#d17478" stroke="#d17478" stroke-width="1.51"/></svg>