<svg xmlns="http://www.w3.org/2000/svg" width="3840" height="1900"><path d="M2048,787L2291,1052L2258,753Z" fill="#c1835d" stroke="#c1835d" stroke-width="1.51"/><path d="M2048,787L2047,1158L2291,1052Z" fill="#b78364" stroke="#b78364" stroke-width="1.51"/><path d="M2258,753L2052,459L2048,787Z" fill="#d6824d" stroke="#d6824d" stroke-width="1.51"/><path d="M2540,779L2326,597L2258,753Z" fill="#c78358" stroke="#c78358" stroke-width="1.51"/><path d="M2291,1052L2540,779L2258,753Z" fill="#ba8362" stroke="#ba8362" stroke-width="1.51"/><path d="M2291,1052L2470,1172L2540,779Z" fill="#a8836d" stroke="#a8836d" stroke-width="1.51"/><path d="M2360,1380L2470,1172L2291,1052Z" fill="#968278" stroke="#968278" stroke-width="1.51"/><path d="M2047,1158L2071,1315L2291,1052Z" fill="#a5826f" stroke="#a5826f" stroke-width="1.51"/><path d="M2048,787L1759,1115L2047,1158Z" fill="#be835f" stroke="#be835f" stroke-width="1.51"/><path d="M2047,1158L1835,1289L2071,1315Z" fill="#a5826e" stroke="#a5826e" stroke-width="1.51"/><path d="M1920,501L1760,785L2048,787Z" fill="#dd8347" stroke="#dd8347" stroke-width="1.51"/><path d="M2326,597L2052,459L2258,753Z" fill="#d5814e" stroke="#d5814e" stroke-width="1.51"/><path d="M2540,779L2411,534L2326,597Z" fill="#cb8355" stroke="#cb8355" stroke-width="1.51"/><path d="M1760,785L1759,1115L2048,787Z" fill="#ce8354" stroke="#ce8354" stroke-width="1.51"/><path d="M2411,534L2288,459L2326,597Z" fill="#ce7e55" stroke="#ce7e55" stroke-width="1.51"/><path d="M2288,459L2052,459L2326,597Z" fill="#d37d50" stroke="#d37d50" stroke-width="1.51"/><path d="M2052,459L1920,501L2048,787Z" fill="#dd8047" stroke="#dd8047" stroke-width="1.51"/><path d="M2071,1315L2360,1380L2291,1052Z" fill="#988277" stroke="#988277" stroke-width="1.51"/><path d="M1759,1115L1835,1289L2047,1158Z" fill="#b18367" stroke="#b18367" stroke-width="1.51"/><path d="M2071,1315L2224,1424L2360,1380Z" fill="#97857f" stroke="#97857f" stroke-width="1.51"/><path d="M1996,1512L2224,1424L2071,1315Z" fill="#9d877e" stroke="#9d877e" stroke-width="1.51"/><path d="M2470,1172L2704,1111L2540,779Z" fill="#9f8272" stroke="#9f8272" stroke-width="1.51"/><path d="M2360,1380L2581,1236L2470,1172Z" fill="#89817f" stroke="#89817f" stroke-width="1.51"/><path d="M1920,501L1704,674L1760,785Z" fill="#e68240" stroke="#e68240" stroke-width="1.51"/><path d="M1760,785L1668,755L1759,1115Z" fill="#d4834e" stroke="#d4834e" stroke-width="1.51"/><path d="M1704,674L1668,755L1760,785Z" fill="#e28243" stroke="#e28243" stroke-width="1.51"/><path d="M2540,779L2679,648L2411,534Z" fill="#c5825a" stroke="#c5825a" stroke-width="1.51"/><path d="M2704,1111L2696,736L2540,779Z" fill="#ae846c" stroke="#ae846c" stroke-width="1.51"/><path d="M2581,1236L2704,1111L2470,1172Z" fill="#8e827d" stroke="#8e827d" stroke-width="1.51"/><path d="M2696,736L2679,648L2540,779Z" fill="#be8462" stroke="#be8462" stroke-width="1.51"/><path d="M2411,534L2504,351L2288,459Z" fill="#ca7a58" stroke="#ca7a58" stroke-width="1.51"/><path d="M1920,501L1859,413L1704,674Z" fill="#e47d42" stroke="#e47d42" stroke-width="1.51"/><path d="M2052,459L1859,413L1920,501Z" fill="#de7a49" stroke="#de7a49" stroke-width="1.51"/><path d="M2125,204L1859,413L2052,459Z" fill="#d9764d" stroke="#d9764d" stroke-width="1.51"/><path d="M1835,1289L1996,1512L2071,1315Z" fill="#a48676" stroke="#a48676" stroke-width="1.51"/><path d="M2584,1637L2581,1236L2360,1380Z" fill="#84868a" stroke="#84868a" stroke-width="1.51"/><path d="M2695,381L2504,351L2411,534Z" fill="#c3795d" stroke="#c3795d" stroke-width="1.51"/><path d="M2288,459L2125,204L2052,459Z" fill="#d37652" stroke="#d37652" stroke-width="1.51"/><path d="M1668,755L1505,1145L1759,1115Z" fill="#cd8353" stroke="#cd8353" stroke-width="1.51"/><path d="M1759,1115L1485,1187L1835,1289Z" fill="#b98362" stroke="#b98362" stroke-width="1.51"/><path d="M1704,674L1500,712L1668,755Z" fill="#e8823e" stroke="#e8823e" stroke-width="1.51"/><path d="M1451,418L1500,712L1704,674Z" fill="#f18035" stroke="#f18035" stroke-width="1.51"/><path d="M1386,964L1505,1145L1668,755Z" fill="#d7834c" stroke="#d7834c" stroke-width="1.51"/><path d="M1835,1289L1708,1449L1996,1512Z" fill="#aa8776" stroke="#aa8776" stroke-width="1.51"/><path d="M2241,176L2125,204L2288,459Z" fill="#cf7256" stroke="#cf7256" stroke-width="1.51"/><path d="M1485,1187L1708,1449L1835,1289Z" fill="#b38469" stroke="#b38469" stroke-width="1.51"/><path d="M2704,1111L2890,792L2696,736Z" fill="#ae8671" stroke="#ae8671" stroke-width="1.51"/><path d="M2696,736L2890,792L2679,648Z" fill="#bd8666" stroke="#bd8666" stroke-width="1.51"/><path d="M2679,648L2695,381L2411,534Z" fill="#c47e5d" stroke="#c47e5d" stroke-width="1.51"/><path d="M2504,351L2241,176L2288,459Z" fill="#ca7559" stroke="#ca7559" stroke-width="1.51"/><path d="M2704,1111L2998,1017L2890,792Z" fill="#a4877a" stroke="#a4877a" stroke-width="1.51"/><path d="M2581,1236L2816,1289L2704,1111Z" fill="#898382" stroke="#898382" stroke-width="1.51"/><path d="M2858,1353L2816,1289L2771,1553Z" fill="#7f8a94" stroke="#7f8a94" stroke-width="1.51"/><path d="M2466,1647L2360,1380L2224,1424Z" fill="#8d898a" stroke="#8d898a" stroke-width="1.51"/><path d="M2504,351L2546,70L2241,176Z" fill="#c46f5e" stroke="#c46f5e" stroke-width="1.51"/><path d="M2968,448L2695,381L2679,648Z" fill="#c48064" stroke="#c48064" stroke-width="1.51"/><path d="M1505,1145L1485,1187L1759,1115Z" fill="#c2835c" stroke="#c2835c" stroke-width="1.51"/><path d="M1287,1190L1485,1187L1505,1145Z" fill="#c88358" stroke="#c88358" stroke-width="1.51"/><path d="M1996,1512L1984,1642L2224,1424Z" fill="#9e8a85" stroke="#9e8a85" stroke-width="1.51"/><path d="M1708,1449L1984,1642L1996,1512Z" fill="#a88b81" stroke="#a88b81" stroke-width="1.51"/><path d="M2374,1835L2466,1647L2224,1424Z" fill="#8b8d96" stroke="#8b8d96" stroke-width="1.51"/><path d="M1500,712L1386,964L1668,755Z" fill="#e48242" stroke="#e48242" stroke-width="1.51"/><path d="M1859,413L1656,291L1704,674Z" fill="#e77a41" stroke="#e77a41" stroke-width="1.51"/><path d="M1218,682L1231,940L1386,964Z" fill="#ea823c" stroke="#ea823c" stroke-width="1.51"/><path d="M1709,70L1656,291L1859,413Z" fill="#e37046" stroke="#e37046" stroke-width="1.51"/><path d="M1709,70L1859,413L2125,204Z" fill="#dc6f4c" stroke="#dc6f4c" stroke-width="1.51"/><path d="M2816,1289L2998,1017L2704,1111Z" fill="#918683" stroke="#918683" stroke-width="1.51"/><path d="M2771,1553L2816,1289L2581,1236Z" fill="#81878e" stroke="#81878e" stroke-width="1.51"/><path d="M3180,1164L2998,1017L2816,1289Z" fill="#8e898a" stroke="#8e898a" stroke-width="1.51"/><path d="M2890,792L2987,644L2679,648Z" fill="#c18768" stroke="#c18768" stroke-width="1.51"/><path d="M2466,1647L2584,1637L2360,1380Z" fill="#858a94" stroke="#858a94" stroke-width="1.51"/><path d="M1485,1187L1556,1497L1708,1449Z" fill="#b8866b" stroke="#b8866b" stroke-width="1.51"/><path d="M1708,1449L1846,1755L1984,1642Z" fill="#aa8e85" stroke="#aa8e85" stroke-width="1.51"/><path d="M1200,1364L1556,1497L1485,1187Z" fill="#c08564" stroke="#c08564" stroke-width="1.51"/><path d="M3123,836L2987,644L2890,792Z" fill="#bb8a72" stroke="#bb8a72" stroke-width="1.51"/><path d="M2374,1835L2640,1643L2584,1637Z" fill="#7d8fa1" stroke="#7d8fa1" stroke-width="1.51"/><path d="M2584,1637L2771,1553L2581,1236Z" fill="#7f8993" stroke="#7f8993" stroke-width="1.51"/><path d="M2640,1643L2771,1553L2584,1637Z" fill="#7c8e9e" stroke="#7c8e9e" stroke-width="1.51"/><path d="M1656,291L1451,418L1704,674Z" fill="#ed793c" stroke="#ed793c" stroke-width="1.51"/><path d="M2695,381L2644,161L2504,351Z" fill="#c07562" stroke="#c07562" stroke-width="1.51"/><path d="M2902,33L2644,161L2695,381Z" fill="#bf7269" stroke="#bf7269" stroke-width="1.51"/><path d="M1652,1824L1846,1755L1708,1449Z" fill="#b09086" stroke="#b09086" stroke-width="1.51"/><path d="M1984,1642L2374,1835L2224,1424Z" fill="#958e91" stroke="#958e91" stroke-width="1.51"/><path d="M2466,1647L2374,1835L2584,1637Z" fill="#818f9f" stroke="#818f9f" stroke-width="1.51"/><path d="M2987,644L2968,448L2679,648Z" fill="#c68666" stroke="#c68666" stroke-width="1.51"/><path d="M2644,161L2546,70L2504,351Z" fill="#be6f62" stroke="#be6f62" stroke-width="1.51"/><path d="M1930,-126L1709,70L2125,204Z" fill="#d76651" stroke="#d76651" stroke-width="1.51"/><path d="M2481,-180L2546,70L2765,-153Z" fill="#bb6667" stroke="#bb6667" stroke-width="1.51"/><path d="M1451,418L1322,547L1500,712Z" fill="#f67e31" stroke="#f67e31" stroke-width="1.51"/><path d="M1386,964L1287,1190L1505,1145Z" fill="#d08352" stroke="#d08352" stroke-width="1.51"/><path d="M1198,1150L1287,1190L1386,964Z" fill="#d4824e" stroke="#d4824e" stroke-width="1.51"/><path d="M2003,1890L2374,1835L1984,1642Z" fill="#99939a" stroke="#99939a" stroke-width="1.51"/><path d="M3033,1653L2957,1465L2771,1553Z" fill="#7a90a3" stroke="#7a90a3" stroke-width="1.51"/><path d="M1218,682L1386,964L1500,712Z" fill="#ed8239" stroke="#ed8239" stroke-width="1.51"/><path d="M2987,644L3167,498L2968,448Z" fill="#c5866d" stroke="#c5866d" stroke-width="1.51"/><path d="M2998,1017L3123,836L2890,792Z" fill="#ae8a79" stroke="#ae8a79" stroke-width="1.51"/><path d="M3180,1164L3123,836L2998,1017Z" fill="#a08b85" stroke="#a08b85" stroke-width="1.51"/><path d="M3180,1164L2816,1289L2858,1353Z" fill="#80878f" stroke="#80878f" stroke-width="1.51"/><path d="M2771,1553L2957,1465L2858,1353Z" fill="#7d8c9a" stroke="#7d8c9a" stroke-width="1.51"/><path d="M3033,1653L2771,1553L2778,1994Z" fill="#7695af" stroke="#7695af" stroke-width="1.51"/><path d="M1656,291L1501,134L1451,418Z" fill="#ec703f" stroke="#ec703f" stroke-width="1.51"/><path d="M1451,418L1127,302L1322,547Z" fill="#f87631" stroke="#f87631" stroke-width="1.51"/><path d="M1930,-126L2125,204L2241,176Z" fill="#d06856" stroke="#d06856" stroke-width="1.51"/><path d="M1322,547L1218,682L1500,712Z" fill="#f9812c" stroke="#f9812c" stroke-width="1.51"/><path d="M1846,1755L2003,1890L1984,1642Z" fill="#a39393" stroke="#a39393" stroke-width="1.51"/><path d="M2546,70L2368,-63L2241,176Z" fill="#c4685f" stroke="#c4685f" stroke-width="1.51"/><path d="M1231,940L1198,1150L1386,964Z" fill="#dc8348" stroke="#dc8348" stroke-width="1.51"/><path d="M1287,1190L1200,1364L1485,1187Z" fill="#c5825a" stroke="#c5825a" stroke-width="1.51"/><path d="M990,914L1198,1150L1231,940Z" fill="#dd7f49" stroke="#dd7f49" stroke-width="1.51"/><path d="M1709,70L1501,134L1656,291Z" fill="#e76a45" stroke="#e76a45" stroke-width="1.51"/><path d="M943,590L1097,791L1218,682Z" fill="#f77d30" stroke="#f77d30" stroke-width="1.51"/><path d="M3172,1412L3180,1164L2858,1353Z" fill="#7e8a96" stroke="#7e8a96" stroke-width="1.51"/><path d="M1846,1755L1789,2022L2003,1890Z" fill="#a6979a" stroke="#a6979a" stroke-width="1.51"/><path d="M1556,1497L1652,1824L1708,1449Z" fill="#b68d7d" stroke="#b68d7d" stroke-width="1.51"/><path d="M1354,1749L1652,1824L1556,1497Z" fill="#bc9180" stroke="#bc9180" stroke-width="1.51"/><path d="M2368,-63L1930,-126L2241,176Z" fill="#cc645a" stroke="#cc645a" stroke-width="1.51"/><path d="M1709,70L1512,-107L1501,134Z" fill="#e66346" stroke="#e66346" stroke-width="1.51"/><path d="M2968,448L2902,33L2695,381Z" fill="#c0786a" stroke="#c0786a" stroke-width="1.51"/><path d="M2546,70L2481,-180L2368,-63Z" fill="#bf6562" stroke="#bf6562" stroke-width="1.51"/><path d="M3123,836L3167,498L2987,644Z" fill="#c58b6e" stroke="#c58b6e" stroke-width="1.51"/><path d="M3443,644L3167,498L3123,836Z" fill="#c58e74" stroke="#c58e74" stroke-width="1.51"/><path d="M1198,1150L1200,1364L1287,1190Z" fill="#c88158" stroke="#c88158" stroke-width="1.51"/><path d="M1218,682L1097,791L1231,940Z" fill="#ee7f39" stroke="#ee7f39" stroke-width="1.51"/><path d="M1198,1150L867,1260L1200,1364Z" fill="#c57e5b" stroke="#c57e5b" stroke-width="1.51"/><path d="M1127,302L1218,682L1322,547Z" fill="#fb792e" stroke="#fb792e" stroke-width="1.51"/><path d="M1200,1364L1308,1604L1556,1497Z" fill="#c48a6c" stroke="#c48a6c" stroke-width="1.51"/><path d="M2374,1835L2778,1994L2640,1643Z" fill="#7894ac" stroke="#7894ac" stroke-width="1.51"/><path d="M2275,2066L2394,2004L2374,1835Z" fill="#8696aa" stroke="#8696aa" stroke-width="1.51"/><path d="M2275,2066L2374,1835L2003,1890Z" fill="#9096a6" stroke="#9096a6" stroke-width="1.51"/><path d="M1930,-126L1721,-103L1709,70Z" fill="#dd634e" stroke="#dd634e" stroke-width="1.51"/><path d="M2957,1465L3172,1412L2858,1353Z" fill="#7d8c9b" stroke="#7d8c9b" stroke-width="1.51"/><path d="M3033,1653L3172,1412L2957,1465Z" fill="#7a91a5" stroke="#7a91a5" stroke-width="1.51"/><path d="M2778,1994L2771,1553L2640,1643Z" fill="#7892aa" stroke="#7892aa" stroke-width="1.51"/><path d="M2368,-63L1936,-209L1930,-126Z" fill="#d06457" stroke="#d06457" stroke-width="1.51"/><path d="M2765,-153L2546,70L2644,161Z" fill="#bb6868" stroke="#bb6868" stroke-width="1.51"/><path d="M3180,1164L3360,881L3123,836Z" fill="#a58d87" stroke="#a58d87" stroke-width="1.51"/><path d="M3172,1412L3279,1193L3180,1164Z" fill="#7f8b98" stroke="#7f8b98" stroke-width="1.51"/><path d="M3247,211L2902,33L2968,448Z" fill="#c07872" stroke="#c07872" stroke-width="1.51"/><path d="M1930,-126L1936,-209L1721,-103Z" fill="#d96350" stroke="#d96350" stroke-width="1.51"/><path d="M2296,-347L1936,-209L2368,-63Z" fill="#cb645b" stroke="#cb645b" stroke-width="1.51"/><path d="M1969,2251L2275,2066L2003,1890Z" fill="#9997a2" stroke="#9997a2" stroke-width="1.51"/><path d="M1652,1824L1789,2022L1846,1755Z" fill="#ae9795" stroke="#ae9795" stroke-width="1.51"/><path d="M1308,1604L1354,1749L1556,1497Z" fill="#c18e77" stroke="#c18e77" stroke-width="1.51"/><path d="M1171,1743L1354,1749L1308,1604Z" fill="#c8917a" stroke="#c8917a" stroke-width="1.51"/><path d="M1541,2057L1789,2022L1652,1824Z" fill="#b49794" stroke="#b49794" stroke-width="1.51"/><path d="M3382,1068L3360,881L3180,1164Z" fill="#9c8e8e" stroke="#9c8e8e" stroke-width="1.51"/><path d="M1097,791L990,914L1231,940Z" fill="#e67e40" stroke="#e67e40" stroke-width="1.51"/><path d="M1056,1622L1171,1743L1308,1604Z" fill="#c78e77" stroke="#c78e77" stroke-width="1.51"/><path d="M943,590L990,914L1097,791Z" fill="#f07b39" stroke="#f07b39" stroke-width="1.51"/><path d="M2902,33L2765,-153L2644,161Z" fill="#bc6a6c" stroke="#bc6a6c" stroke-width="1.51"/><path d="M3247,211L2933,-2L2902,33Z" fill="#bd7175" stroke="#bd7175" stroke-width="1.51"/><path d="M3259,283L2968,448L3167,498Z" fill="#c48273" stroke="#c48273" stroke-width="1.51"/><path d="M1501,134L1342,47L1451,418Z" fill="#ef6b3d" stroke="#ef6b3d" stroke-width="1.51"/><path d="M1512,-107L1342,47L1501,134Z" fill="#eb6242" stroke="#eb6242" stroke-width="1.51"/><path d="M1512,-107L1709,70L1721,-103Z" fill="#e26149" stroke="#e26149" stroke-width="1.51"/><path d="M1342,47L1127,302L1451,418Z" fill="#f56d37" stroke="#f56d37" stroke-width="1.51"/><path d="M3279,1193L3382,1068L3180,1164Z" fill="#8f8d94" stroke="#8f8d94" stroke-width="1.51"/><path d="M3378,1228L3382,1068L3279,1193Z" fill="#8b8e97" stroke="#8b8e97" stroke-width="1.51"/><path d="M3378,1228L3279,1193L3338,1444Z" fill="#7c8e9f" stroke="#7c8e9f" stroke-width="1.51"/><path d="M1461,-210L1512,-107L1721,-103Z" fill="#e66146" stroke="#e66146" stroke-width="1.51"/><path d="M2933,-2L2765,-153L2902,33Z" fill="#bb6b70" stroke="#bb6b70" stroke-width="1.51"/><path d="M2540,2154L2778,1994L2394,2004Z" fill="#7596b1" stroke="#7596b1" stroke-width="1.51"/><path d="M2394,2004L2778,1994L2374,1835Z" fill="#7996af" stroke="#7996af" stroke-width="1.51"/><path d="M3338,1444L3172,1412L3033,1653Z" fill="#7892a9" stroke="#7892a9" stroke-width="1.51"/><path d="M3338,1444L3279,1193L3172,1412Z" fill="#7b8fa1" stroke="#7b8fa1" stroke-width="1.51"/><path d="M3375,344L3259,283L3167,498Z" fill="#c38378" stroke="#c38378" stroke-width="1.51"/><path d="M2818,-290L2576,-389L2765,-153Z" fill="#bb686b" stroke="#bb686b" stroke-width="1.51"/><path d="M2481,-180L2296,-347L2368,-63Z" fill="#c36560" stroke="#c36560" stroke-width="1.51"/><path d="M1727,-353L1461,-210L1721,-103Z" fill="#e36149" stroke="#e36149" stroke-width="1.51"/><path d="M2576,-389L2296,-347L2481,-180Z" fill="#bf6562" stroke="#bf6562" stroke-width="1.51"/><path d="M1127,302L943,590L1218,682Z" fill="#fa7730" stroke="#fa7730" stroke-width="1.51"/><path d="M3445,1744L3338,1444L3033,1653Z" fill="#7398b5" stroke="#7398b5" stroke-width="1.51"/><path d="M3259,283L3247,211L2968,448Z" fill="#c27e75" stroke="#c27e75" stroke-width="1.51"/><path d="M3375,344L3247,211L3259,283Z" fill="#c17f7b" stroke="#c17f7b" stroke-width="1.51"/><path d="M2275,2066L2540,2154L2394,2004Z" fill="#8296ac" stroke="#8296ac" stroke-width="1.51"/><path d="M2337,2289L2540,2154L2275,2066Z" fill="#8496ab" stroke="#8496ab" stroke-width="1.51"/><path d="M3360,881L3443,644L3123,836Z" fill="#b88f7e" stroke="#b88f7e" stroke-width="1.51"/><path d="M3721,851L3443,644L3360,881Z" fill="#b79286" stroke="#b79286" stroke-width="1.51"/><path d="M3554,299L3443,644L3689,548Z" fill="#c68d81" stroke="#c68d81" stroke-width="1.51"/><path d="M1056,1622L1308,1604L1200,1364Z" fill="#c6896e" stroke="#c6896e" stroke-width="1.51"/><path d="M1298,1896L1541,2057L1652,1824Z" fill="#bd988f" stroke="#bd988f" stroke-width="1.51"/><path d="M1789,2022L1969,2251L2003,1890Z" fill="#a4979c" stroke="#a4979c" stroke-width="1.51"/><path d="M1298,1896L1652,1824L1354,1749Z" fill="#c09588" stroke="#c09588" stroke-width="1.51"/><path d="M2940,2051L3171,1849L3033,1653Z" fill="#6e9cbf" stroke="#6e9cbf" stroke-width="1.51"/><path d="M2540,2154L2729,2107L2778,1994Z" fill="#7398b5" stroke="#7398b5" stroke-width="1.51"/><path d="M1171,1743L1298,1896L1354,1749Z" fill="#c89481" stroke="#c89481" stroke-width="1.51"/><path d="M1171,1743L1043,1891L1298,1896Z" fill="#c79385" stroke="#c79385" stroke-width="1.51"/><path d="M981,1596L1056,1622L1200,1364Z" fill="#c6876f" stroke="#c6876f" stroke-width="1.51"/><path d="M867,1260L1198,1150L990,914Z" fill="#d27d52" stroke="#d27d52" stroke-width="1.51"/><path d="M3443,644L3375,344L3167,498Z" fill="#c58978" stroke="#c58978" stroke-width="1.51"/><path d="M1512,-107L1298,-169L1342,47Z" fill="#ed6040" stroke="#ed6040" stroke-width="1.51"/><path d="M1342,47L1026,144L1127,302Z" fill="#f4653a" stroke="#f4653a" stroke-width="1.51"/><path d="M1727,-353L1721,-103L1936,-209Z" fill="#dc634e" stroke="#dc634e" stroke-width="1.51"/><path d="M2296,-347L1727,-353L1936,-209Z" fill="#d46454" stroke="#d46454" stroke-width="1.51"/><path d="M1737,2245L1969,2251L1789,2022Z" fill="#a9979a" stroke="#a9979a" stroke-width="1.51"/><path d="M790,1174L867,1260L990,914Z" fill="#d07954" stroke="#d07954" stroke-width="1.51"/><path d="M2296,-347L2576,-389L1727,-353Z" fill="#cb645b" stroke="#cb645b" stroke-width="1.51"/><path d="M2765,-153L2576,-389L2481,-180Z" fill="#ba6767" stroke="#ba6767" stroke-width="1.51"/><path d="M2818,-290L2765,-153L2933,-2Z" fill="#bb6b6f" stroke="#bb6b6f" stroke-width="1.51"/><path d="M2886,-369L2818,-290L3131,-241Z" fill="#bb6c73" stroke="#bb6c73" stroke-width="1.51"/><path d="M3188,-30L2933,-2L3247,211Z" fill="#bd7278" stroke="#bd7278" stroke-width="1.51"/><path d="M2940,2051L3033,1653L2778,1994Z" fill="#6f9bbe" stroke="#6f9bbe" stroke-width="1.51"/><path d="M2729,2107L2940,2051L2778,1994Z" fill="#719aba" stroke="#719aba" stroke-width="1.51"/><path d="M1056,1622L1043,1891L1171,1743Z" fill="#c78f7f" stroke="#c78f7f" stroke-width="1.51"/><path d="M867,1260L981,1596L1200,1364Z" fill="#c48267" stroke="#c48267" stroke-width="1.51"/><path d="M3369,-131L3188,-30L3247,211Z" fill="#bd737e" stroke="#bd737e" stroke-width="1.51"/><path d="M1127,302L881,243L943,590Z" fill="#f66c36" stroke="#f66c36" stroke-width="1.51"/><path d="M1103,-131L1026,144L1342,47Z" fill="#f15d3e" stroke="#f15d3e" stroke-width="1.51"/><path d="M2540,2154L2960,2150L2729,2107Z" fill="#7299b7" stroke="#7299b7" stroke-width="1.51"/><path d="M2729,2107L2960,2150L2940,2051Z" fill="#709bbc" stroke="#709bbc" stroke-width="1.51"/><path d="M1969,2251L2337,2289L2275,2066Z" fill="#9196a5" stroke="#9196a5" stroke-width="1.51"/><path d="M1461,-210L1298,-169L1512,-107Z" fill="#ec6042" stroke="#ec6042" stroke-width="1.51"/><path d="M1368,-229L1298,-169L1461,-210Z" fill="#ee6040" stroke="#ee6040" stroke-width="1.51"/><path d="M1727,-353L1368,-229L1461,-210Z" fill="#e86145" stroke="#e86145" stroke-width="1.51"/><path d="M1969,2251L1501,2321L2337,2289Z" fill="#a3979d" stroke="#a3979d" stroke-width="1.51"/><path d="M1541,2057L1737,2245L1789,2022Z" fill="#b29795" stroke="#b29795" stroke-width="1.51"/><path d="M1501,2321L1737,2245L1541,2057Z" fill="#b79892" stroke="#b79892" stroke-width="1.51"/><path d="M595,1574L921,1675L981,1596Z" fill="#c48577" stroke="#c48577" stroke-width="1.51"/><path d="M609,1123L790,1174L565,842Z" fill="#d47451" stroke="#d47451" stroke-width="1.51"/><path d="M790,1174L990,914L565,842Z" fill="#dc774b" stroke="#dc774b" stroke-width="1.51"/><path d="M1026,144L881,243L1127,302Z" fill="#f3653a" stroke="#f3653a" stroke-width="1.51"/><path d="M826,-131L881,243L1026,144Z" fill="#f05940" stroke="#f05940" stroke-width="1.51"/><path d="M2337,2289L2960,2150L2540,2154Z" fill="#7497b2" stroke="#7497b2" stroke-width="1.51"/><path d="M2940,2051L3236,2001L3171,1849Z" fill="#6a9fc5" stroke="#6a9fc5" stroke-width="1.51"/><path d="M2818,-290L2886,-369L2576,-389Z" fill="#bb696d" stroke="#bb696d" stroke-width="1.51"/><path d="M3131,-241L2818,-290L2933,-2Z" fill="#bc6d73" stroke="#bc6d73" stroke-width="1.51"/><path d="M981,1596L921,1675L1056,1622Z" fill="#c58977" stroke="#c58977" stroke-width="1.51"/><path d="M1298,1896L1273,2185L1541,2057Z" fill="#c3988b" stroke="#c3988b" stroke-width="1.51"/><path d="M718,1312L981,1596L867,1260Z" fill="#c37d67" stroke="#c37d67" stroke-width="1.51"/><path d="M921,1675L1043,1891L1056,1622Z" fill="#c58c7e" stroke="#c58c7e" stroke-width="1.51"/><path d="M1048,-246L1103,-131L1298,-169Z" fill="#f05b3f" stroke="#f05b3f" stroke-width="1.51"/><path d="M1298,-169L1103,-131L1342,47Z" fill="#f15e3d" stroke="#f15e3d" stroke-width="1.51"/><path d="M3369,-131L3131,-241L3188,-30Z" fill="#bc727d" stroke="#bc727d" stroke-width="1.51"/><path d="M3188,-30L3131,-241L2933,-2Z" fill="#bc6f78" stroke="#bc6f78" stroke-width="1.51"/><path d="M734,372L793,330L590,183Z" fill="#f2603d" stroke="#f2603d" stroke-width="1.51"/><path d="M881,243L793,330L943,590Z" fill="#f56a38" stroke="#f56a38" stroke-width="1.51"/><path d="M3375,344L3512,196L3247,211Z" fill="#c17f7e" stroke="#c17f7e" stroke-width="1.51"/><path d="M3443,644L3554,299L3375,344Z" fill="#c5897e" stroke="#c5897e" stroke-width="1.51"/><path d="M3721,851L3360,881L3382,1068Z" fill="#a7918e" stroke="#a7918e" stroke-width="1.51"/><path d="M3721,851L3382,1068L3719,1145Z" fill="#9c9399" stroke="#9c9399" stroke-width="1.51"/><path d="M790,1174L718,1312L867,1260Z" fill="#c3785d" stroke="#c3785d" stroke-width="1.51"/><path d="M609,1123L718,1312L790,1174Z" fill="#c7765b" stroke="#c7765b" stroke-width="1.51"/><path d="M3554,299L3512,196L3375,344Z" fill="#c18282" stroke="#c18282" stroke-width="1.51"/><path d="M3742,1281L3719,1145L3378,1228Z" fill="#8192a4" stroke="#8192a4" stroke-width="1.51"/><path d="M3171,1849L3445,1744L3033,1653Z" fill="#6f9bbd" stroke="#6f9bbd" stroke-width="1.51"/><path d="M3236,2001L3445,1744L3171,1849Z" fill="#68a0c8" stroke="#68a0c8" stroke-width="1.51"/><path d="M2960,2150L3236,2001L2940,2051Z" fill="#6c9ec3" stroke="#6c9ec3" stroke-width="1.51"/><path d="M793,330L734,372L943,590Z" fill="#f66b37" stroke="#f66b37" stroke-width="1.51"/><path d="M590,183L793,330L881,243Z" fill="#f25f3d" stroke="#f25f3d" stroke-width="1.51"/><path d="M3719,1145L3382,1068L3378,1228Z" fill="#8c909b" stroke="#8c909b" stroke-width="1.51"/><path d="M3721,851L3689,548L3443,644Z" fill="#c39484" stroke="#c39484" stroke-width="1.51"/><path d="M3554,299L3637,158L3512,196Z" fill="#c18186" stroke="#c18186" stroke-width="1.51"/><path d="M1043,1891L1273,2185L1298,1896Z" fill="#c89689" stroke="#c89689" stroke-width="1.51"/><path d="M3742,1281L3378,1228L3739,1436Z" fill="#7894ab" stroke="#7894ab" stroke-width="1.51"/><path d="M1273,2185L1501,2321L1541,2057Z" fill="#c0988e" stroke="#c0988e" stroke-width="1.51"/><path d="M1737,2245L1501,2321L1969,2251Z" fill="#af9897" stroke="#af9897" stroke-width="1.51"/><path d="M747,1841L808,1873L921,1675Z" fill="#c48a85" stroke="#c48a85" stroke-width="1.51"/><path d="M921,1675L808,1873L1043,1891Z" fill="#c58d85" stroke="#c58d85" stroke-width="1.51"/><path d="M565,842L990,914L943,590Z" fill="#ed773c" stroke="#ed773c" stroke-width="1.51"/><path d="M3572,-6L3369,-131L3512,196Z" fill="#bd7686" stroke="#bd7686" stroke-width="1.51"/><path d="M3512,196L3369,-131L3247,211Z" fill="#be7881" stroke="#be7881" stroke-width="1.51"/><path d="M3131,-241L3472,-317L2886,-369Z" fill="#bc707b" stroke="#bc707b" stroke-width="1.51"/><path d="M3445,1744L3556,1722L3338,1444Z" fill="#6f9bbd" stroke="#6f9bbd" stroke-width="1.51"/><path d="M3457,2019L3556,1722L3445,1744Z" fill="#64a2ce" stroke="#64a2ce" stroke-width="1.51"/><path d="M3719,1145L3878,1072L3721,851Z" fill="#9b969f" stroke="#9b969f" stroke-width="1.51"/><path d="M3739,1436L3378,1228L3338,1444Z" fill="#7893ab" stroke="#7893ab" stroke-width="1.51"/><path d="M570,519L565,842L943,590Z" fill="#f77234" stroke="#f77234" stroke-width="1.51"/><path d="M1368,-229L1048,-246L1298,-169Z" fill="#f15e3d" stroke="#f15e3d" stroke-width="1.51"/><path d="M1103,-131L826,-131L1026,144Z" fill="#ef5741" stroke="#ef5741" stroke-width="1.51"/><path d="M932,-284L1048,-246L1368,-229Z" fill="#f05b3f" stroke="#f05b3f" stroke-width="1.51"/><path d="M3784,118L3637,158L3554,299Z" fill="#c0818a" stroke="#c0818a" stroke-width="1.51"/><path d="M3556,1722L3739,1436L3338,1444Z" fill="#7199b9" stroke="#7199b9" stroke-width="1.51"/><path d="M446,437L570,519L734,372Z" fill="#f3653a" stroke="#f3653a" stroke-width="1.51"/><path d="M734,372L570,519L943,590Z" fill="#f66c36" stroke="#f66c36" stroke-width="1.51"/><path d="M1043,1891L1012,2194L1273,2185Z" fill="#c7948a" stroke="#c7948a" stroke-width="1.51"/><path d="M747,1841L921,1675L595,1574Z" fill="#c4867e" stroke="#c4867e" stroke-width="1.51"/><path d="M3637,158L3572,-6L3512,196Z" fill="#bf7c87" stroke="#bf7c87" stroke-width="1.51"/><path d="M3236,2001L3457,2019L3445,1744Z" fill="#63a3cf" stroke="#63a3cf" stroke-width="1.51"/><path d="M3556,1722L3814,1512L3739,1436Z" fill="#6d9dc1" stroke="#6d9dc1" stroke-width="1.51"/><path d="M2960,2150L3230,2232L3236,2001Z" fill="#6a9fc6" stroke="#6a9fc6" stroke-width="1.51"/><path d="M2337,2289L3230,2232L2960,2150Z" fill="#719abb" stroke="#719abb" stroke-width="1.51"/><path d="M3352,2270L3457,2019L3236,2001Z" fill="#64a3ce" stroke="#64a3ce" stroke-width="1.51"/><path d="M808,1873L1012,2194L1043,1891Z" fill="#c5918c" stroke="#c5918c" stroke-width="1.51"/><path d="M595,1574L981,1596L718,1312Z" fill="#c37f6f" stroke="#c37f6f" stroke-width="1.51"/><path d="M1048,-246L826,-131L1103,-131Z" fill="#ef5740" stroke="#ef5740" stroke-width="1.51"/><path d="M3956,1210L3878,1072L3719,1145Z" fill="#8a96a9" stroke="#8a96a9" stroke-width="1.51"/><path d="M3721,851L3974,561L3689,548Z" fill="#c69788" stroke="#c69788" stroke-width="1.51"/><path d="M3962,412L3784,118L3554,299Z" fill="#c2878c" stroke="#c2878c" stroke-width="1.51"/><path d="M3956,1210L3719,1145L3742,1281Z" fill="#7f95ab" stroke="#7f95ab" stroke-width="1.51"/><path d="M407,1400L718,1312L609,1123Z" fill="#c07461" stroke="#c07461" stroke-width="1.51"/><path d="M407,1400L595,1574L718,1312Z" fill="#c1786c" stroke="#c1786c" stroke-width="1.51"/><path d="M1727,-353L932,-284L1368,-229Z" fill="#ef5f3f" stroke="#ef5f3f" stroke-width="1.51"/><path d="M1048,-246L932,-284L826,-131Z" fill="#ee5541" stroke="#ee5541" stroke-width="1.51"/><path d="M1273,2185L946,2269L1501,2321Z" fill="#c89789" stroke="#c89789" stroke-width="1.51"/><path d="M946,2269L1012,2194L686,1981Z" fill="#c58f8c" stroke="#c58f8c" stroke-width="1.51"/><path d="M3739,1436L3956,1210L3742,1281Z" fill="#7497b2" stroke="#7497b2" stroke-width="1.51"/><path d="M3961,1745L3814,1512L3556,1722Z" fill="#66a2cc" stroke="#66a2cc" stroke-width="1.51"/><path d="M766,-137L881,243L826,-131Z" fill="#ed5243" stroke="#ed5243" stroke-width="1.51"/><path d="M766,-137L590,183L881,243Z" fill="#ef5541" stroke="#ef5541" stroke-width="1.51"/><path d="M727,-261L766,-137L826,-131Z" fill="#ed5043" stroke="#ed5043" stroke-width="1.51"/><path d="M565,842L428,1147L609,1123Z" fill="#d47152" stroke="#d47152" stroke-width="1.51"/><path d="M257,934L428,1147L565,842Z" fill="#d86e4f" stroke="#d86e4f" stroke-width="1.51"/><path d="M382,769L565,842L570,519Z" fill="#f06e3c" stroke="#f06e3c" stroke-width="1.51"/><path d="M3457,2019L3541,2048L3556,1722Z" fill="#5fa5d4" stroke="#5fa5d4" stroke-width="1.51"/><path d="M3352,2270L3541,2048L3457,2019Z" fill="#61a4d2" stroke="#61a4d2" stroke-width="1.51"/><path d="M3660,-372L3472,-317L3572,-6Z" fill="#bc7789" stroke="#bc7789" stroke-width="1.51"/><path d="M3572,-6L3472,-317L3369,-131Z" fill="#bc7686" stroke="#bc7686" stroke-width="1.51"/><path d="M3369,-131L3472,-317L3131,-241Z" fill="#bc7380" stroke="#bc7380" stroke-width="1.51"/><path d="M3878,1072L3969,893L3721,851Z" fill="#a5979c" stroke="#a5979c" stroke-width="1.51"/><path d="M3637,158L3784,118L3572,-6Z" fill="#be7d8b" stroke="#be7d8b" stroke-width="1.51"/><path d="M4029,1097L3969,893L3878,1072Z" fill="#9a97a1" stroke="#9a97a1" stroke-width="1.51"/><path d="M3962,412L3554,299L3689,548Z" fill="#c48d89" stroke="#c48d89" stroke-width="1.51"/><path d="M590,183L446,437L734,372Z" fill="#f25f3d" stroke="#f25f3d" stroke-width="1.51"/><path d="M393,508L446,437L178,480Z" fill="#f2603c" stroke="#f2603c" stroke-width="1.51"/><path d="M3230,2232L3352,2270L3236,2001Z" fill="#66a1cb" stroke="#66a1cb" stroke-width="1.51"/><path d="M2337,2289L3352,2270L3230,2232Z" fill="#6e9cc0" stroke="#6e9cc0" stroke-width="1.51"/><path d="M1501,2321L3352,2270L2337,2289Z" fill="#8396ab" stroke="#8396ab" stroke-width="1.51"/><path d="M393,508L382,769L570,519Z" fill="#f56938" stroke="#f56938" stroke-width="1.51"/><path d="M3814,1512L3956,1210L3739,1436Z" fill="#719ab9" stroke="#719ab9" stroke-width="1.51"/><path d="M446,437L393,508L570,519Z" fill="#f3643b" stroke="#f3643b" stroke-width="1.51"/><path d="M310,221L446,437L590,183Z" fill="#ef5841" stroke="#ef5841" stroke-width="1.51"/><path d="M686,1981L808,1873L747,1841Z" fill="#c48c8d" stroke="#c48c8d" stroke-width="1.51"/><path d="M686,1981L1012,2194L808,1873Z" fill="#c48e8c" stroke="#c48e8c" stroke-width="1.51"/><path d="M1012,2194L946,2269L1273,2185Z" fill="#c6948a" stroke="#c6948a" stroke-width="1.51"/><path d="M4013,828L3974,561L3721,851Z" fill="#bc9890" stroke="#bc9890" stroke-width="1.51"/><path d="M377,1792L686,1981L747,1841Z" fill="#c2888c" stroke="#c2888c" stroke-width="1.51"/><path d="M377,1792L747,1841L595,1574Z" fill="#c28383" stroke="#c28383" stroke-width="1.51"/><path d="M428,1147L407,1400L609,1123Z" fill="#c3705f" stroke="#c3705f" stroke-width="1.51"/><path d="M387,1416L407,1400L178,1209Z" fill="#be7068" stroke="#be7068" stroke-width="1.51"/><path d="M3969,893L4013,828L3721,851Z" fill="#af9897" stroke="#af9897" stroke-width="1.51"/><path d="M4029,1097L4013,828L3969,893Z" fill="#a5979c" stroke="#a5979c" stroke-width="1.51"/><path d="M4068,494L3962,412L3974,561Z" fill="#c6928b" stroke="#c6928b" stroke-width="1.51"/><path d="M3974,561L3962,412L3689,548Z" fill="#c6928b" stroke="#c6928b" stroke-width="1.51"/><path d="M407,1400L387,1416L595,1574Z" fill="#c0776f" stroke="#c0776f" stroke-width="1.51"/><path d="M178,1209L407,1400L428,1147Z" fill="#bf6d61" stroke="#bf6d61" stroke-width="1.51"/><path d="M3956,1210L4029,1097L3878,1072Z" fill="#8c96a8" stroke="#8c96a8" stroke-width="1.51"/><path d="M4080,1264L4029,1097L3956,1210Z" fill="#8296ac" stroke="#8296ac" stroke-width="1.51"/><path d="M4080,1264L3956,1210L3814,1512Z" fill="#7398b5" stroke="#7398b5" stroke-width="1.51"/><path d="M766,-137L524,-125L590,183Z" fill="#eb4b45" stroke="#eb4b45" stroke-width="1.51"/><path d="M932,-284L727,-261L826,-131Z" fill="#ed5243" stroke="#ed5243" stroke-width="1.51"/><path d="M155,594L257,934L382,769Z" fill="#e96843" stroke="#e96843" stroke-width="1.51"/><path d="M382,769L257,934L565,842Z" fill="#e36c47" stroke="#e36c47" stroke-width="1.51"/><path d="M3784,118L3797,-144L3572,-6Z" fill="#bc7a8f" stroke="#bc7a8f" stroke-width="1.51"/><path d="M4024,-59L3797,-144L3784,118Z" fill="#bc7c93" stroke="#bc7c93" stroke-width="1.51"/><path d="M4029,1097L4080,1264L4013,828Z" fill="#9597a4" stroke="#9597a4" stroke-width="1.51"/><path d="M4013,828L4068,494L3974,561Z" fill="#c89889" stroke="#c89889" stroke-width="1.51"/><path d="M4222,1559L4080,1264L3814,1512Z" fill="#6f9cbe" stroke="#6f9cbe" stroke-width="1.51"/><path d="M3962,412L4089,96L3784,118Z" fill="#c08590" stroke="#c08590" stroke-width="1.51"/><path d="M4080,1264L4068,494L4013,828Z" fill="#af9897" stroke="#af9897" stroke-width="1.51"/><path d="M727,-261L524,-125L766,-137Z" fill="#ec4d44" stroke="#ec4d44" stroke-width="1.51"/><path d="M393,508L155,594L382,769Z" fill="#f46739" stroke="#f46739" stroke-width="1.51"/><path d="M3797,-144L3660,-372L3572,-6Z" fill="#bc798d" stroke="#bc798d" stroke-width="1.51"/><path d="M3472,-317L3660,-372L2886,-369Z" fill="#bc7381" stroke="#bc7381" stroke-width="1.51"/><path d="M2886,-369L3958,-416L2576,-389Z" fill="#bc707a" stroke="#bc707a" stroke-width="1.51"/><path d="M3924,2036L3961,1745L3556,1722Z" fill="#59a8db" stroke="#59a8db" stroke-width="1.51"/><path d="M3924,2036L3556,1722L3541,2048Z" fill="#59a8da" stroke="#59a8da" stroke-width="1.51"/><path d="M4068,494L4094,410L3962,412Z" fill="#c58f8c" stroke="#c58f8c" stroke-width="1.51"/><path d="M4222,1559L4094,410L4068,494Z" fill="#b49794" stroke="#b49794" stroke-width="1.51"/><path d="M524,-125L310,221L590,183Z" fill="#ec4d44" stroke="#ec4d44" stroke-width="1.51"/><path d="M686,1981L611,2323L946,2269Z" fill="#c48c8d" stroke="#c48c8d" stroke-width="1.51"/><path d="M387,1416L377,1792L595,1574Z" fill="#c07b79" stroke="#c07b79" stroke-width="1.51"/><path d="M290,1761L377,1792L387,1416Z" fill="#c07b7f" stroke="#c07b7f" stroke-width="1.51"/><path d="M257,934L163,1050L428,1147Z" fill="#d16b55" stroke="#d16b55" stroke-width="1.51"/><path d="M-83,879L163,1050L257,934Z" fill="#d76651" stroke="#d76651" stroke-width="1.51"/><path d="M163,1050L178,1209L428,1147Z" fill="#c96b5b" stroke="#c96b5b" stroke-width="1.51"/><path d="M297,-330L727,-261L932,-284Z" fill="#ec4c44" stroke="#ec4c44" stroke-width="1.51"/><path d="M297,-330L527,-265L727,-261Z" fill="#ea4846" stroke="#ea4846" stroke-width="1.51"/><path d="M727,-261L527,-265L524,-125Z" fill="#eb4a45" stroke="#eb4a45" stroke-width="1.51"/><path d="M143,-85L191,165L310,221Z" fill="#e94547" stroke="#e94547" stroke-width="1.51"/><path d="M3352,2270L3740,2205L3541,2048Z" fill="#5ea6d5" stroke="#5ea6d5" stroke-width="1.51"/><path d="M191,165L178,480L310,221Z" fill="#ed5142" stroke="#ed5142" stroke-width="1.51"/><path d="M310,221L178,480L446,437Z" fill="#f0593f" stroke="#f0593f" stroke-width="1.51"/><path d="M377,1792L454,2018L686,1981Z" fill="#c1878f" stroke="#c1878f" stroke-width="1.51"/><path d="M155,1953L454,2018L377,1792Z" fill="#c08391" stroke="#c08391" stroke-width="1.51"/><path d="M178,480L155,594L393,508Z" fill="#f2603c" stroke="#f2603c" stroke-width="1.51"/><path d="M124,1541L290,1761L387,1416Z" fill="#be7779" stroke="#be7779" stroke-width="1.51"/><path d="M3740,2205L3924,2036L3541,2048Z" fill="#57a9dd" stroke="#57a9dd" stroke-width="1.51"/><path d="M3961,1745L4222,1559L3814,1512Z" fill="#67a1ca" stroke="#67a1ca" stroke-width="1.51"/><path d="M3797,-144L3958,-416L3660,-372Z" fill="#bc7b92" stroke="#bc7b92" stroke-width="1.51"/><path d="M4094,410L4089,96L3962,412Z" fill="#c28a8e" stroke="#c28a8e" stroke-width="1.51"/><path d="M4089,96L4024,-59L3784,118Z" fill="#bd7e92" stroke="#bd7e92" stroke-width="1.51"/><path d="M3740,2205L3819,2219L3924,2036Z" fill="#54abe0" stroke="#54abe0" stroke-width="1.51"/><path d="M3352,2270L3819,2219L3740,2205Z" fill="#5ba7d9" stroke="#5ba7d9" stroke-width="1.51"/><path d="M468,2187L686,1981L454,2018Z" fill="#c2888f" stroke="#c2888f" stroke-width="1.51"/><path d="M468,2187L611,2323L686,1981Z" fill="#c2898e" stroke="#c2898e" stroke-width="1.51"/><path d="M946,2269L611,2323L1501,2321Z" fill="#c6928b" stroke="#c6928b" stroke-width="1.51"/><path d="M143,-85L310,221L524,-125Z" fill="#e94248" stroke="#e94248" stroke-width="1.51"/><path d="M178,480L31,530L155,594Z" fill="#f15d3e" stroke="#f15d3e" stroke-width="1.51"/><path d="M4050,2254L4015,1989L3924,2036Z" fill="#53abe1" stroke="#53abe1" stroke-width="1.51"/><path d="M3924,2036L4015,1989L3961,1745Z" fill="#53abe1" stroke="#53abe1" stroke-width="1.51"/><path d="M121,2195L468,2187L454,2018Z" fill="#c08491" stroke="#c08491" stroke-width="1.51"/><path d="M4080,1264L4222,1559L4068,494Z" fill="#8f96a6" stroke="#8f96a6" stroke-width="1.51"/><path d="M4094,410L4183,-246L4089,96Z" fill="#be8092" stroke="#be8092" stroke-width="1.51"/><path d="M4162,1790L4222,1559L3961,1745Z" fill="#61a4d1" stroke="#61a4d1" stroke-width="1.51"/><path d="M178,1209L124,1541L387,1416Z" fill="#bd6f6c" stroke="#bd6f6c" stroke-width="1.51"/><path d="M290,1761L155,1953L377,1792Z" fill="#bf808c" stroke="#bf808c" stroke-width="1.51"/><path d="M-63,1394L124,1541L178,1209Z" fill="#bc6b6d" stroke="#bc6b6d" stroke-width="1.51"/><path d="M-61,1146L178,1209L163,1050Z" fill="#c7675d" stroke="#c7675d" stroke-width="1.51"/><path d="M4015,1989L4162,1790L3961,1745Z" fill="#58a9dc" stroke="#58a9dc" stroke-width="1.51"/><path d="M155,594L-83,879L257,934Z" fill="#e46447" stroke="#e46447" stroke-width="1.51"/><path d="M-94,285L31,530L178,480Z" fill="#ee5441" stroke="#ee5441" stroke-width="1.51"/><path d="M4183,-246L3958,-416L4024,-59Z" fill="#bc7c93" stroke="#bc7c93" stroke-width="1.51"/><path d="M4024,-59L3958,-416L3797,-144Z" fill="#bc7c93" stroke="#bc7c93" stroke-width="1.51"/><path d="M3660,-372L3958,-416L2886,-369Z" fill="#bc7687" stroke="#bc7687" stroke-width="1.51"/><path d="M-83,879L-61,1146L163,1050Z" fill="#d06457" stroke="#d06457" stroke-width="1.51"/><path d="M191,165L-94,285L178,480Z" fill="#ec4e43" stroke="#ec4e43" stroke-width="1.51"/><path d="M527,-265L297,-330L524,-125Z" fill="#ea4647" stroke="#ea4647" stroke-width="1.51"/><path d="M1727,-353L297,-330L932,-284Z" fill="#ef5741" stroke="#ef5741" stroke-width="1.51"/><path d="M-220,-353L297,-330L1727,-353Z" fill="#eb4b45" stroke="#eb4b45" stroke-width="1.51"/><path d="M-63,1394L37,1633L124,1541Z" fill="#bc7077" stroke="#bc7077" stroke-width="1.51"/><path d="M124,1541L37,1633L290,1761Z" fill="#be777f" stroke="#be777f" stroke-width="1.51"/><path d="M31,530L-83,879L155,594Z" fill="#ef613f" stroke="#ef613f" stroke-width="1.51"/><path d="M-181,683L-83,879L31,530Z" fill="#ec6041" stroke="#ec6041" stroke-width="1.51"/><path d="M297,-330L143,-85L524,-125Z" fill="#e84148" stroke="#e84148" stroke-width="1.51"/><path d="M12,1815L155,1953L290,1761Z" fill="#be7d8e" stroke="#be7d8e" stroke-width="1.51"/><path d="M468,2187L121,2195L611,2323Z" fill="#c08590" stroke="#c08590" stroke-width="1.51"/><path d="M-61,1146L-63,1394L178,1209Z" fill="#bc6664" stroke="#bc6664" stroke-width="1.51"/><path d="M37,1633L12,1815L290,1761Z" fill="#bd7986" stroke="#bd7986" stroke-width="1.51"/><path d="M-236,1456L-63,1394L-289,1363Z" fill="#bb6b6f" stroke="#bb6b6f" stroke-width="1.51"/><path d="M4015,1989L4050,2254L4162,1790Z" fill="#53abe1" stroke="#53abe1" stroke-width="1.51"/><path d="M4162,1790L4050,2254L4222,1559Z" fill="#56aade" stroke="#56aade" stroke-width="1.51"/><path d="M3819,2219L4050,2254L3924,2036Z" fill="#53abe1" stroke="#53abe1" stroke-width="1.51"/><path d="M3352,2270L4050,2254L3819,2219Z" fill="#57a9dd" stroke="#57a9dd" stroke-width="1.51"/><path d="M1501,2321L4050,2254L3352,2270Z" fill="#6e9cc0" stroke="#6e9cc0" stroke-width="1.51"/><path d="M4089,96L4183,-246L4024,-59Z" fill="#bc7c93" stroke="#bc7c93" stroke-width="1.51"/><path d="M4222,1559L4183,-246L4094,410Z" fill="#c7958a" stroke="#c7958a" stroke-width="1.51"/><path d="M-86,1876L12,1815L-217,1739Z" fill="#bc798d" stroke="#bc798d" stroke-width="1.51"/><path d="M-125,127L191,165L143,-85Z" fill="#e73e49" stroke="#e73e49" stroke-width="1.51"/><path d="M-125,127L-94,285L191,165Z" fill="#e94347" stroke="#e94347" stroke-width="1.51"/><path d="M-292,370L-181,683L31,530Z" fill="#ef5940" stroke="#ef5940" stroke-width="1.51"/><path d="M-331,1101L-289,1363L-61,1146Z" fill="#c06661" stroke="#c06661" stroke-width="1.51"/><path d="M-3,2213L121,2195L155,1953Z" fill="#bd7e92" stroke="#bd7e92" stroke-width="1.51"/><path d="M155,1953L121,2195L454,2018Z" fill="#bf8191" stroke="#bf8191" stroke-width="1.51"/><path d="M-123,-11L-125,127L143,-85Z" fill="#e5364b" stroke="#e5364b" stroke-width="1.51"/><path d="M-292,370L-260,719L-181,683Z" fill="#f15d3e" stroke="#f15d3e" stroke-width="1.51"/><path d="M-292,370L31,530L-94,285Z" fill="#ed5142" stroke="#ed5142" stroke-width="1.51"/><path d="M-181,683L-260,719L-83,879Z" fill="#e76146" stroke="#e76146" stroke-width="1.51"/><path d="M-217,1739L12,1815L37,1633Z" fill="#bc7687" stroke="#bc7687" stroke-width="1.51"/><path d="M12,1815L-86,1876L155,1953Z" fill="#bd7c91" stroke="#bd7c91" stroke-width="1.51"/><path d="M-236,1456L37,1633L-63,1394Z" fill="#bc6e76" stroke="#bc6e76" stroke-width="1.51"/><path d="M-289,1363L-63,1394L-61,1146Z" fill="#bb6768" stroke="#bb6768" stroke-width="1.51"/><path d="M-125,127L-292,370L-94,285Z" fill="#ea4946" stroke="#ea4946" stroke-width="1.51"/><path d="M-151,-324L-123,-11L143,-85Z" fill="#e5354b" stroke="#e5354b" stroke-width="1.51"/><path d="M-236,1456L-217,1739L37,1633Z" fill="#bc717e" stroke="#bc717e" stroke-width="1.51"/><path d="M-331,1101L-61,1146L-83,879Z" fill="#cf6458" stroke="#cf6458" stroke-width="1.51"/><path d="M-260,719L-331,1101L-83,879Z" fill="#db634e" stroke="#db634e" stroke-width="1.51"/><path d="M-260,719L-292,370L-331,1101Z" fill="#ea6143" stroke="#ea6143" stroke-width="1.51"/><path d="M-348,104L-292,370L-125,127Z" fill="#e94447" stroke="#e94447" stroke-width="1.51"/><path d="M-86,1876L-3,2213L155,1953Z" fill="#bc7c93" stroke="#bc7c93" stroke-width="1.51"/><path d="M-289,1363L-217,1739L-236,1456Z" fill="#bc6e77" stroke="#bc6e77" stroke-width="1.51"/><path d="M-358,2148L-3,2213L-86,1876Z" fill="#bc7c93" stroke="#bc7c93" stroke-width="1.51"/><path d="M121,2195L-3,2213L611,2323Z" fill="#bf8191" stroke="#bf8191" stroke-width="1.51"/><path d="M-123,-11L-348,104L-125,127Z" fill="#e73b4a" stroke="#e73b4a" stroke-width="1.51"/><path d="M297,-330L-151,-324L143,-85Z" fill="#e6394a" stroke="#e6394a" stroke-width="1.51"/><path d="M-220,-353L-151,-324L297,-330Z" fill="#e5354b" stroke="#e5354b" stroke-width="1.51"/><path d="M-292,370L-348,104L-331,1101Z" fill="#ef5940" stroke="#ef5940" stroke-width="1.51"/><path d="M-343,-148L-348,104L-123,-11Z" fill="#e5354b" stroke="#e5354b" stroke-width="1.51"/><path d="M-151,-324L-343,-148L-123,-11Z" fill="#e5354b" stroke="#e5354b" stroke-width="1.51"/><path d="M2576,-389L-220,-353L1727,-353Z" fill="#ee6040" stroke="#ee6040" stroke-width="1.51"/><path d="M3958,-416L-220,-353L2576,-389Z" fill="#cf6458" stroke="#cf6458" stroke-width="1.51"/><path d="M-220,-353L-343,-148L-151,-324Z" fill="#e5354b" stroke="#e5354b" stroke-width="1.51"/><path d="M-217,1739L-379,2028L-86,1876Z" fill="#bc7b92" stroke="#bc7b92" stroke-width="1.51"/><path d="M-289,1363L-379,2028L-217,1739Z" fill="#bc7585" stroke="#bc7585" stroke-width="1.51"/><path d="M-331,1101L-379,2028L-289,1363Z" fill="#bc6e76" stroke="#bc6e76" stroke-width="1.51"/><path d="M-348,104L-379,2028L-331,1101Z" fill="#cc645a" stroke="#cc645a" stroke-width="1.51"/><path d="M-379,2028L-358,2148L-86,1876Z" fill="#bc7c93" stroke="#bc7c93" stroke-width="1.51"/></svg>