<svg xmlns="http://www.w3.org/2000/svg" width="1440" height="900"><path d="M723,500L688,490L745,628Z" fill="#b29ea2" stroke="#b29ea2" stroke-width="1.51"/><path d="M688,490L569,681L745,628Z" fill="#aaa0ab" stroke="#aaa0ab" stroke-width="1.51"/><path d="M688,490L525,660L569,681Z" fill="#b79c9c" stroke="#b79c9c" stroke-width="1.51"/><path d="M688,490L422,457L525,660Z" fill="#ce9682" stroke="#ce9682" stroke-width="1.51"/><path d="M723,500L631,352L688,490Z" fill="#cf9781" stroke="#cf9781" stroke-width="1.51"/><path d="M631,352L422,457L688,490Z" fill="#de916a" stroke="#de916a" stroke-width="1.51"/><path d="M569,681L714,857L745,628Z" fill="#ab9799" stroke="#ab9799" stroke-width="1.51"/><path d="M658,926L714,857L569,681Z" fill="#b19084" stroke="#b19084" stroke-width="1.51"/><path d="M745,628L954,417L723,500Z" fill="#a9a0ac" stroke="#a9a0ac" stroke-width="1.51"/><path d="M723,500L869,289L631,352Z" fill="#d49478" stroke="#d49478" stroke-width="1.51"/><path d="M1042,543L954,417L745,628Z" fill="#8ca5c3" stroke="#8ca5c3" stroke-width="1.51"/><path d="M525,660L424,752L569,681Z" fill="#c4927e" stroke="#c4927e" stroke-width="1.51"/><path d="M338,606L424,752L525,660Z" fill="#c7907e" stroke="#c7907e" stroke-width="1.51"/><path d="M714,857L875,829L745,628Z" fill="#9998a4" stroke="#9998a4" stroke-width="1.51"/><path d="M631,352L471,315L422,457Z" fill="#ef8949" stroke="#ef8949" stroke-width="1.51"/><path d="M508,178L471,315L631,352Z" fill="#f88237" stroke="#f88237" stroke-width="1.51"/><path d="M954,417L869,289L723,500Z" fill="#c19a92" stroke="#c19a92" stroke-width="1.51"/><path d="M954,417L935,343L869,289Z" fill="#c39a90" stroke="#c39a90" stroke-width="1.51"/><path d="M875,829L982,737L745,628Z" fill="#839eba" stroke="#839eba" stroke-width="1.51"/><path d="M422,457L338,606L525,660Z" fill="#cd9383" stroke="#cd9383" stroke-width="1.51"/><path d="M363,420L338,606L422,457Z" fill="#db8a6c" stroke="#db8a6c" stroke-width="1.51"/><path d="M424,752L658,926L569,681Z" fill="#be8e78" stroke="#be8e78" stroke-width="1.51"/><path d="M714,857L889,996L875,829Z" fill="#949199" stroke="#949199" stroke-width="1.51"/><path d="M471,315L363,420L422,457Z" fill="#ed864d" stroke="#ed864d" stroke-width="1.51"/><path d="M982,737L1042,543L745,628Z" fill="#69a7d4" stroke="#69a7d4" stroke-width="1.51"/><path d="M954,417L1074,197L935,343Z" fill="#c4988b" stroke="#c4988b" stroke-width="1.51"/><path d="M471,315L367,264L363,420Z" fill="#f67f39" stroke="#f67f39" stroke-width="1.51"/><path d="M594,91L508,178L631,352Z" fill="#f07d45" stroke="#f07d45" stroke-width="1.51"/><path d="M508,178L367,264L471,315Z" fill="#fb7a2d" stroke="#fb7a2d" stroke-width="1.51"/><path d="M94,518L118,604L338,606Z" fill="#c78589" stroke="#c78589" stroke-width="1.51"/><path d="M424,752L450,953L658,926Z" fill="#c28563" stroke="#c28563" stroke-width="1.51"/><path d="M338,606L313,820L424,752Z" fill="#c58878" stroke="#c58878" stroke-width="1.51"/><path d="M118,604L313,820L338,606Z" fill="#c38582" stroke="#c38582" stroke-width="1.51"/><path d="M313,820L450,953L424,752Z" fill="#c48265" stroke="#c48265" stroke-width="1.51"/><path d="M1042,543L1134,518L954,417Z" fill="#92a1b9" stroke="#92a1b9" stroke-width="1.51"/><path d="M1185,603L1134,518L1042,543Z" fill="#7ba2c3" stroke="#7ba2c3" stroke-width="1.51"/><path d="M869,289L759,118L631,352Z" fill="#e18a64" stroke="#e18a64" stroke-width="1.51"/><path d="M932,98L759,118L869,289Z" fill="#d1877a" stroke="#d1877a" stroke-width="1.51"/><path d="M932,98L869,289L1074,197Z" fill="#c48e8c" stroke="#c48e8c" stroke-width="1.51"/><path d="M875,829L1016,987L982,737Z" fill="#7299b7" stroke="#7299b7" stroke-width="1.51"/><path d="M982,737L1119,753L1042,543Z" fill="#67a1cb" stroke="#67a1cb" stroke-width="1.51"/><path d="M658,926L889,996L714,857Z" fill="#a18e8b" stroke="#a18e8b" stroke-width="1.51"/><path d="M821,1102L889,996L658,926Z" fill="#9b8f91" stroke="#9b8f91" stroke-width="1.51"/><path d="M1016,987L1119,753L982,737Z" fill="#7497b4" stroke="#7497b4" stroke-width="1.51"/><path d="M759,118L594,91L631,352Z" fill="#e87f56" stroke="#e87f56" stroke-width="1.51"/><path d="M508,178L319,133L367,264Z" fill="#f77034" stroke="#f77034" stroke-width="1.51"/><path d="M1119,753L1185,603L1042,543Z" fill="#66a1cb" stroke="#66a1cb" stroke-width="1.51"/><path d="M889,996L1016,987L875,829Z" fill="#7e94aa" stroke="#7e94aa" stroke-width="1.51"/><path d="M759,118L677,-113L594,91Z" fill="#e07060" stroke="#e07060" stroke-width="1.51"/><path d="M1074,197L869,289L935,343Z" fill="#c89689" stroke="#c89689" stroke-width="1.51"/><path d="M1074,197L954,417L1134,518Z" fill="#b69996" stroke="#b69996" stroke-width="1.51"/><path d="M1256,216L1074,197L1134,518Z" fill="#c69078" stroke="#c69078" stroke-width="1.51"/><path d="M889,996L1005,1200L1016,987Z" fill="#7695af" stroke="#7695af" stroke-width="1.51"/><path d="M684,1207L821,1102L658,926Z" fill="#a68d85" stroke="#a68d85" stroke-width="1.51"/><path d="M94,518L338,606L363,420Z" fill="#d58575" stroke="#d58575" stroke-width="1.51"/><path d="M174,238L94,518L363,420Z" fill="#e97852" stroke="#e97852" stroke-width="1.51"/><path d="M524,-107L319,133L508,178Z" fill="#f4653a" stroke="#f4653a" stroke-width="1.51"/><path d="M174,238L363,420L367,264Z" fill="#f87533" stroke="#f87533" stroke-width="1.51"/><path d="M450,953L684,1207L658,926Z" fill="#b7886f" stroke="#b7886f" stroke-width="1.51"/><path d="M213,1006L380,1087L450,953Z" fill="#c37b5d" stroke="#c37b5d" stroke-width="1.51"/><path d="M213,1006L450,953L313,820Z" fill="#c27a5d" stroke="#c27a5d" stroke-width="1.51"/><path d="M319,133L174,238L367,264Z" fill="#f56a37" stroke="#f56a37" stroke-width="1.51"/><path d="M1185,603L1294,602L1134,518Z" fill="#769ec0" stroke="#769ec0" stroke-width="1.51"/><path d="M1119,753L1294,602L1185,603Z" fill="#6d9cc0" stroke="#6d9cc0" stroke-width="1.51"/><path d="M1428,712L1294,602L1119,753Z" fill="#7496b2" stroke="#7496b2" stroke-width="1.51"/><path d="M380,1087L684,1207L450,953Z" fill="#c3845e" stroke="#c3845e" stroke-width="1.51"/><path d="M1272,923L1226,922L1382,1163Z" fill="#80878f" stroke="#80878f" stroke-width="1.51"/><path d="M932,98L832,-48L759,118Z" fill="#cf7b7c" stroke="#cf7b7c" stroke-width="1.51"/><path d="M594,91L524,-107L508,178Z" fill="#ef6a46" stroke="#ef6a46" stroke-width="1.51"/><path d="M1026,-69L832,-48L932,98Z" fill="#c17a8e" stroke="#c17a8e" stroke-width="1.51"/><path d="M40,802L313,820L118,604Z" fill="#c07b7a" stroke="#c07b7a" stroke-width="1.51"/><path d="M40,802L213,1006L313,820Z" fill="#bf7364" stroke="#bf7364" stroke-width="1.51"/><path d="M1016,987L1226,922L1119,753Z" fill="#7a90a2" stroke="#7a90a2" stroke-width="1.51"/><path d="M1226,922L1016,987L1072,1188Z" fill="#7b8fa2" stroke="#7b8fa2" stroke-width="1.51"/><path d="M213,1006L352,1128L380,1087Z" fill="#c2795e" stroke="#c2795e" stroke-width="1.51"/><path d="M380,1087L352,1128L684,1207Z" fill="#c6825a" stroke="#c6825a" stroke-width="1.51"/><path d="M1074,197L1186,91L932,98Z" fill="#c28385" stroke="#c28385" stroke-width="1.51"/><path d="M1364,434L1256,216L1134,518Z" fill="#b49186" stroke="#b49186" stroke-width="1.51"/><path d="M-29,681L40,802L118,604Z" fill="#bd7784" stroke="#bd7784" stroke-width="1.51"/><path d="M1226,922L1272,923L1119,753Z" fill="#7c8d9d" stroke="#7c8d9d" stroke-width="1.51"/><path d="M1005,1200L889,996L821,1102Z" fill="#8394a6" stroke="#8394a6" stroke-width="1.51"/><path d="M832,-48L677,-113L759,118Z" fill="#d6716f" stroke="#d6716f" stroke-width="1.51"/><path d="M1294,602L1364,434L1134,518Z" fill="#8f98a9" stroke="#8f98a9" stroke-width="1.51"/><path d="M1471,487L1364,434L1294,602Z" fill="#95939b" stroke="#95939b" stroke-width="1.51"/><path d="M1256,216L1186,91L1074,197Z" fill="#c38279" stroke="#c38279" stroke-width="1.51"/><path d="M832,-48L803,-165L677,-113Z" fill="#d57272" stroke="#d57272" stroke-width="1.51"/><path d="M677,-113L524,-107L594,91Z" fill="#e76753" stroke="#e76753" stroke-width="1.51"/><path d="M319,133L111,128L174,238Z" fill="#f25e3d" stroke="#f25e3d" stroke-width="1.51"/><path d="M684,1207L1005,1200L821,1102Z" fill="#92919a" stroke="#92919a" stroke-width="1.51"/><path d="M-43,443L-29,681L94,518Z" fill="#c87885" stroke="#c87885" stroke-width="1.51"/><path d="M94,518L-29,681L118,604Z" fill="#be7f92" stroke="#be7f92" stroke-width="1.51"/><path d="M-27,330L-43,443L94,518Z" fill="#de6d63" stroke="#de6d63" stroke-width="1.51"/><path d="M264,-121L111,128L319,133Z" fill="#ed5242" stroke="#ed5242" stroke-width="1.51"/><path d="M1186,91L1026,-69L932,98Z" fill="#be7b8a" stroke="#be7b8a" stroke-width="1.51"/><path d="M1005,1200L1072,1188L1016,987Z" fill="#7893a9" stroke="#7893a9" stroke-width="1.51"/><path d="M-27,330L94,518L174,238Z" fill="#ea6c4d" stroke="#ea6c4d" stroke-width="1.51"/><path d="M1186,91L1180,-120L1026,-69Z" fill="#bc7483" stroke="#bc7483" stroke-width="1.51"/><path d="M1256,216L1269,111L1186,91Z" fill="#c17c74" stroke="#c17c74" stroke-width="1.51"/><path d="M1430,324L1269,111L1256,216Z" fill="#c48069" stroke="#c48069" stroke-width="1.51"/><path d="M1026,-69L803,-165L832,-48Z" fill="#c67886" stroke="#c67886" stroke-width="1.51"/><path d="M683,-220L490,-186L524,-107Z" fill="#ea654d" stroke="#ea654d" stroke-width="1.51"/><path d="M111,128L-27,330L174,238Z" fill="#f15d3d" stroke="#f15d3d" stroke-width="1.51"/><path d="M1396,868L1428,712L1119,753Z" fill="#7c8fa0" stroke="#7c8fa0" stroke-width="1.51"/><path d="M213,1006L65,1210L352,1128Z" fill="#bf7360" stroke="#bf7360" stroke-width="1.51"/><path d="M40,802L33,971L213,1006Z" fill="#bd6c63" stroke="#bd6c63" stroke-width="1.51"/><path d="M-64,846L33,971L40,802Z" fill="#bb6869" stroke="#bb6869" stroke-width="1.51"/><path d="M1272,923L1396,868L1119,753Z" fill="#7d8c9a" stroke="#7d8c9a" stroke-width="1.51"/><path d="M1419,917L1396,868L1272,923Z" fill="#828488" stroke="#828488" stroke-width="1.51"/><path d="M524,-107L264,-121L319,133Z" fill="#ef5741" stroke="#ef5741" stroke-width="1.51"/><path d="M683,-220L524,-107L677,-113Z" fill="#e46958" stroke="#e46958" stroke-width="1.51"/><path d="M1428,712L1465,661L1294,602Z" fill="#7794ac" stroke="#7794ac" stroke-width="1.51"/><path d="M1364,434L1430,324L1256,216Z" fill="#c28869" stroke="#c28869" stroke-width="1.51"/><path d="M1623,715L1465,661L1428,712Z" fill="#7b8fa1" stroke="#7b8fa1" stroke-width="1.51"/><path d="M1471,487L1430,324L1364,434Z" fill="#ae8b7d" stroke="#ae8b7d" stroke-width="1.51"/><path d="M1465,661L1471,487L1294,602Z" fill="#7b96ae" stroke="#7b96ae" stroke-width="1.51"/><path d="M989,-238L683,-220L803,-165Z" fill="#ce757b" stroke="#ce757b" stroke-width="1.51"/><path d="M803,-165L683,-220L677,-113Z" fill="#da6f69" stroke="#da6f69" stroke-width="1.51"/><path d="M-29,681L-64,846L40,802Z" fill="#bc6f78" stroke="#bc6f78" stroke-width="1.51"/><path d="M-250,671L-64,846L-29,681Z" fill="#bc727f" stroke="#bc727f" stroke-width="1.51"/><path d="M111,128L-32,65L-27,330Z" fill="#ed5143" stroke="#ed5143" stroke-width="1.51"/><path d="M348,-207L264,-121L524,-107Z" fill="#ef5740" stroke="#ef5740" stroke-width="1.51"/><path d="M1396,868L1623,715L1428,712Z" fill="#7e8a96" stroke="#7e8a96" stroke-width="1.51"/><path d="M1382,1163L1419,917L1272,923Z" fill="#828489" stroke="#828489" stroke-width="1.51"/><path d="M1523,65L1301,-6L1269,111Z" fill="#bd6f6b" stroke="#bd6f6b" stroke-width="1.51"/><path d="M1269,111L1301,-6L1186,91Z" fill="#bf7475" stroke="#bf7475" stroke-width="1.51"/><path d="M1026,-69L989,-238L803,-165Z" fill="#bf7b8f" stroke="#bf7b8f" stroke-width="1.51"/><path d="M33,971L-18,1049L213,1006Z" fill="#bc6a64" stroke="#bc6a64" stroke-width="1.51"/><path d="M352,1128L65,1210L684,1207Z" fill="#c37c5c" stroke="#c37c5c" stroke-width="1.51"/><path d="M-64,846L-18,1049L33,971Z" fill="#ba6665" stroke="#ba6665" stroke-width="1.51"/><path d="M683,-220L348,-207L490,-186Z" fill="#ef6142" stroke="#ef6142" stroke-width="1.51"/><path d="M490,-186L348,-207L524,-107Z" fill="#f15d3e" stroke="#f15d3e" stroke-width="1.51"/><path d="M1301,-6L1180,-120L1186,91Z" fill="#bc707a" stroke="#bc707a" stroke-width="1.51"/><path d="M1159,-199L989,-238L1026,-69Z" fill="#bc778a" stroke="#bc778a" stroke-width="1.51"/><path d="M683,-220L133,-302L348,-207Z" fill="#ef5840" stroke="#ef5840" stroke-width="1.51"/><path d="M66,-51L111,128L264,-121Z" fill="#e94447" stroke="#e94447" stroke-width="1.51"/><path d="M66,-51L-32,65L111,128Z" fill="#e94248" stroke="#e94248" stroke-width="1.51"/><path d="M-300,514L-250,671L-43,443Z" fill="#c97783" stroke="#c97783" stroke-width="1.51"/><path d="M-43,443L-250,671L-29,681Z" fill="#bd7c93" stroke="#bd7c93" stroke-width="1.51"/><path d="M-55,-97L66,-51L-25,-288Z" fill="#e5354b" stroke="#e5354b" stroke-width="1.51"/><path d="M-18,1049L65,1210L213,1006Z" fill="#bd6b63" stroke="#bd6b63" stroke-width="1.51"/><path d="M1180,-120L1159,-199L1026,-69Z" fill="#bc7584" stroke="#bc7584" stroke-width="1.51"/><path d="M1308,-236L1159,-199L1180,-120Z" fill="#bc707b" stroke="#bc707b" stroke-width="1.51"/><path d="M1667,578L1471,487L1465,661Z" fill="#7f94a9" stroke="#7f94a9" stroke-width="1.51"/><path d="M1072,1188L1382,1163L1226,922Z" fill="#7f8a96" stroke="#7f8a96" stroke-width="1.51"/><path d="M1005,1200L1382,1163L1072,1188Z" fill="#7d8d9d" stroke="#7d8d9d" stroke-width="1.51"/><path d="M-18,1049L-77,1095L65,1210Z" fill="#ba6665" stroke="#ba6665" stroke-width="1.51"/><path d="M-150,1082L-77,1095L-183,1025Z" fill="#ba6665" stroke="#ba6665" stroke-width="1.51"/><path d="M-77,1095L-18,1049L-183,1025Z" fill="#ba6665" stroke="#ba6665" stroke-width="1.51"/><path d="M1382,1163L1425,1147L1419,917Z" fill="#838284" stroke="#838284" stroke-width="1.51"/><path d="M-300,514L-43,443L-309,263Z" fill="#e16b5c" stroke="#e16b5c" stroke-width="1.51"/><path d="M1667,578L1620,418L1471,487Z" fill="#9a8f92" stroke="#9a8f92" stroke-width="1.51"/><path d="M1471,487L1620,418L1430,324Z" fill="#b08a79" stroke="#b08a79" stroke-width="1.51"/><path d="M1430,324L1523,65L1269,111Z" fill="#c17762" stroke="#c17762" stroke-width="1.51"/><path d="M1301,-6L1308,-236L1180,-120Z" fill="#bc6e76" stroke="#bc6e76" stroke-width="1.51"/><path d="M1623,715L1396,868L1419,917Z" fill="#81858b" stroke="#81858b" stroke-width="1.51"/><path d="M1786,886L1623,715L1419,917Z" fill="#81858a" stroke="#81858a" stroke-width="1.51"/><path d="M-77,1095L-150,1082L65,1210Z" fill="#ba6665" stroke="#ba6665" stroke-width="1.51"/><path d="M-183,1025L-18,1049L-64,846Z" fill="#ba6665" stroke="#ba6665" stroke-width="1.51"/><path d="M-312,737L-183,1025L-64,846Z" fill="#bb686a" stroke="#bb686a" stroke-width="1.51"/><path d="M1634,112L1523,65L1430,324Z" fill="#c1765f" stroke="#c1765f" stroke-width="1.51"/><path d="M1620,418L1634,112L1430,324Z" fill="#c5815a" stroke="#c5815a" stroke-width="1.51"/><path d="M1623,715L1667,578L1465,661Z" fill="#7992a8" stroke="#7992a8" stroke-width="1.51"/><path d="M-309,263L-43,443L-27,330Z" fill="#eb654b" stroke="#eb654b" stroke-width="1.51"/><path d="M-250,671L-312,737L-64,846Z" fill="#bc717c" stroke="#bc717c" stroke-width="1.51"/><path d="M1523,65L1456,-48L1301,-6Z" fill="#bb6667" stroke="#bb6667" stroke-width="1.51"/><path d="M-32,65L-309,263L-27,330Z" fill="#ee5541" stroke="#ee5541" stroke-width="1.51"/><path d="M66,-51L-55,-97L-32,65Z" fill="#e5354b" stroke="#e5354b" stroke-width="1.51"/><path d="M133,-302L66,-51L264,-121Z" fill="#e94547" stroke="#e94547" stroke-width="1.51"/><path d="M-300,514L-312,737L-250,671Z" fill="#bc798d" stroke="#bc798d" stroke-width="1.51"/><path d="M1159,-199L1308,-236L989,-238Z" fill="#bc7381" stroke="#bc7381" stroke-width="1.51"/><path d="M1456,-48L1308,-236L1301,-6Z" fill="#bb696d" stroke="#bb696d" stroke-width="1.51"/><path d="M348,-207L133,-302L264,-121Z" fill="#ec4c44" stroke="#ec4c44" stroke-width="1.51"/><path d="M989,-238L133,-302L683,-220Z" fill="#e66753" stroke="#e66753" stroke-width="1.51"/><path d="M1502,-312L133,-302L989,-238Z" fill="#c87884" stroke="#c87884" stroke-width="1.51"/><path d="M-300,514L-309,263L-312,737Z" fill="#d07479" stroke="#d07479" stroke-width="1.51"/><path d="M-307,58L-309,263L-32,65Z" fill="#eb4945" stroke="#eb4945" stroke-width="1.51"/><path d="M1456,-48L1502,-312L1308,-236Z" fill="#ba6767" stroke="#ba6767" stroke-width="1.51"/><path d="M1523,65L1603,-137L1456,-48Z" fill="#ba6665" stroke="#ba6665" stroke-width="1.51"/><path d="M1732,351L1634,112L1620,418Z" fill="#c6825a" stroke="#c6825a" stroke-width="1.51"/><path d="M1667,578L1732,351L1620,418Z" fill="#a68d85" stroke="#a68d85" stroke-width="1.51"/><path d="M-220,-88L-307,58L-32,65Z" fill="#e6374b" stroke="#e6374b" stroke-width="1.51"/><path d="M133,-302L-25,-288L66,-51Z" fill="#e73b4a" stroke="#e73b4a" stroke-width="1.51"/><path d="M-220,-88L-32,65L-55,-97Z" fill="#e5354b" stroke="#e5354b" stroke-width="1.51"/><path d="M-25,-288L-220,-88L-55,-97Z" fill="#e5354b" stroke="#e5354b" stroke-width="1.51"/><path d="M1747,1018L1786,886L1419,917Z" fill="#838181" stroke="#838181" stroke-width="1.51"/><path d="M1849,741L1845,563L1667,578Z" fill="#7794ac" stroke="#7794ac" stroke-width="1.51"/><path d="M1667,578L1845,563L1732,351Z" fill="#998f92" stroke="#998f92" stroke-width="1.51"/><path d="M1425,1147L1747,1018L1419,917Z" fill="#838181" stroke="#838181" stroke-width="1.51"/><path d="M1634,112L1603,-137L1523,65Z" fill="#bb6765" stroke="#bb6765" stroke-width="1.51"/><path d="M1798,64L1603,-137L1634,112Z" fill="#bb6765" stroke="#bb6765" stroke-width="1.51"/><path d="M1732,351L1804,243L1634,112Z" fill="#c37d5c" stroke="#c37d5c" stroke-width="1.51"/><path d="M1849,741L1667,578L1623,715Z" fill="#7a90a3" stroke="#7a90a3" stroke-width="1.51"/><path d="M1904,506L1804,243L1732,351Z" fill="#b9876d" stroke="#b9876d" stroke-width="1.51"/><path d="M1907,1079L1849,741L1786,886Z" fill="#838181" stroke="#838181" stroke-width="1.51"/><path d="M1786,886L1849,741L1623,715Z" fill="#7f8993" stroke="#7f8993" stroke-width="1.51"/><path d="M1747,1018L1907,1079L1786,886Z" fill="#838181" stroke="#838181" stroke-width="1.51"/><path d="M1425,1147L1732,1149L1747,1018Z" fill="#838181" stroke="#838181" stroke-width="1.51"/><path d="M1382,1163L1732,1149L1425,1147Z" fill="#838181" stroke="#838181" stroke-width="1.51"/><path d="M1005,1200L1732,1149L1382,1163Z" fill="#828487" stroke="#828487" stroke-width="1.51"/><path d="M1603,-137L1502,-312L1456,-48Z" fill="#ba6665" stroke="#ba6665" stroke-width="1.51"/><path d="M1308,-236L1502,-312L989,-238Z" fill="#bc6e76" stroke="#bc6e76" stroke-width="1.51"/><path d="M1849,741L1904,506L1845,563Z" fill="#7696b0" stroke="#7696b0" stroke-width="1.51"/><path d="M1845,563L1904,506L1732,351Z" fill="#a08e8b" stroke="#a08e8b" stroke-width="1.51"/><path d="M1603,-137L1620,-222L1502,-312Z" fill="#ba6665" stroke="#ba6665" stroke-width="1.51"/><path d="M1804,243L1798,64L1634,112Z" fill="#c07360" stroke="#c07360" stroke-width="1.51"/><path d="M1836,-78L1798,64L1804,243Z" fill="#be6d62" stroke="#be6d62" stroke-width="1.51"/><path d="M1836,-78L1620,-222L1603,-137Z" fill="#ba6665" stroke="#ba6665" stroke-width="1.51"/><path d="M-25,-288L-299,-212L-220,-88Z" fill="#e5354b" stroke="#e5354b" stroke-width="1.51"/><path d="M-220,-88L-299,-212L-307,58Z" fill="#e5354b" stroke="#e5354b" stroke-width="1.51"/><path d="M1798,64L1836,-78L1603,-137Z" fill="#ba6665" stroke="#ba6665" stroke-width="1.51"/><path d="M1620,-222L1924,-280L1502,-312Z" fill="#ba6665" stroke="#ba6665" stroke-width="1.51"/><path d="M1904,506L1836,-78L1804,243Z" fill="#c37b5d" stroke="#c37b5d" stroke-width="1.51"/><path d="M1732,1149L1907,1079L1747,1018Z" fill="#838181" stroke="#838181" stroke-width="1.51"/><path d="M1849,741L1907,1079L1904,506Z" fill="#7f8994" stroke="#7f8994" stroke-width="1.51"/><path d="M1836,-78L1924,-280L1620,-222Z" fill="#ba6665" stroke="#ba6665" stroke-width="1.51"/><path d="M1904,506L1924,-280L1836,-78Z" fill="#bc6b64" stroke="#bc6b64" stroke-width="1.51"/><path d="M1907,1079L1924,-280L1904,506Z" fill="#aa8c81" stroke="#aa8c81" stroke-width="1.51"/></svg>